<svg width="123" height="119" viewBox="0 0 123 119" fill="none" xmlns="http://www.w3.org/2000/svg">
<path d="M49.313 31.5585L49.3447 31.5375L49.3787 31.5206C49.3806 31.5197 49.3816 31.519 49.3821 31.5187L49.3827 31.5182L49.3829 31.5179L49.384 31.5162C49.3864 31.5121 49.3905 31.5017 49.3905 31.4864V18.6783C49.3905 18.663 49.3864 18.6526 49.384 18.6484L49.3829 18.6468L49.3827 18.6464L49.3821 18.646L49.3816 18.6457C49.3811 18.6453 49.3801 18.6448 49.3787 18.6441L49.3668 18.6381L49.3552 18.6317L48.3154 18.0573C48.2588 18.0308 48.2265 18.0324 48.1672 18.0619L47.6114 18.3382C48.2695 20.4708 48.6238 22.7355 48.6238 25.0823C48.6238 27.4662 48.2583 29.7653 47.58 31.9273L48.1672 32.2192C48.2202 32.2456 48.2517 32.2496 48.2982 32.2313L49.313 31.5585ZM38.2089 5.8851C40.8424 7.60948 43.1006 9.85538 44.8343 12.4749L45.1213 12.1895C45.1519 12.1591 45.174 12.137 45.1935 12.1164C45.1936 12.1163 45.1937 12.1162 45.1938 12.1161L45.409 10.9391C45.4082 10.8528 45.405 10.8196 45.3984 10.7933C45.3973 10.789 45.3962 10.7853 45.395 10.7821C45.3934 10.7778 45.3917 10.7742 45.3897 10.7707C45.3861 10.7644 45.3772 10.7503 45.3555 10.7287L39.852 5.25613C39.8147 5.21906 39.7839 5.19273 39.7596 5.17461L39.7558 5.17574L38.7009 5.49043C38.6231 5.54544 38.5548 5.57925 38.515 5.59895L38.5067 5.60303C38.4928 5.60997 38.4835 5.61479 38.4777 5.61786L38.2089 5.8851ZM30.2718 2.59958C31.9574 2.9498 33.5757 3.48291 35.1048 4.17712V3.89067V3.85665L34.7753 2.65529L34.7748 2.65347C34.7728 2.65233 34.7707 2.65117 34.7686 2.64998C34.7426 2.63531 34.7141 2.62053 34.6796 2.60314L31.3064 1.70866C31.2362 1.7098 31.2055 1.71296 31.1805 1.71918C31.1696 1.72189 31.1626 1.72481 31.156 1.72852C31.1492 1.73233 31.1348 1.74144 31.1131 1.763L30.4105 2.46162L30.2718 2.59958ZM25.5294 2.11432C25.8736 2.11432 26.2161 2.12183 26.5567 2.13667V1.67836C26.5567 1.5505 26.5538 1.50953 26.5459 1.47826C26.5434 1.46814 26.5407 1.46181 26.5373 1.4557C26.5343 1.45053 26.5278 1.44014 26.5137 1.42474L25.6558 0.678364C25.6272 0.664425 25.6021 0.652653 25.578 0.642147C25.5534 0.631443 25.5347 0.624298 25.5207 0.619556L25.5114 0.624165L25.4507 0.640121L13.0395 3.90012C13.0383 3.90209 13.0372 3.90412 13.036 3.90622C13.0202 3.93391 13.0043 3.96439 12.9851 4.0022L12.6492 5.11538L12.6339 5.16615L12.6278 5.17828C12.6285 5.18404 12.6296 5.19073 12.6313 5.19812C12.6334 5.20753 12.6361 5.21682 12.6391 5.22538C12.64 5.22817 12.641 5.23074 12.6419 5.23307L13.1151 5.70361L13.0178 5.77615C16.624 3.45923 20.9198 2.11432 25.5294 2.11432ZM2.43496 25.0823C2.43496 19.9118 4.15452 15.14 7.05521 11.3011L6.59669 10.8451C6.57501 10.8236 6.56063 10.8145 6.55382 10.8107C6.5472 10.8069 6.5402 10.804 6.52928 10.8013C6.50156 10.7944 6.46694 10.7913 6.37931 10.7905L5.14645 11.0134L5.09245 11.0232H5.0669C5.05157 11.0487 5.03603 11.0783 5.0135 11.1228L0.614415 22.8645V23.2213L1.26475 23.9603C1.2803 23.9745 1.29093 23.9811 1.2965 23.9842C1.30313 23.9879 1.31012 23.9909 1.32105 23.9936C1.35383 24.0017 1.39628 24.0046 1.52469 24.0046H2.13666V24.6166V24.618V24.6193V24.6207V24.622V24.6234V24.6247V24.6261V24.6274V24.6288V24.6301V24.6314V24.6328V24.6341V24.6354V24.6368V24.6381V24.6394V24.6407V24.642V24.6434V24.6447V24.646V24.6473V24.6486V24.6499V24.6512V24.6525V24.6538V24.6551V24.6563V24.6576V24.6589V24.6602V24.6615V24.6627V24.664V24.6653V24.6666V24.6678V24.6691V24.6704V24.6716V24.6729V24.6741V24.6754V24.6766V24.6779V24.6791V24.6803V24.6816V24.6828V24.6841V24.6853V24.6865V24.6877V24.689V24.6902V24.6914V24.6926V24.6938V24.6951V24.6963V24.6975V24.6987V24.6999V24.7011V24.7023V24.7035V24.7047V24.7059V24.7071V24.7082V24.7094V24.7106V24.7118V24.713V24.7141V24.7153V24.7165V24.7177V24.7188V24.72V24.7212V24.7223V24.7235V24.7246V24.7258V24.7269V24.7281V24.7292V24.7304V24.7315V24.7327V24.7338V24.7349V24.7361V24.7372V24.7383V24.7395V24.7406V24.7417V24.7428V24.7439V24.7451V24.7462V24.7473V24.7484V24.7495V24.7506V24.7517V24.7528V24.7539V24.755V24.7561V24.7572V24.7583V24.7594V24.7605V24.7616V24.7626V24.7637V24.7648V24.7659V24.7669V24.768V24.7691V24.7702V24.7712V24.7723V24.7734V24.7744V24.7755V24.7765V24.7776V24.7786V24.7797V24.7807V24.7818V24.7828V24.7839V24.7849V24.786V24.787V24.788V24.7891V24.7901V24.7911V24.7922V24.7932V24.7942V24.7952V24.7962V24.7973V24.7983V24.7993V24.8003V24.8013V24.8023V24.8033V24.8043V24.8054V24.8064V24.8074V24.8084V24.8093V24.8103V24.8113V24.8123V24.8133V24.8143V24.8153V24.8163V24.8173V24.8182V24.8192V24.8202V24.8212V24.8221V24.8231V24.8241V24.8251V24.826V24.827V24.8279V24.8289V24.8299V24.8308V24.8318V24.8327V24.8337V24.8346V24.8356V24.8365V24.8375V24.8384V24.8394V24.8403V24.8412V24.8422V24.8431V24.8441V24.845V24.8459V24.8469V24.8478V24.8487V24.8496V24.8506V24.8515V24.8524V24.8533V24.8542V24.8552V24.8561V24.857V24.8579V24.8588V24.8597V24.8606V24.8615V24.8624V24.8633V24.8642V24.8651V24.866V24.8669V24.8678V24.8687V24.8696V24.8705V24.8714V24.8723V24.8731V24.874V24.8749V24.8758V24.8767V24.8776V24.8784V24.8793V24.8802V24.8811V24.8819V24.8828V24.8837V24.8845V24.8854V24.8863V24.8871V24.888V24.8888V24.8897V24.8906V24.8914V24.8923V24.8931V24.894V24.8948V24.8957V24.8965V24.8974V24.8982V24.8991V24.8999V24.9007V24.9016V24.9024V24.9033V24.9041V24.9049V24.9058V24.9066V24.9074V24.9083V24.9091V24.9099V24.9107V24.9116V24.9124V24.9132V24.914V24.9149V24.9157V24.9165V24.9173V24.9181V24.9189V24.9198V24.9206V24.9214V24.9222V24.923V24.9238V24.9246V24.9254V24.9262V24.927V24.9278V24.9286V24.9294V24.9302V24.931V24.9318V24.9326V24.9334V24.9342V24.935V24.9358V24.9366V24.9374V24.9382V24.9389V24.9397V24.9405V24.9413V24.9421V24.9429V24.9436V24.9444V24.9452V24.946V24.9468V24.9475V24.9483V24.9491V24.9499V24.9506V24.9514V24.9522V24.9529V24.9537V24.9545V24.9552V24.956V24.9568V24.9575V24.9583V24.9591V24.9598V24.9606V24.9613V24.9621V24.9628V24.9636V24.9644V24.9651V24.9659V24.9666V24.9674V24.9681V24.9689V24.9696V24.9704V24.9711V24.9719V24.9726V24.9734V24.9741V24.9748V24.9756V24.9763V24.9771V24.9778V24.9785V24.9793V24.98V24.9808V24.9815V24.9822V24.983V24.9837V24.9844V24.9852V24.9859V24.9866V24.9874V24.9881V24.9888V24.9896V24.9903V24.991V24.9917V24.9925V24.9932V24.9939V24.9946V24.9954V24.9961V24.9968V24.9975V24.9982V24.999V24.9997V25.0004V25.0011V25.0018V25.0026V25.0033V25.004V25.0047V25.0054V25.0061V25.0068V25.0076V25.0083V25.009V25.0097V25.0104V25.0111V25.0118V25.0125V25.0132V25.0139V25.0147V25.0154V25.0161V25.0168V25.0175V25.0182V25.0189V25.0196V25.0203V25.021V25.0217V25.0224V25.0231V25.0238V25.0245V25.0252V25.0259V25.0266V25.0273V25.028V25.0287V25.0294V25.0301V25.0308V25.0315V25.0322V25.0329V25.0336V25.0343V25.035V25.0357V25.0364V25.0371V25.0377V25.0384V25.0391V25.0398V25.0405V25.0412V25.0419V25.0426V25.0433V25.044V25.0447V25.0454V25.046V25.0467V25.0474V25.0481V25.0488V25.0495V25.0502V25.0509V25.0515V25.0522V25.0529V25.0536V25.0543V25.055V25.0557V25.0564V25.057V25.0577V25.0584V25.0591V25.0598V25.0605V25.0612V25.0618V25.0625V25.0632V25.0639V25.0646V25.0653V25.0659V25.0666V25.0673V25.068V25.0687V25.0694V25.07V25.0707V25.0714V25.0721V25.0728V25.0735V25.0741V25.0748V25.0755V25.0762V25.0769V25.0776V25.0782V25.0789V25.0796V25.0803V25.081V25.0816V25.0823C2.13666 30.0714 3.73228 34.6076 6.35838 38.3543L6.51339 38.5755L6.45448 38.839L6.23538 39.8194C6.23637 39.8971 6.23951 39.9285 6.24583 39.9536C6.24837 39.9637 6.25105 39.97 6.25451 39.9761C6.25799 39.9823 6.26657 39.9958 6.287 40.0164L11.9048 45.4862L11.9048 45.4862L11.9094 45.4907C11.9466 45.5278 11.9774 45.5541 12.0017 45.5722L12.0055 45.5711L13.126 45.2369C13.1484 45.2195 13.1742 45.2014 13.2025 45.1845C13.2539 45.1538 13.3139 45.1264 13.3826 45.1073C13.451 45.0882 13.5193 45.0798 13.5856 45.0798H13.7521L13.8956 45.1642C16.3964 46.6336 19.131 47.5422 22.109 47.9978L22.375 48.0385L22.5248 48.262L23.2274 49.3099L23.2487 49.3416L23.2658 49.3758C23.2666 49.3774 23.2672 49.3782 23.2674 49.3785L23.2676 49.3788L23.2677 49.3788L23.2678 49.3789L23.2681 49.3792L23.2702 49.3806C23.2753 49.3835 23.2873 49.388 23.3045 49.388H26.9345C26.9518 49.388 26.9637 49.3835 26.9688 49.3806L26.971 49.3792L26.9713 49.3789L26.9714 49.3788L26.9715 49.3788L26.9717 49.3785C26.9719 49.3782 26.9724 49.3774 26.9733 49.3758L26.9864 49.3497L27.0019 49.325L27.5874 48.3935L27.7433 48.1454L28.0344 48.1114C29.9792 47.8838 31.9216 47.429 33.7465 46.7485L34.5723 46.4406V47.1738C34.5963 47.1869 34.6229 47.2006 34.6544 47.2164L35.6881 47.5248C35.8331 47.5235 35.9582 47.5158 36.1235 47.4709L45.8381 39.4209C45.8498 39.4077 45.8554 39.3987 45.8581 39.394C45.8616 39.3878 45.8642 39.3815 45.8668 39.3714C45.8734 39.345 45.8765 39.3118 45.8774 39.2256L45.6618 38.0465C45.6224 37.9372 45.5988 37.9084 45.596 37.9051C45.5954 37.9044 45.594 37.9024 45.5863 37.8968C45.5762 37.8897 45.556 37.8769 45.5145 37.8563L44.9273 37.5643L45.032 37.3858C40.9333 43.7963 33.7276 48.0503 25.5294 48.0503C12.7825 48.0503 2.43496 37.766 2.43496 25.0823ZM13.0302 45.3226C13.0301 45.3228 13.0318 45.3212 13.0356 45.3174C13.0322 45.3205 13.0303 45.3224 13.0302 45.3226Z" fill="white" stroke="white" stroke-width="1.22395"/>
<path d="M32.0024 25C32.0024 21.6512 29.1303 19 25.5024 19C21.8745 19 19.0024 21.6512 19.0024 25C19.0024 28.3488 21.8745 31 25.5024 31C29.1303 31 32.0024 28.3488 32.0024 25Z" fill="white"/>
<path d="M93.6806 106.586L26.0027 26.5L27.1042 25.3984L94.4149 104.995C96.7404 107.32 100.045 108.667 103.35 108.667H121.51V110.258H102.738C99.3108 110.258 96.1285 108.911 93.6806 106.586Z" fill="white" stroke="white" stroke-linejoin="round"/>
<path d="M108.123 116.909H101.146C97.8415 116.909 94.5368 115.563 92.2113 113.237L83.3989 104.425L82.2974 105.526L91.5994 114.828C93.9249 117.154 97.2295 118.5 100.534 118.5H108.123V116.909Z" fill="white" stroke="white" stroke-linecap="round" stroke-linejoin="round"/>
</svg>
