<svg width="645" height="153" viewBox="0 0 645 153" fill="none" xmlns="http://www.w3.org/2000/svg">
<path d="M586.853 37.5493L588.073 38.3626C588.344 38.4981 588.615 38.4981 588.886 38.3626C589.564 40.2604 590.377 42.0226 591.326 43.6493C591.055 43.7848 590.919 43.9204 590.784 44.327L590.513 45.8181C590.513 46.0893 590.513 46.3604 590.784 46.6315L602.171 56.1204C602.577 56.2559 602.848 56.2559 603.119 56.2559L604.475 55.8493C604.746 55.7137 605.017 55.5781 605.017 55.307C607.186 56.1204 609.491 56.6626 611.795 56.9337L612.473 58.0181C612.608 58.2893 612.879 58.4248 613.151 58.4248L617.353 58.4248C617.624 58.4248 617.895 58.2893 618.031 58.0181L618.844 56.7981C622.368 56.2559 625.622 55.1715 628.604 53.4093C628.739 53.4093 628.739 53.5448 628.875 53.5448L630.231 53.9515C630.502 54.087 630.773 53.9515 631.044 53.6804L637.551 47.3093C637.822 47.0381 637.822 46.767 637.822 46.4959L637.551 45.2759C640.668 40.8026 642.566 35.3804 642.566 29.4159C642.566 29.2804 642.566 29.1448 642.566 28.8737C642.837 28.8737 643.108 28.8737 643.379 28.6026L644.328 27.5181C644.328 27.3826 644.328 27.1115 644.328 26.7048L639.177 12.8781C639.042 12.607 638.906 12.3359 638.499 12.3359L637.008 12.0648C636.737 12.0648 636.466 12.0648 636.195 12.3359C634.433 10.167 632.399 8.40481 630.231 6.77814C630.366 6.64259 630.502 6.23592 630.366 5.96481L629.959 4.60925C629.824 4.33814 629.688 4.06703 629.417 4.06703L615.048 0.271472C614.777 0.135916 614.506 0.271479 614.235 0.407038L613.151 1.35592C612.879 1.62703 612.879 1.89814 612.879 2.16925C611.795 2.30481 610.711 2.44037 609.626 2.57592L608.813 1.76259C608.542 1.49148 608.271 1.49147 607.999 1.49147L603.933 2.57592C603.662 2.71148 603.391 2.84704 603.391 3.11815L602.984 4.60926L602.984 4.74481C602.035 5.15148 601.086 5.6937 600.273 6.23592C600.137 6.10036 600.002 6.10037 599.866 5.96481L598.511 5.55814C598.239 5.42259 597.968 5.55815 597.697 5.82926L591.326 12.2004C591.055 12.4715 591.055 12.7426 591.055 13.0137L591.326 14.5048C591.326 14.6404 591.462 14.7759 591.597 14.9115C590.513 16.6737 589.564 18.5715 588.886 20.6048C588.615 20.4693 588.344 20.4693 588.073 20.6048L586.853 21.2826C586.582 21.4181 586.446 21.6893 586.446 21.9604L586.446 36.8715C586.446 37.1426 586.582 37.4137 586.853 37.5493ZM614.777 3.38925C629.146 3.38925 640.804 15.047 640.804 29.4159C640.804 43.7848 629.146 55.4426 614.777 55.4426C600.408 55.4426 588.751 43.7848 588.751 29.4159C588.751 15.047 600.408 3.38926 614.777 3.38925Z" fill="white"/>
<path d="M608.949 29.5515C608.949 26.2982 611.524 23.7226 614.778 23.7226C618.031 23.7226 620.607 26.2982 620.607 29.5515C620.607 32.8048 618.031 35.3804 614.778 35.3804C611.524 35.3804 608.949 32.8048 608.949 29.5515Z" fill="white"/>
<path opacity="0.1" d="M469.054 141.249L469.054 46.4147C469.054 45.0976 467.956 44 466.639 44L6.73678 44C5.41964 44 4.32198 45.0976 4.32198 46.4148L4.32199 141.249L469.054 141.249Z" fill="#9DC9FE"/>
<path d="M504.029 141.52L615.592 29.822L614.372 28.602L503.216 139.758C500.641 142.333 496.981 143.824 493.321 143.824L0.271667 143.824L0.271667 145.586L493.998 145.586C497.794 145.586 501.318 144.095 504.029 141.52Z" fill="white"/>
<path d="M1.13394 152.5L483.287 152.5L483.287 150.738L1.13394 150.738L1.13394 152.5Z" fill="white"/>
<path d="M480.986 139.351L482.748 139.351L482.748 54.9106L480.986 54.9106L480.986 139.351Z" fill="white"/>
<path d="M488.034 150.738L495.761 150.738C499.421 150.738 503.081 149.247 505.656 146.671L515.416 136.911L516.636 138.131L506.334 148.433C503.758 151.009 500.098 152.5 496.438 152.5L488.034 152.5L488.034 150.738Z" fill="white"/>
</svg>
