<svg width="222" height="119" viewBox="0 0 222 119" fill="none" xmlns="http://www.w3.org/2000/svg">
<path d="M49.3106 31.5585L49.3422 31.5375L49.3763 31.5206C49.3782 31.5197 49.3792 31.519 49.3796 31.5187L49.3802 31.5182L49.3805 31.5179L49.3816 31.5162C49.384 31.5121 49.388 31.5017 49.388 31.4864V18.6783C49.388 18.6629 49.384 18.6526 49.3816 18.6484L49.3805 18.6468L49.3802 18.6464L49.3796 18.646L49.3792 18.6457C49.3786 18.6453 49.3777 18.6448 49.3763 18.6441L49.3644 18.6381L49.3528 18.6317L48.3129 18.0573C48.2564 18.0308 48.2241 18.0324 48.1647 18.0619L47.6089 18.3382C48.2671 20.4708 48.6213 22.7355 48.6213 25.0823C48.6213 27.4662 48.2558 29.7653 47.5776 31.9273L48.1647 32.2192C48.2178 32.2456 48.2493 32.2496 48.2958 32.2313L49.3106 31.5585ZM38.2065 5.8851C40.84 7.60948 43.0982 9.85538 44.8318 12.4749L45.1188 12.1896C45.1494 12.1591 45.1716 12.137 45.1911 12.1164C45.1912 12.1163 45.1912 12.1162 45.1913 12.1161L45.4065 10.9391C45.4057 10.8528 45.4026 10.8196 45.396 10.7933C45.3934 10.7832 45.3907 10.7768 45.3873 10.7707C45.3837 10.7644 45.3747 10.7503 45.353 10.7287L39.8495 5.25613C39.8122 5.21906 39.7815 5.19272 39.7572 5.17461L39.7534 5.17573L38.6985 5.49043C38.6207 5.54544 38.5524 5.57925 38.5126 5.59895L38.5043 5.60303C38.4903 5.60997 38.481 5.6148 38.4752 5.61787L38.2065 5.8851ZM30.2694 2.59958C31.9549 2.9498 33.5733 3.48291 35.1023 4.17711V3.89067V3.85663L34.7728 2.65529L34.7723 2.65347C34.7703 2.65233 34.7683 2.65117 34.7662 2.64998C34.7402 2.63531 34.7117 2.62053 34.6772 2.60314L31.3039 1.70866C31.2338 1.7098 31.2031 1.71296 31.1781 1.71917C31.1672 1.72189 31.1602 1.72481 31.1535 1.72852C31.1467 1.73233 31.1324 1.74144 31.1107 1.763L30.4081 2.46162L30.2694 2.59958ZM25.5269 2.11432C25.8712 2.11432 26.2137 2.12183 26.5543 2.13667V1.67836C26.5543 1.55051 26.5514 1.50953 26.5435 1.47826C26.541 1.46814 26.5383 1.46181 26.5348 1.4557C26.5319 1.45053 26.5254 1.44015 26.5112 1.42474L25.6534 0.678364C25.6247 0.664425 25.5997 0.652653 25.5755 0.642147C25.5509 0.631447 25.5322 0.624302 25.5182 0.61956L25.509 0.624168L25.4482 0.640121L13.037 3.90012C13.0359 3.90208 13.0347 3.90412 13.0335 3.90622C13.0177 3.93391 13.0018 3.96439 12.9826 4.00219L12.6468 5.11538L12.6315 5.16615L12.6254 5.17828C12.6261 5.18404 12.6272 5.19073 12.6289 5.19812C12.631 5.20753 12.6336 5.21682 12.6366 5.22538C12.6376 5.22817 12.6385 5.23074 12.6394 5.23307L13.1126 5.70361L13.0154 5.77614C16.6216 3.45922 20.9174 2.11432 25.5269 2.11432ZM12.6095 5.20329L12.6115 5.20533C12.6109 5.20466 12.6102 5.20398 12.6095 5.20329ZM2.43252 25.0823C2.43252 19.9118 4.15208 15.14 7.05276 11.3011L6.59425 10.8451C6.57257 10.8236 6.55819 10.8145 6.55138 10.8107C6.54475 10.8069 6.53776 10.804 6.52684 10.8013C6.49912 10.7944 6.4645 10.7913 6.37687 10.7905L5.144 11.0134L5.09 11.0232H5.06446C5.04913 11.0487 5.03358 11.0783 5.01106 11.1228L0.611974 22.8645V23.2213L1.26231 23.9604C1.27786 23.9745 1.28849 23.9811 1.29406 23.9842C1.30069 23.9879 1.30768 23.9909 1.31861 23.9936C1.35139 24.0017 1.39384 24.0046 1.52225 24.0046H2.13422V24.6166V24.618V24.6193V24.6207V24.622V24.6234V24.6247V24.6261V24.6274V24.6288V24.6301V24.6314V24.6328V24.6341V24.6354V24.6368V24.6381V24.6394V24.6407V24.642V24.6434V24.6447V24.646V24.6473V24.6486V24.6499V24.6512V24.6525V24.6538V24.6551V24.6563V24.6576V24.6589V24.6602V24.6615V24.6628V24.664V24.6653V24.6666V24.6678V24.6691V24.6704V24.6716V24.6729V24.6741V24.6754V24.6766V24.6779V24.6791V24.6804V24.6816V24.6828V24.6841V24.6853V24.6865V24.6877V24.689V24.6902V24.6914V24.6926V24.6938V24.6951V24.6963V24.6975V24.6987V24.6999V24.7011V24.7023V24.7035V24.7047V24.7059V24.7071V24.7082V24.7094V24.7106V24.7118V24.713V24.7141V24.7153V24.7165V24.7177V24.7188V24.72V24.7212V24.7223V24.7235V24.7246V24.7258V24.7269V24.7281V24.7292V24.7304V24.7315V24.7327V24.7338V24.7349V24.7361V24.7372V24.7383V24.7395V24.7406V24.7417V24.7428V24.7439V24.7451V24.7462V24.7473V24.7484V24.7495V24.7506V24.7517V24.7528V24.7539V24.755V24.7561V24.7572V24.7583V24.7594V24.7605V24.7616V24.7626V24.7637V24.7648V24.7659V24.767V24.768V24.7691V24.7702V24.7712V24.7723V24.7734V24.7744V24.7755V24.7765V24.7776V24.7786V24.7797V24.7807V24.7818V24.7828V24.7839V24.7849V24.786V24.787V24.788V24.7891V24.7901V24.7911V24.7922V24.7932V24.7942V24.7952V24.7963V24.7973V24.7983V24.7993V24.8003V24.8013V24.8023V24.8033V24.8043V24.8054V24.8064V24.8074V24.8084V24.8093V24.8103V24.8113V24.8123V24.8133V24.8143V24.8153V24.8163V24.8173V24.8182V24.8192V24.8202V24.8212V24.8221V24.8231V24.8241V24.8251V24.826V24.827V24.8279V24.8289V24.8299V24.8308V24.8318V24.8327V24.8337V24.8346V24.8356V24.8365V24.8375V24.8384V24.8394V24.8403V24.8413V24.8422V24.8431V24.8441V24.845V24.8459V24.8469V24.8478V24.8487V24.8496V24.8506V24.8515V24.8524V24.8533V24.8542V24.8552V24.8561V24.857V24.8579V24.8588V24.8597V24.8606V24.8615V24.8624V24.8633V24.8642V24.8651V24.866V24.8669V24.8678V24.8687V24.8696V24.8705V24.8714V24.8723V24.8731V24.874V24.8749V24.8758V24.8767V24.8776V24.8784V24.8793V24.8802V24.8811V24.8819V24.8828V24.8837V24.8845V24.8854V24.8863V24.8871V24.888V24.8888V24.8897V24.8906V24.8914V24.8923V24.8931V24.894V24.8948V24.8957V24.8965V24.8974V24.8982V24.8991V24.8999V24.9007V24.9016V24.9024V24.9033V24.9041V24.9049V24.9058V24.9066V24.9074V24.9083V24.9091V24.9099V24.9107V24.9116V24.9124V24.9132V24.914V24.9149V24.9157V24.9165V24.9173V24.9181V24.9189V24.9198V24.9206V24.9214V24.9222V24.923V24.9238V24.9246V24.9254V24.9262V24.927V24.9278V24.9286V24.9294V24.9302V24.931V24.9318V24.9326V24.9334V24.9342V24.935V24.9358V24.9366V24.9374V24.9382V24.9389V24.9397V24.9405V24.9413V24.9421V24.9429V24.9436V24.9444V24.9452V24.946V24.9468V24.9475V24.9483V24.9491V24.9499V24.9506V24.9514V24.9522V24.9529V24.9537V24.9545V24.9552V24.956V24.9568V24.9575V24.9583V24.9591V24.9598V24.9606V24.9613V24.9621V24.9628V24.9636V24.9644V24.9651V24.9659V24.9666V24.9674V24.9681V24.9689V24.9696V24.9704V24.9711V24.9719V24.9726V24.9734V24.9741V24.9748V24.9756V24.9763V24.9771V24.9778V24.9785V24.9793V24.98V24.9808V24.9815V24.9822V24.983V24.9837V24.9844V24.9852V24.9859V24.9866V24.9874V24.9881V24.9888V24.9896V24.9903V24.991V24.9917V24.9925V24.9932V24.9939V24.9946V24.9954V24.9961V24.9968V24.9975V24.9982V24.999V24.9997V25.0004V25.0011V25.0018V25.0026V25.0033V25.004V25.0047V25.0054V25.0061V25.0068V25.0076V25.0083V25.009V25.0097V25.0104V25.0111V25.0118V25.0125V25.0132V25.0139V25.0147V25.0154V25.0161V25.0168V25.0175V25.0182V25.0189V25.0196V25.0203V25.021V25.0217V25.0224V25.0231V25.0238V25.0245V25.0252V25.0259V25.0266V25.0273V25.028V25.0287V25.0294V25.0301V25.0308V25.0315V25.0322V25.0329V25.0336V25.0343V25.035V25.0357V25.0364V25.0371V25.0377V25.0384V25.0391V25.0398V25.0405V25.0412V25.0419V25.0426V25.0433V25.044V25.0447V25.0454V25.046V25.0467V25.0474V25.0481V25.0488V25.0495V25.0502V25.0509V25.0515V25.0522V25.0529V25.0536V25.0543V25.055V25.0557V25.0564V25.057V25.0577V25.0584V25.0591V25.0598V25.0605V25.0612V25.0618V25.0625V25.0632V25.0639V25.0646V25.0653V25.0659V25.0666V25.0673V25.068V25.0687V25.0694V25.07V25.0707V25.0714V25.0721V25.0728V25.0735V25.0741V25.0748V25.0755V25.0762V25.0769V25.0776V25.0782V25.0789V25.0796V25.0803V25.081V25.0816V25.0823C2.13422 30.0714 3.72984 34.6076 6.35594 38.3543L6.51094 38.5755L6.45204 38.839L6.23294 39.8194C6.23393 39.8971 6.23707 39.9285 6.24339 39.9536C6.24593 39.9637 6.24861 39.97 6.25206 39.9761C6.25555 39.9823 6.26414 39.9958 6.28458 40.0164L11.9023 45.4862L11.9024 45.4862L11.9069 45.4907C11.9442 45.5278 11.975 45.5541 11.9993 45.5722L12.003 45.5711L13.1236 45.2369C13.1459 45.2195 13.1717 45.2014 13.2001 45.1845C13.2515 45.1538 13.3115 45.1264 13.3801 45.1073C13.4485 45.0882 13.5168 45.0798 13.5831 45.0798H13.7496L13.8932 45.1642C16.3939 46.6336 19.1285 47.5422 22.1066 47.9978L22.3725 48.0385L22.5224 48.262L23.2249 49.3099L23.2462 49.3416L23.2634 49.3758C23.2642 49.3774 23.2647 49.3782 23.2649 49.3785L23.2652 49.3788L23.2652 49.3788L23.2653 49.3789L23.2657 49.3792L23.2678 49.3806C23.2729 49.3835 23.2849 49.388 23.3021 49.388H26.9321C26.9493 49.388 26.9613 49.3835 26.9664 49.3806L26.9685 49.3792L26.9689 49.3789L26.969 49.3788L26.969 49.3788L26.9692 49.3785C26.9694 49.3782 26.97 49.3774 26.9708 49.3758L26.9839 49.3497L26.9994 49.325L27.5849 48.3935L27.7409 48.1454L28.0319 48.1114C29.9767 47.8838 31.9192 47.429 33.744 46.7485L34.5698 46.4406V47.1738C34.5939 47.1869 34.6204 47.2006 34.652 47.2164L35.6856 47.5248C35.8307 47.5235 35.9557 47.5158 36.121 47.4709L45.8357 39.4209C45.8474 39.4077 45.853 39.3987 45.8557 39.394C45.8591 39.3878 45.8618 39.3815 45.8643 39.3714C45.871 39.3451 45.8741 39.3118 45.8749 39.2255L45.6593 38.0465C45.62 37.9372 45.5964 37.9084 45.5936 37.9051C45.593 37.9044 45.5916 37.9024 45.5838 37.8968C45.5738 37.8897 45.5536 37.8769 45.5121 37.8563L44.9249 37.5643L45.0296 37.3858C40.9308 43.7963 33.7251 48.0503 25.5269 48.0503C12.78 48.0503 2.43252 37.766 2.43252 25.0823ZM13.0277 45.3226C13.0277 45.3227 13.0294 45.3211 13.0332 45.3174C13.0297 45.3206 13.0278 45.3225 13.0277 45.3226Z" fill="white" stroke="white" stroke-width="1.22395"/>
<path d="M32 25C32 21.6512 29.1279 19 25.5 19C21.8721 19 19 21.6512 19 25C19 28.3488 21.8721 31 25.5 31C29.1279 31 32 28.3488 32 25Z" fill="white"/>
<path d="M93.6781 106.586L26.0002 26.5L27.1018 25.3984L94.4125 104.995C96.738 107.32 100.043 108.667 103.347 108.667H221V110.258H102.735C99.3083 110.258 96.126 108.911 93.6781 106.586Z" fill="white" stroke="white" stroke-linejoin="round"/>
<path d="M108.12 116.909H101.144C97.8391 116.909 94.5344 115.563 92.2089 113.237L83.3965 104.425L82.2949 105.526L91.5969 114.828C93.9224 117.154 97.2271 118.5 100.532 118.5H108.12V116.909V116.909Z" fill="white" stroke="white" stroke-linecap="round" stroke-linejoin="round"/>
</svg>
