<svg width="247" height="311" viewBox="0 0 247 311" fill="none" xmlns="http://www.w3.org/2000/svg">
<g clip-path="url(#clip0)">
<path d="M7.52284 62.0337L1.1941 68.3027C0.417936 69.0789 0 70.1536 0 71.2283V171.951C0 174.16 0.895576 176.309 2.44791 177.921L7.28402 182.757L7.52284 62.0337Z" fill="url(#paint0_linear)"/>
<path d="M247 115.649C247 114.395 246.462 113.141 245.567 112.245L240.432 107.111L240.373 194.221H247V115.649Z" fill="url(#paint1_linear)"/>
<path d="M55.8838 10.2693L62.3319 3.82113C64.7799 1.37322 68.1233 0 71.5862 0H179.473C182.936 0 186.28 1.37322 188.728 3.82113L195.892 10.9857L55.8838 10.2693Z" fill="url(#paint2_linear)"/>
<path d="M225.922 11.5081H225.924H233.267C236.59 11.5081 239.313 14.2193 239.313 17.613V193.146V194.221V303.003C239.313 306.392 236.596 309.108 233.208 309.108H225.864H225.862L24.8966 309.467C24.8961 309.467 24.8954 309.467 24.8949 309.467C23.5163 309.466 22.0777 308.951 21.0099 308.036L21.0014 308.028L10.6927 299.389C10.6895 299.386 10.6864 299.383 10.6833 299.38C9.33529 298.183 8.52246 296.483 8.52246 294.704V194.221V193.146V25.9121C8.52246 24.1145 9.29002 22.4249 10.6746 21.2435L21.0589 12.5899L21.059 12.5899L21.0696 12.5809C22.141 11.6625 23.5215 11.1501 24.9555 11.1499C24.9558 11.1499 24.9561 11.1499 24.9563 11.1499L225.922 11.5081Z" stroke="url(#paint3_linear)" stroke-width="2"/>
<path d="M224.523 22.3304H217.773L33.0267 22C31.4899 22 30.008 22.5507 28.8553 23.5419L19.3052 31.527C17.8233 32.7936 17 34.6109 17 36.5384V190.788V191.78V284.462C17 286.389 17.8782 288.206 19.3052 289.473L28.8005 297.458C29.9531 298.449 31.4899 299 32.9718 299L217.718 298.67H224.469C228.091 298.67 231 295.751 231 292.116V191.78V190.788V28.8837C231 25.2491 228.091 22.3304 224.523 22.3304Z" fill="url(#paint4_linear)" fill-opacity="0.4"/>
<path d="M7.52284 258.583L1.1941 252.254C0.417936 251.478 0 250.403 0 249.329V218.581C0 216.371 0.895576 214.222 2.44791 212.61L7.28402 207.774L7.52284 258.583Z" fill="url(#paint5_linear)"/>
<g opacity="0.6" clip-path="url(#clip1)">
<path d="M122.2 260.4V260.8L120 259.7V259.3L122.2 258.2V258.6L120.5 259.5L122.2 260.4Z" fill="white"/>
<path d="M123 261V257H123.4V261H123Z" fill="white"/>
<path d="M124.3 257.8V257.3H124.7V257.8H124.3ZM124.3 261V258.4H124.7V261H124.3Z" fill="white"/>
<path d="M127.3 259.5L125.5 258.6V258.2L127.7 259.3V259.7L125.5 260.8V260.4L127.3 259.5Z" fill="white"/>
<path d="M130.4 259.3C130.6 259.6 130.8 260 131.1 260.3C131.1 259.9 131.1 259.6 131.1 259.2V257.3H131.5V261H131L129.6 259C129.4 258.6 129.1 258.3 128.9 258C128.9 258.3 128.9 258.7 128.9 259.2V261H128.5V257.3H128.9L130.4 259.3Z" fill="white"/>
<path d="M135.7 259.1C135.7 259.4 135.7 259.6 135.6 259.9C135.5 260.1 135.4 260.3 135.3 260.5C135.2 260.7 135 260.8 134.8 260.9C134.4 261 134.2 261 134 261C133.7 261 133.5 261 133.3 260.9C133.1 260.8 132.9 260.7 132.8 260.5C132.7 260.3 132.5 260.1 132.5 259.9C132.4 259.7 132.4 259.4 132.4 259.1C132.4 258.8 132.4 258.6 132.5 258.3C132.6 258.1 132.7 257.9 132.8 257.7C132.9 257.5 133.1 257.4 133.3 257.3C133.5 257.2 133.7 257.2 134 257.2C134.3 257.2 134.5 257.2 134.7 257.3C134.9 257.4 135.1 257.5 135.2 257.7C135.3 257.9 135.5 258.1 135.5 258.3C135.6 258.6 135.7 258.9 135.7 259.1ZM135.2 259.1C135.2 258.9 135.2 258.6 135.1 258.4C135 258.3 135 258.1 134.8 258C134.7 257.9 134.6 257.8 134.4 257.7C134.2 257.6 134.1 257.6 133.9 257.6C133.7 257.6 133.6 257.6 133.4 257.7C133.2 257.8 133.1 257.9 133 258C132.9 258.1 132.8 258.3 132.7 258.5C132.6 258.7 132.6 258.9 132.6 259.2C132.6 259.4 132.6 259.7 132.7 259.8C132.8 260 132.9 260.1 133 260.3C133.1 260.4 133.2 260.5 133.4 260.6C133.6 260.7 133.7 260.7 133.9 260.7C134.1 260.7 134.2 260.7 134.4 260.6C134.6 260.5 134.7 260.4 134.8 260.3C135 260.1 135 260 135.1 259.8C135.2 259.6 135.2 259.4 135.2 259.1Z" fill="white"/>
<path d="M136.8 258.3C136.8 258.4 136.8 258.5 136.9 258.6C136.9 258.7 137 258.7 137.1 258.8C137.2 258.8 137.3 258.9 137.4 258.9C137.5 258.9 137.6 259 137.7 259C137.8 258.9 137.9 259 138 259C138.1 259 138.3 259.1 138.4 259.2C138.5 259.3 138.6 259.4 138.7 259.5C138.8 259.6 138.8 259.8 138.8 260C138.8 260.2 138.8 260.4 138.7 260.5C138.6 260.6 138.5 260.8 138.4 260.8C138.3 260.9 138.1 261 138 261C137.7 261 137.6 261 137.3 261C137.2 261 137.1 261 137 261C136.9 261 136.8 261 136.7 261C136.6 261 136.5 261 136.5 260.9C136.4 260.9 136.4 260.8 136.3 260.8V260.4C136.4 260.4 136.4 260.5 136.5 260.5C136.6 260.5 136.7 260.6 136.8 260.6C136.9 260.6 137 260.6 137.1 260.6C137.2 260.6 137.3 260.6 137.4 260.6C137.5 260.6 137.6 260.6 137.8 260.6C137.9 260.6 138 260.5 138.1 260.5C138.2 260.4 138.3 260.4 138.3 260.3C138.4 260.2 138.4 260.1 138.4 260C138.4 259.9 138.4 259.8 138.3 259.7C138.3 259.6 138.2 259.6 138.1 259.5C138 259.5 137.9 259.4 137.8 259.4C137.7 259.4 137.6 259.3 137.5 259.3C137.4 259.3 137.2 259.2 137.1 259.2C137 259.2 136.8 259.1 136.7 259C136.6 258.9 136.5 258.8 136.4 258.7C136.3 258.6 136.3 258.4 136.3 258.3C136.3 258.1 136.3 258 136.4 257.8C136.5 257.7 136.6 257.6 136.7 257.5C136.8 257.4 136.9 257.3 137.1 257.3C137.2 257.3 137.4 257.2 137.6 257.2C137.8 257.2 138 257.2 138.1 257.3C138.3 257.3 138.4 257.4 138.6 257.4V257.8C138.4 257.7 138.3 257.7 138.1 257.6C137.9 257.6 137.8 257.5 137.6 257.5C137.5 257.5 137.3 257.5 137.2 257.5C137.1 257.5 137 257.6 136.9 257.6C137 257.9 136.9 257.9 136.9 258C136.8 258.1 136.8 258.2 136.8 258.3Z" fill="white"/>
<path d="M142.2 257.6C142 257.6 141.8 257.6 141.6 257.7C141.4 257.8 141.3 257.9 141.1 258C141 258.1 140.9 258.3 140.8 258.5C140.7 258.7 140.7 258.9 140.7 259.2C140.7 259.5 140.7 259.7 140.8 259.9C140.9 260 141 260.2 141.2 260.3C141.3 260.4 141.5 260.5 141.7 260.6C141.9 260.7 142.1 260.7 142.3 260.7C142.4 260.7 142.4 260.7 142.5 260.7C142.6 260.7 142.6 260.7 142.7 260.7C142.8 260.7 142.8 260.7 142.9 260.7C143 260.7 143 260.7 143.1 260.7V261.1C143 261.1 142.9 261.2 142.7 261.2C142.6 261.2 142.4 261.2 142.3 261.2C142 261.2 141.7 261.2 141.5 261.1C141.3 261 141.1 260.9 140.9 260.7C140.7 260.5 140.6 260.3 140.5 260.1C140.4 259.9 140.4 259.6 140.4 259.3C140.4 259 140.4 258.8 140.5 258.5C140.6 258.3 140.7 258.1 140.9 257.9C141.1 257.7 141.3 257.6 141.5 257.5C141.7 257.4 142 257.4 142.3 257.4C142.4 257.4 142.5 257.4 142.5 257.4C142.6 257.4 142.6 257.4 142.7 257.4C142.8 257.4 142.8 257.4 142.9 257.4C143 257.4 143 257.4 143.1 257.5V257.9C143 257.9 142.9 257.8 142.7 257.8C142.5 257.6 142.4 257.6 142.2 257.6Z" fill="white"/>
<path d="M147 259.1C147 259.4 147 259.6 146.9 259.9C146.8 260.1 146.7 260.3 146.6 260.5C146.5 260.7 146.3 260.8 146.1 260.9C145.8 261 145.6 261 145.3 261C145 261 144.8 261 144.6 260.9C144.4 260.8 144.2 260.7 144.1 260.5C144 260.3 143.8 260.1 143.8 259.9C143.7 259.7 143.7 259.4 143.7 259.1C143.7 258.8 143.7 258.6 143.8 258.3C143.9 258.1 144 257.9 144.1 257.7C144.2 257.5 144.4 257.4 144.6 257.3C144.8 257.2 145 257.2 145.3 257.2C145.6 257.2 145.8 257.2 146 257.3C146.2 257.4 146.4 257.5 146.5 257.7C146.6 257.9 146.8 258.1 146.8 258.3C147 258.6 147 258.9 147 259.1ZM146.6 259.1C146.6 258.9 146.6 258.6 146.5 258.4C146.4 258.2 146.3 258.1 146.2 257.9C146.1 257.8 146 257.7 145.8 257.6C145.6 257.5 145.5 257.5 145.3 257.5C145.1 257.5 145 257.5 144.8 257.6C144.6 257.7 144.5 257.8 144.4 257.9C144.3 258 144.2 258.2 144.1 258.4C144 258.6 144 258.8 144 259.1C144 259.3 144 259.6 144.1 259.7C144.2 259.9 144.3 260 144.4 260.2C144.5 260.3 144.6 260.4 144.8 260.5C145 260.6 145.1 260.6 145.3 260.6C145.5 260.6 145.6 260.6 145.8 260.5C146 260.4 146.1 260.3 146.2 260.2C146.3 260.1 146.4 259.9 146.5 259.7C146.6 259.6 146.6 259.4 146.6 259.1Z" fill="white"/>
<path d="M149.8 261H149.6L148.7 258.8C148.6 258.5 148.4 258.2 148.3 257.8C148.3 258.3 148.3 258.8 148.3 259.2V261H147.9V257.3H148.5L149.4 259.4C149.5 259.6 149.6 259.9 149.7 260.3C149.8 259.9 149.9 259.6 150 259.4L150.9 257.3H151.5V261H151.1V259.2C151.1 258.8 151.1 258.3 151.1 257.8C151 258.2 150.8 258.5 150.7 258.8L149.8 261Z" fill="white"/>
<path d="M154.4 261H154.2L153.3 258.8C153.2 258.5 153 258.2 152.9 257.8C152.9 258.3 152.9 258.8 152.9 259.2V261H152.5V257.3H153.1L154 259.4C154.1 259.6 154.2 259.9 154.3 260.3C154.4 259.9 154.5 259.6 154.6 259.4L155.5 257.3H156.1V261H155.7V259.2C155.7 258.8 155.7 258.3 155.7 257.8C155.6 258.2 155.4 258.5 155.3 258.8L154.4 261Z" fill="white"/>
<path d="M160.3 259.1C160.3 259.4 160.3 259.6 160.2 259.9C160.1 260.1 160 260.3 159.9 260.5C159.8 260.7 159.6 260.8 159.4 260.9C159.1 261 158.9 261 158.6 261C158.3 261 158.1 261 157.9 260.9C157.7 260.8 157.5 260.7 157.4 260.5C157.3 260.3 157.1 260.1 157.1 259.9C157 259.7 157 259.4 157 259.1C157 258.8 157 258.6 157.1 258.3C157.2 258.1 157.3 257.9 157.4 257.7C157.5 257.5 157.7 257.4 157.9 257.3C158.1 257.2 158.3 257.2 158.6 257.2C158.9 257.2 159.1 257.2 159.3 257.3C159.5 257.4 159.7 257.5 159.8 257.7C159.9 257.9 160.1 258.1 160.1 258.3C160.3 258.6 160.3 258.9 160.3 259.1ZM159.9 259.1C159.9 258.9 159.9 258.6 159.8 258.4C159.7 258.2 159.6 258.1 159.5 257.9C159.4 257.8 159.3 257.7 159.1 257.6C158.9 257.5 158.8 257.5 158.6 257.5C158.4 257.5 158.3 257.5 158.1 257.6C158 257.8 157.8 257.9 157.7 258C157.6 258.1 157.5 258.3 157.4 258.5C157.3 258.7 157.3 258.9 157.3 259.2C157.3 259.4 157.3 259.7 157.4 259.8C157.5 260 157.6 260.1 157.7 260.3C157.8 260.4 157.9 260.5 158.1 260.6C158.3 260.7 158.4 260.7 158.6 260.7C158.8 260.7 158.9 260.7 159.1 260.6C159.3 260.5 159.4 260.4 159.5 260.3C159.6 260.2 159.7 260 159.8 259.8C159.8 259.6 159.9 259.4 159.9 259.1Z" fill="white"/>
<path d="M164.1 259.1C164.1 259.3 164.1 259.5 164 259.7C163.9 259.9 163.9 260.1 163.8 260.2C163.7 260.3 163.6 260.5 163.4 260.6C163.2 260.7 163.1 260.8 162.8 260.9C162.7 260.9 162.5 261 162.4 261C162.3 261 162.1 261 161.9 261H161.1V257.3H162C162.2 257.3 162.3 257.3 162.5 257.3C162.6 257.3 162.8 257.3 162.9 257.4C163.1 257.5 163.3 257.5 163.5 257.7C163.7 257.8 163.8 257.9 163.9 258.1C163.9 258.2 164 258.3 164 258.5C164.1 258.7 164.1 258.9 164.1 259.1ZM163.7 259.1C163.7 258.7 163.6 258.5 163.5 258.2C163.3 258 163 257.9 162.8 257.8C162.7 257.8 162.6 257.7 162.4 257.7C162.3 257.7 162.1 257.7 161.9 257.7H161.6V260.6H161.9C162.1 260.6 162.2 260.6 162.4 260.6C162.5 260.6 162.7 260.6 162.8 260.5C163 260.4 163.3 260.2 163.4 260C163.6 259.8 163.7 259.5 163.7 259.1Z" fill="white"/>
<path d="M164.9 261V257.3H165.3V261H164.9Z" fill="white"/>
<path d="M167.7 260.6C167.8 260.6 168 260.6 168.1 260.6C168.2 260.6 168.3 260.5 168.4 260.5C168.5 260.4 168.5 260.4 168.6 260.3C168.6 260.2 168.7 260.1 168.7 260C168.7 259.9 168.7 259.9 168.7 259.8C168.7 259.7 168.7 259.7 168.7 259.6V257.3H169.1V259.6C169.1 259.7 169.1 259.8 169.1 259.9C169.1 260 169.1 260.1 169.1 260.2C169.1 260.3 169 260.5 168.9 260.6C168.8 260.7 168.7 260.8 168.6 260.9C168.5 261 168.4 261.1 168.2 261.1C168.1 261 167.9 261 167.7 261C167.5 261 167.3 261 167.2 260.9C167 260.9 166.9 260.8 166.8 260.7C166.7 260.6 166.6 260.5 166.5 260.4C166.4 260.3 166.4 260.2 166.3 260.1C166.3 260 166.3 259.9 166.2 259.8C166.2 259.7 166.2 259.6 166.2 259.5V257.3H166.6V259.6C166.6 259.7 166.6 259.8 166.6 259.9C166.6 260 166.6 260.1 166.7 260.1C166.8 260.3 166.9 260.4 167 260.5C167.2 260.6 167.4 260.6 167.7 260.6Z" fill="white"/>
<path d="M170.4 258.3C170.4 258.4 170.4 258.5 170.5 258.6C170.5 258.7 170.6 258.7 170.7 258.8C170.8 258.8 170.9 258.9 171 258.9C171.1 258.9 171.2 259 171.3 259C171.4 259 171.6 259.1 171.7 259.1C171.8 259.1 172 259.2 172.1 259.3C172.2 259.4 172.3 259.5 172.4 259.6C172.5 259.7 172.5 259.9 172.5 260.1C172.5 260.3 172.5 260.5 172.4 260.6C172.3 260.7 172.2 260.9 172.1 260.9C172 261 171.8 261.1 171.6 261.1C171.3 261 171.1 261 170.9 261C170.8 261 170.7 261 170.6 261C170.5 261 170.4 261 170.3 261C170.2 261 170.1 261 170.1 260.9C170 260.9 170 260.8 169.9 260.8V260.4C170 260.4 170 260.5 170.1 260.5C170.2 260.5 170.3 260.6 170.4 260.6C170.5 260.6 170.6 260.6 170.7 260.6C170.8 260.6 170.9 260.6 171 260.6C171.1 260.6 171.2 260.6 171.4 260.6C171.5 260.6 171.6 260.5 171.7 260.5C171.8 260.4 171.9 260.4 171.9 260.3C172 260.2 172 260.1 172 260C172 259.9 172 259.8 171.9 259.7C171.9 259.6 171.8 259.6 171.7 259.5C171.6 259.5 171.5 259.4 171.4 259.4C171.3 259.4 171.2 259.3 171.1 259.3C171 259.3 170.8 259.2 170.7 259.2C170.6 259.2 170.4 259.1 170.3 259C170.2 258.9 170.1 258.8 170 258.7C169.9 258.6 169.9 258.4 169.9 258.3C169.9 258.1 169.9 258 170 257.8C170.1 257.7 170.2 257.6 170.3 257.5C170.4 257.4 170.5 257.3 170.7 257.3C170.8 257.3 171 257.2 171.2 257.2C171.4 257.2 171.6 257.2 171.7 257.3C171.9 257.3 172 257.4 172.2 257.4V257.8C172 257.7 171.9 257.7 171.7 257.6C171.5 257.6 171.4 257.5 171.2 257.5C171.1 257.5 170.9 257.5 170.8 257.5C170.7 257.5 170.6 257.6 170.5 257.6C170.4 257.7 170.4 257.7 170.3 257.8C170.4 258.1 170.4 258.2 170.4 258.3Z" fill="white"/>
<path d="M173.6 261L175.1 257.3H175.5L177 261H176.5L176.1 259.9H174.6L174.1 261H173.6ZM175.3 257.9C175.1 258.4 175 258.8 174.8 259.1L174.7 259.4H175.9L175.8 259.1C175.6 258.7 175.5 258.3 175.3 257.9Z" fill="white"/>
<path d="M179.9 259.5H179V259.1H180.3V260.9C180.3 260.9 180.2 260.9 180.1 261C180 261 179.9 261 179.8 261.1C179.7 261.1 179.6 261.1 179.5 261.1C179.4 261.1 179.3 261.1 179.2 261.1C178.9 261.1 178.6 261.1 178.4 261C178.2 260.9 178 260.8 177.8 260.6C177.6 260.4 177.5 260.3 177.4 260C177.3 259.8 177.3 259.5 177.3 259.3C177.3 259 177.3 258.7 177.4 258.5C177.5 258.3 177.6 258 177.8 257.9C178 257.7 178.2 257.6 178.4 257.5C178.6 257.4 178.9 257.4 179.2 257.4C179.3 257.4 179.4 257.4 179.4 257.4C179.5 257.4 179.6 257.4 179.6 257.4C179.7 257.4 179.7 257.4 179.8 257.4C179.9 257.4 179.9 257.4 180 257.5V257.9C179.9 257.9 179.8 257.8 179.6 257.8C179.5 257.8 179.3 257.8 179.2 257.8C179 257.8 178.8 257.8 178.6 257.9C178.4 258 178.2 258.1 178.1 258.2C178 258.3 177.8 258.5 177.8 258.7C177.7 258.9 177.7 259.1 177.7 259.4C177.7 259.7 177.7 259.9 177.8 260.1C178 260 178.1 260.2 178.2 260.3C178.3 260.4 178.5 260.5 178.7 260.6C178.9 260.7 179.1 260.7 179.3 260.7C179.4 260.7 179.5 260.7 179.6 260.7C179.7 260.7 179.8 260.7 179.9 260.7V259.5Z" fill="white"/>
<path d="M181.2 261V257.3H181.6V261H181.2Z" fill="white"/>
<path d="M184.5 261H184.3L183.4 258.8C183.3 258.5 183.1 258.2 183 257.8C183 258.3 183 258.8 183 259.2V261H182.6V257.3H183.2L184.1 259.4C184.2 259.6 184.3 259.9 184.4 260.3C184.5 259.9 184.6 259.6 184.7 259.4L185.6 257.3H186.2V261H185.8V259.2C185.8 258.8 185.8 258.3 185.8 257.8C185.7 258.2 185.5 258.5 185.4 258.8L184.5 261Z" fill="white"/>
<path d="M188.6 260.6C188.7 260.6 188.9 260.6 189 260.6C189.1 260.6 189.2 260.5 189.3 260.5C189.4 260.4 189.4 260.4 189.5 260.3C189.5 260.2 189.6 260.1 189.6 260C189.6 259.9 189.6 259.9 189.6 259.8C189.6 259.7 189.6 259.7 189.6 259.6V257.3H190V259.6C190 259.7 190 259.8 190 259.9C190 260 190 260.1 190 260.2C190 260.3 189.9 260.5 189.8 260.6C189.7 260.7 189.6 260.8 189.5 260.9C189.4 261 189.3 261.1 189.1 261.1C189 261 188.8 261 188.6 261C188.4 261 188.2 261 188.1 260.9C187.9 260.9 187.8 260.8 187.7 260.7C187.6 260.6 187.5 260.5 187.4 260.4C187.3 260.3 187.3 260.2 187.2 260.1C187.2 260 187.2 259.9 187.1 259.8C187.1 259.7 187.1 259.6 187.1 259.5V257.3H187.5V259.6C187.5 259.7 187.5 259.8 187.5 259.9C187.5 260 187.5 260.1 187.6 260.1C187.7 260.3 187.8 260.4 187.9 260.5C188.2 260.6 188.4 260.6 188.6 260.6Z" fill="white"/>
<path d="M191.3 258.3C191.3 258.4 191.3 258.5 191.4 258.6C191.4 258.7 191.5 258.7 191.6 258.8C191.7 258.8 191.8 258.9 191.9 258.9C192 258.9 192.1 259 192.2 259C192.3 259 192.5 259.1 192.6 259.1C192.7 259.1 192.9 259.2 193 259.3C193.1 259.4 193.2 259.5 193.3 259.6C193.4 259.7 193.4 259.9 193.4 260.1C193.4 260.3 193.4 260.5 193.3 260.6C193.2 260.7 193.1 260.9 193 260.9C192.9 261 192.7 261.1 192.5 261.1C192.2 261 192 261 191.8 261C191.7 261 191.6 261 191.5 261C191.4 261 191.3 261 191.2 261C191.1 261 191 261 191 260.9C190.9 260.9 190.9 260.8 190.8 260.8V260.4C190.9 260.4 190.9 260.5 191 260.5C191.1 260.5 191.2 260.6 191.3 260.6C191.4 260.6 191.5 260.6 191.6 260.6C191.7 260.6 191.8 260.6 191.9 260.6C192 260.6 192.1 260.6 192.3 260.6C192.4 260.6 192.5 260.5 192.6 260.5C192.7 260.4 192.8 260.4 192.8 260.3C192.9 260.2 192.9 260.1 192.9 260C192.9 259.9 192.9 259.8 192.8 259.7C192.8 259.6 192.7 259.6 192.6 259.5C192.5 259.5 192.4 259.4 192.3 259.4C192.2 259.4 192.1 259.3 192 259.3C191.9 259.3 191.7 259.2 191.6 259.2C191.5 259.2 191.3 259.1 191.2 259C191.1 258.9 191 258.8 190.9 258.7C190.8 258.6 190.8 258.4 190.8 258.3C190.8 258.1 190.8 258 190.9 257.8C191 257.7 191.1 257.6 191.2 257.5C191.3 257.4 191.4 257.3 191.6 257.3C191.7 257.3 191.9 257.2 192.1 257.2C192.3 257.2 192.5 257.2 192.6 257.3C192.8 257.3 192.9 257.4 193.1 257.4V257.8C192.9 257.7 192.8 257.7 192.6 257.6C192.4 257.6 192.3 257.5 192.1 257.5C192 257.5 191.8 257.5 191.7 257.5C191.6 257.5 191.5 257.6 191.4 257.6C191.3 257.7 191.3 257.7 191.2 257.8C191.3 258.1 191.3 258.2 191.3 258.3Z" fill="white"/>
<path d="M194.1 261V260.4H194.6V261H194.1Z" fill="white"/>
<path d="M197.6 260.4V260.8L195.4 259.7V259.3L197.6 258.2V258.6L195.8 259.5L197.6 260.4Z" fill="white"/>
<path d="M198 261.6L199 257.3H199.4L198.4 261.6H198Z" fill="white"/>
<path d="M199.9 261V257H200.3V261H199.9Z" fill="white"/>
<path d="M201.2 257.8V257.3H201.6V257.8H201.2ZM201.2 261V258.4H201.6V261H201.2Z" fill="white"/>
<path d="M204.2 259.5L202.4 258.6V258.2L204.6 259.3V259.7L202.4 260.8V260.4L204.2 259.5Z" fill="white"/>
<path d="M122.2 267.1V267.5L120 266.4V266.1L122.2 265V265.4L120.5 266.2L122.2 267.1Z" fill="white"/>
<path d="M123 267.7V263.7H123.4V267.7H123Z" fill="white"/>
<path d="M124.3 264.5V264H124.7V264.5H124.3ZM124.3 267.7V265.1H124.7V267.7H124.3Z" fill="white"/>
<path d="M127.3 266.2L125.5 265.3V264.9L127.7 266V266.4L125.5 267.5V267.1L127.3 266.2Z" fill="white"/>
<path d="M128.9 267.3H130.8V267.7H128.5V264H130.7V264.4H128.9V265.6H130.5V266H128.9V267.3Z" fill="white"/>
<path d="M132.9 267.7H132.5V264.4H131.3V264H134.2V264.4H133V267.7H132.9Z" fill="white"/>
<path d="M134.7 267.7V264H135.1V267.7H134.7Z" fill="white"/>
<path d="M135.7 267.7L137.2 264H137.6L139.1 267.7H138.6L138.2 266.6H136.7L136.3 267.7H135.7ZM137.4 264.6C137.2 265 137 265.5 136.9 265.8L136.8 266.1H138L137.9 265.8C137.7 265.4 137.5 265 137.4 264.6Z" fill="white"/>
<path d="M141.5 267.7H141.3L140.4 265.5C140.3 265.2 140.1 264.9 140 264.5C140 265 140 265.5 140 265.9V267.7H139.6V264H140.2L141.1 266.1C141.2 266.3 141.3 266.6 141.4 267C141.5 266.6 141.6 266.3 141.7 266.1L142.6 264H143.2V267.7H142.8V265.9C142.8 265.5 142.8 265 142.8 264.5C142.7 264.9 142.5 265.2 142.4 265.5L141.5 267.7Z" fill="white"/>
<path d="M145.3 267.7V264H145.7V267.7H145.3Z" fill="white"/>
<path d="M148.6 266.1C148.8 266.4 149 266.8 149.3 267.1C149.3 266.7 149.3 266.4 149.3 266V264H149.7V267.7H149.3L147.9 265.7C147.7 265.3 147.4 265 147.2 264.7C147.2 265 147.2 265.4 147.2 265.9V267.8H146.8V264H147.2L148.6 266.1Z" fill="white"/>
<path d="M152.4 264.3C152.2 264.3 152 264.3 151.8 264.4C151.6 264.5 151.5 264.6 151.3 264.7C151.2 264.9 151.1 265 151 265.2C150.9 265.4 150.9 265.6 150.9 265.9C150.9 266.2 150.9 266.4 151 266.6C151.1 266.8 151.2 266.9 151.3 267.1C151.4 267.2 151.6 267.3 151.8 267.4C152 267.5 152.2 267.5 152.4 267.5C152.5 267.5 152.5 267.5 152.6 267.5C152.7 267.5 152.7 267.5 152.8 267.5C152.9 267.5 152.9 267.5 153 267.5C153.1 267.5 153.1 267.5 153.2 267.5V267.9C153.1 267.9 153 268 152.8 268C152.7 268 152.5 268 152.4 268C152.1 268 151.8 268 151.6 267.9C151.4 267.8 151.2 267.7 151 267.5C150.8 267.3 150.7 267.1 150.6 266.9C150.5 266.7 150.5 266.4 150.5 266.1C150.5 265.8 150.5 265.6 150.6 265.3C150.7 265.1 150.8 264.9 151 264.7C151.2 264.5 151.4 264.4 151.6 264.3C151.8 264 152.1 264 152.3 264C152.4 264 152.5 264 152.5 264C152.6 264 152.6 264 152.7 264C152.8 264 152.8 264 152.9 264C153 264 153 264 153.1 264.1V264.5C153 264.5 152.9 264.4 152.7 264.4C152.6 264.4 152.5 264.3 152.4 264.3Z" fill="white"/>
<path d="M154.3 265.6H156.2V264H156.6V267.7H156.2V266H154.3V267.7H153.9V264H154.3V265.6Z" fill="white"/>
<path d="M160.9 265.8C160.9 266.1 160.9 266.3 160.8 266.6C160.7 266.8 160.6 267 160.5 267.2C160.4 267.4 160.2 267.5 160 267.6C159.8 267.7 159.6 267.7 159.3 267.7C159 267.7 158.8 267.7 158.6 267.6C158.4 267.5 158.2 267.4 158.1 267.2C158 267 157.8 266.8 157.8 266.6C157.7 266.4 157.7 266.1 157.7 265.8C157.7 265.5 157.7 265.3 157.8 265C157.9 264.8 158 264.6 158.1 264.4C158.2 264.2 158.4 264.1 158.6 264C158.7 264 158.9 264 159.2 264C159.5 264 159.7 264 159.9 264.1C160.1 264.2 160.3 264.3 160.4 264.5C160.5 264.7 160.7 264.9 160.7 265.1C160.9 265.3 160.9 265.6 160.9 265.8ZM160.5 265.8C160.5 265.6 160.5 265.3 160.4 265.1C160.3 264.9 160.2 264.8 160.1 264.6C160 264.5 159.9 264.4 159.7 264.3C159.5 264.2 159.4 264.2 159.2 264.2C159 264.2 158.9 264.2 158.7 264.3C158.5 264.4 158.4 264.5 158.3 264.6C158.2 264.9 158.1 265 158 265.2C157.9 265.4 157.9 265.6 157.9 265.9C157.9 266.1 157.9 266.4 158 266.5C158.1 266.7 158.2 266.8 158.3 267C158.4 267.1 158.5 267.2 158.7 267.3C158.9 267.4 159 267.4 159.2 267.4C159.4 267.4 159.5 267.4 159.7 267.3C159.9 267.2 160 267.1 160.1 267C160.2 266.9 160.3 266.7 160.4 266.5C160.4 266.3 160.5 266.1 160.5 265.8Z" fill="white"/>
<path d="M161.3 267.7L162.8 264H163.2L164.7 267.7H164.2L163.8 266.6H162.3L161.9 267.7H161.3ZM163 264.6C162.8 265.1 162.7 265.5 162.5 265.8L162.4 266.1H163.6L163.5 265.8C163.3 265.4 163.1 265 163 264.6Z" fill="white"/>
<path d="M166.2 267.7H165.8V264.4H164.6V264H167.5V264.4H166.3V267.7H166.2Z" fill="white"/>
<path d="M169.4 267.3C169.5 267.3 169.7 267.3 169.8 267.3C169.9 267.3 170 267.2 170.1 267.2C170.2 267.1 170.2 267.1 170.3 267C170.3 266.9 170.4 266.8 170.4 266.7C170.4 266.6 170.4 266.6 170.4 266.5C170.4 266.4 170.4 266.4 170.4 266.3V264H170.8V266.3C170.8 266.4 170.8 266.5 170.8 266.6C170.8 266.7 170.8 266.8 170.8 266.9C170.8 267 170.7 267.2 170.6 267.3C170.5 267.4 170.4 267.5 170.3 267.6C170.2 267.7 170.1 267.8 169.9 267.8C169.7 267.8 169.6 267.9 169.4 267.9C169.2 267.9 169 267.9 168.9 267.8C168.7 267.8 168.6 267.7 168.5 267.6C168.4 267.5 168.3 267.4 168.2 267.3C168.1 267.2 168.1 267.1 168 267C168 266.9 168 266.8 167.9 266.7C167.9 266.6 167.9 266.5 167.9 266.4V264H168.3V266.3C168.3 266.4 168.3 266.5 168.3 266.6C168.3 266.7 168.3 266.8 168.4 266.8C168.5 267 168.6 267.1 168.7 267.2C169 267.3 169.2 267.3 169.4 267.3Z" fill="white"/>
<path d="M173.7 267.7H173.5L172.6 265.5C172.5 265.2 172.3 264.9 172.2 264.5C172.2 265 172.2 265.5 172.2 265.9V267.7H171.8V264H172.4L173.3 266.1C173.4 266.3 173.5 266.6 173.6 267C173.7 266.6 173.8 266.3 173.9 266.1L174.8 264H175.4V267.7H175V265.9C175 265.5 175 265 175 264.5C174.9 264.9 174.7 265.2 174.6 265.5L173.7 267.7Z" fill="white"/>
<path d="M176.4 267.1H177L176.5 268.8H176L176.4 267.1Z" fill="white"/>
<path d="M180.2 267.3C180.3 267.3 180.5 267.3 180.6 267.3C180.7 267.3 180.8 267.2 180.9 267.2C180.9 267.1 181 267 181 267C181 266.9 181.1 266.8 181.1 266.7C181.1 266.6 181.1 266.6 181.1 266.5C181.1 266.4 181.1 266.4 181.1 266.3V264H181.5V266.3C181.5 266.4 181.5 266.5 181.5 266.6C181.5 266.7 181.5 266.8 181.5 266.9C181.5 267 181.4 267.2 181.3 267.3C181.2 267.4 181.1 267.5 181 267.6C180.9 267.7 180.8 267.8 180.6 267.8C180.4 267.8 180.3 267.9 180.1 267.9C179.9 267.9 179.7 267.9 179.6 267.8C179.4 267.8 179.3 267.7 179.2 267.6C179.1 267.5 179 267.4 178.9 267.3C178.8 267.2 178.8 267.1 178.7 267C178.7 266.9 178.7 266.8 178.6 266.7C178.6 266.6 178.6 266.5 178.6 266.4V264H179V266.3C179 266.4 179 266.5 179 266.6C179 266.7 179 266.8 179.1 266.8C179.2 267 179.3 267.1 179.4 267.2C179.8 267.3 180 267.3 180.2 267.3Z" fill="white"/>
<path d="M183.9 267.7H183.5V264.4H182.3V264H185.2V264.4H184V267.7H183.9Z" fill="white"/>
<path d="M185.4 267.1H185.9L185.4 268.8H184.9L185.4 267.1Z" fill="white"/>
<path d="M188.2 265C188.2 265.1 188.2 265.2 188.3 265.3C188.3 265.4 188.4 265.4 188.5 265.5C188.6 265.5 188.7 265.6 188.8 265.6C188.9 265.6 189 265.7 189.1 265.7C189.2 265.7 189.4 265.8 189.5 265.8C189.6 265.8 189.8 265.9 189.9 266C189.9 266 190 266.1 190 266.2C190.1 266.3 190.1 266.5 190.1 266.7C190.1 266.9 190.1 267.1 190 267.2C189.9 267.3 189.8 267.5 189.7 267.5C189.6 267.6 189.4 267.7 189.2 267.7C189 267.7 188.8 267.8 188.6 267.8C188.5 267.8 188.4 267.8 188.3 267.8C188.2 267.8 188.1 267.8 188 267.8C187.9 267.8 187.8 267.8 187.8 267.7C187.7 267.7 187.7 267.6 187.6 267.6V267.2C187.7 267.2 187.7 267.3 187.8 267.3C187.9 267.3 188 267.4 188.1 267.4C188.2 267.4 188.3 267.4 188.4 267.4C188.5 267.4 188.6 267.4 188.7 267.4C188.8 267.4 188.9 267.4 189.1 267.4C189.2 267.4 189.3 267.3 189.4 267.3C189.5 267.2 189.6 267.2 189.6 267.1C189.7 267 189.7 266.9 189.7 266.8C189.7 266.7 189.7 266.6 189.6 266.5C189.6 266.4 189.5 266.4 189.4 266.3C189.3 266.3 189.2 266.2 189.1 266.2C189 266.1 188.9 266 188.8 266C188.7 266 188.5 265.9 188.4 265.9C188.3 265.9 188.1 265.8 188 265.7C187.9 265.6 187.8 265.5 187.7 265.4C187.6 265.3 187.6 265.1 187.6 265C187.6 264.8 187.6 264.7 187.7 264.5C187.8 264.4 187.9 264.3 188 264.2C188.1 264.1 188.2 264 188.4 264C188.6 264 188.8 264 189 264C189.2 264 189.4 264 189.5 264.1C189.7 264.1 189.8 264.2 190 264.2V264.6C189.8 264.5 189.7 264.5 189.5 264.4C189.3 264.4 189.2 264.3 189 264.3C188.9 264.3 188.7 264.3 188.6 264.3C188.5 264.3 188.4 264.4 188.3 264.4C188.2 264.5 188.2 264.5 188.1 264.6C188.2 264.8 188.2 264.9 188.2 265Z" fill="white"/>
<path d="M190.9 267.7V264H191.3V267.7H190.9Z" fill="white"/>
<path d="M193.4 267.7V264H193.8V267.7H193.4Z" fill="white"/>
<path d="M196.2 267.3C196.3 267.3 196.5 267.3 196.6 267.3C196.7 267.3 196.8 267.2 196.9 267.2C196.9 267.1 197 267 197 267C197 266.9 197.1 266.8 197.1 266.7C197.1 266.6 197.1 266.6 197.1 266.5C197.1 266.4 197.1 266.4 197.1 266.3V264H197.5V266.3C197.5 266.4 197.5 266.5 197.5 266.6C197.5 266.7 197.5 266.8 197.5 266.9C197.5 267 197.4 267.2 197.3 267.3C197.2 267.4 197.1 267.5 197 267.6C196.9 267.7 196.8 267.8 196.6 267.8C196.4 267.8 196.3 267.9 196.1 267.9C195.9 267.9 195.7 267.9 195.6 267.8C195.4 267.8 195.3 267.7 195.2 267.6C195.1 267.5 195 267.4 194.9 267.3C194.8 267.2 194.8 267.1 194.7 267C194.7 266.9 194.7 266.8 194.6 266.7C194.6 266.6 194.6 266.5 194.6 266.4V264H195V266.3C195 266.4 195 266.5 195 266.6C195 266.7 195 266.8 195.1 266.8C195.2 267 195.3 267.1 195.4 267.2C195.7 267.3 195.9 267.3 196.2 267.3Z" fill="white"/>
<path d="M198.9 265C198.9 265.1 198.9 265.2 199 265.3C199 265.4 199.1 265.4 199.2 265.5C199.3 265.5 199.4 265.6 199.5 265.6C199.6 265.6 199.7 265.7 199.8 265.7C199.9 265.7 200.1 265.8 200.2 265.8C200.3 265.8 200.5 265.9 200.6 266C200.7 266.1 200.8 266.2 200.9 266.3C201 266.4 201 266.6 201 266.8C201 267 201 267.2 200.9 267.3C200.8 267.4 200.7 267.6 200.6 267.6C200.5 267.7 200.3 267.8 200.1 267.8C199.9 267.8 199.7 267.9 199.5 267.9C199.4 267.9 199.3 267.9 199.2 267.9C199.1 267.9 199 267.9 198.9 267.9C198.8 267.9 198.7 267.9 198.7 267.8C198.6 267.8 198.6 267.7 198.5 267.7V267.3C198.6 267.3 198.6 267.4 198.7 267.4C198.8 267.4 198.9 267.5 199 267.5C199.1 267.5 199.2 267.5 199.3 267.5C199.4 267.5 199.5 267.5 199.6 267.5C199.7 267.5 199.8 267.5 200 267.5C200.1 267.5 200.2 267.4 200.3 267.4C200.4 267.3 200.5 267.3 200.5 267.2C200.6 267.1 200.6 267 200.6 266.9C200.6 266.8 200.6 266.7 200.5 266.6C200.5 266.5 200.4 266.5 200.3 266.4C200.2 266.4 200.1 266.3 200 266.3C199.9 266.3 199.8 266.2 199.7 266.2C199.6 266.2 199.4 266.1 199.3 266.1C199.2 266.1 199 266 198.9 265.9C198.8 265.8 198.7 265.7 198.6 265.6C198.5 265.5 198.5 265.3 198.5 265.2C198.5 265 198.5 264.9 198.6 264.7C198.7 264.6 198.8 264.5 198.9 264.4C198.9 264.1 199 264.1 199.2 264C199.3 264 199.5 264 199.7 264C199.9 264 200.1 264 200.2 264.1C200.4 264.1 200.5 264.2 200.7 264.2V264.6C200.5 264.5 200.4 264.5 200.2 264.4C200 264.4 199.9 264.3 199.7 264.3C199.6 264.3 199.4 264.3 199.3 264.3C199.2 264.3 199.1 264.4 199 264.4C199 264.6 199 264.6 198.9 264.7C198.9 264.8 198.9 264.9 198.9 265Z" fill="white"/>
<path d="M202.9 267.7H202.5V264.4H201.3V264H204.2V264.4H203V267.7H202.9Z" fill="white"/>
<path d="M205.2 267.3H207V267.7H204.7V264H206.9V264.4H205.1V265.6H206.7V266H205.1V267.3H205.2Z" fill="white"/>
<path d="M211.9 265.8C211.9 266 211.9 266.2 211.8 266.4C211.7 266.6 211.7 266.8 211.6 266.9C211.5 267 211.4 267.2 211.2 267.3C211 267.4 210.9 267.5 210.6 267.6C210.5 267.6 210.3 267.7 210.2 267.7C210.1 267.7 209.9 267.7 209.7 267.7H208.9V264H209.7C209.9 264 210 264 210.2 264C210.3 264 210.5 264 210.6 264.1C210.8 264.2 211 264.2 211.2 264.4C211.4 264.5 211.5 264.6 211.6 264.8C211.7 264.9 211.8 265.1 211.8 265.3C211.9 265.4 211.9 265.6 211.9 265.8ZM211.5 265.8C211.5 265.4 211.4 265.2 211.3 264.9C211.1 264.7 210.9 264.5 210.6 264.4C210.5 264.4 210.4 264.3 210.2 264.3C210.1 264.3 209.9 264.3 209.7 264.3H209.4V267.2H209.7C209.9 267.2 210 267.2 210.2 267.2C210.3 267.2 210.5 267.2 210.6 267.1C210.9 267 211.1 266.9 211.3 266.6C211.4 266.5 211.5 266.2 211.5 265.8Z" fill="white"/>
<path d="M213.1 267.3H215V267.7H212.7V264H214.9V264.4H213.1V265.6H214.7V266H213.1V267.3Z" fill="white"/>
<path d="M216.2 267.7H215.8V264H216.8C217 264 217.1 264 217.2 264C217.3 264 217.4 264 217.6 264.1C217.8 264.2 218 264.3 218.1 264.5C218.2 264.7 218.3 264.8 218.3 265.1C218.3 265.3 218.3 265.5 218.2 265.6C218.1 265.7 218 265.9 217.9 266C217.8 266.1 217.6 266.2 217.4 266.2C217.2 266.2 217 266.3 216.7 266.3C216.6 266.3 216.5 266.3 216.3 266.3V267.7H216.2ZM216.2 265.8C216.3 265.8 216.3 265.8 216.4 265.8C216.5 265.8 216.5 265.8 216.6 265.8C216.8 265.8 217 265.8 217.1 265.7C217.2 265.7 217.4 265.6 217.5 265.6C217.6 265.5 217.7 265.5 217.7 265.4C217.7 265.3 217.8 265.2 217.8 265.1C217.8 265 217.8 264.8 217.7 264.8C217.6 264.7 217.5 264.6 217.4 264.6C217.3 264.6 217.2 264.6 217.1 264.5C217 264.5 216.9 264.5 216.7 264.5H216.2V265.8Z" fill="white"/>
<path d="M222.2 265.8C222.2 266.1 222.2 266.3 222.1 266.6C222 266.8 221.9 267 221.8 267.2C221.7 267.4 221.5 267.5 221.3 267.6C221.1 267.7 220.9 267.7 220.6 267.7C220.3 267.7 220.1 267.7 219.9 267.6C219.7 267.5 219.5 267.4 219.4 267.2C219.1 267 219 266.8 218.9 266.6C218.8 266.4 218.8 266.1 218.8 265.8C218.8 265.5 218.8 265.3 218.9 265C219 264.8 219.1 264.6 219.2 264.4C219.3 264.2 219.5 264.1 219.7 264C220 264 220.3 264 220.5 264C220.8 264 221 264 221.2 264.1C221.4 264.2 221.6 264.3 221.7 264.5C221.8 264.7 222 264.9 222 265.1C222.2 265.3 222.2 265.6 222.2 265.8ZM221.8 265.8C221.8 265.6 221.8 265.3 221.7 265.1C221.6 264.9 221.5 264.8 221.4 264.6C221.3 264.5 221.2 264.4 221 264.3C220.8 264.2 220.7 264.2 220.5 264.2C220.3 264.2 220.2 264.2 220 264.3C219.8 264.4 219.7 264.5 219.6 264.6C219.5 264.7 219.4 264.9 219.3 265.1C219.2 265.3 219.2 265.5 219.2 265.8C219.2 266 219.2 266.3 219.3 266.4C219.4 266.6 219.5 266.7 219.6 266.9C219.7 267 219.8 267.1 220 267.2C220.2 267.3 220.3 267.3 220.5 267.3C220.7 267.3 220.8 267.3 221 267.2C221.2 267.1 221.3 267 221.4 266.9C221.5 266.8 221.6 266.6 221.7 266.4C221.8 266.3 221.8 266.1 221.8 265.8Z" fill="white"/>
<path d="M223.4 265C223.4 265.1 223.4 265.2 223.5 265.3C223.5 265.4 223.6 265.4 223.7 265.5C223.8 265.5 223.9 265.6 224 265.6C224.1 265.6 224.2 265.7 224.3 265.7C224.4 265.7 224.6 265.8 224.7 265.8C224.8 265.8 225 265.9 225.1 266C225.2 266.1 225.3 266.2 225.4 266.3C225.5 266.4 225.5 266.6 225.5 266.8C225.5 267 225.5 267.2 225.4 267.3C225.3 267.4 225.2 267.6 225.1 267.6C225 267.7 224.8 267.8 224.6 267.8C224.4 267.8 224.2 267.9 224 267.9C223.9 267.9 223.8 267.9 223.7 267.9C223.6 267.9 223.5 267.9 223.4 267.9C223.3 267.9 223.2 267.9 223.2 267.8C223.1 267.8 223.1 267.7 223 267.7V267.3C223.1 267.3 223.1 267.4 223.2 267.4C223.3 267.4 223.4 267.5 223.5 267.5C223.6 267.5 223.7 267.5 223.8 267.5C223.9 267.5 224 267.5 224.1 267.5C224.2 267.5 224.3 267.5 224.5 267.5C224.6 267.5 224.7 267.4 224.8 267.4C224.9 267.3 225 267.3 225 267.2C225.1 267.1 225.1 267 225.1 266.9C225.1 266.8 225.1 266.7 225 266.6C225 266.5 224.9 266.5 224.8 266.4C224.7 266.4 224.6 266.3 224.5 266.3C224.4 266.3 224.3 266.2 224.2 266.2C224.1 266.2 223.9 266.1 223.8 266.1C223.7 266.1 223.5 266 223.4 265.9C223.3 265.8 223.2 265.7 223.1 265.6C223 265.5 223 265.3 223 265.2C223 265 223 264.9 223.1 264.7C223.2 264.6 223.3 264.5 223.4 264.4C223.5 264.3 223.6 264.2 223.8 264.2C223.9 264.2 224.1 264.1 224.3 264.1C224.5 264.1 224.7 264.1 224.8 264.2C225 264.2 225.1 264.3 225.3 264.3V264.7C225.1 264.6 225 264.6 224.8 264.5C224.6 264.5 224.5 264.4 224.3 264.4C224.2 264.4 224 264.4 223.9 264.4C223.8 264.4 223.7 264.5 223.6 264.5C223.5 264.6 223.5 264.6 223.4 264.7C223.4 264.8 223.4 264.9 223.4 265Z" fill="white"/>
<path d="M226.1 267.7V264H226.5V267.7H226.1Z" fill="white"/>
<path d="M122.2 273.8V274.2L120 273.1V272.8L122.2 271.7V272.1L120.4 273L122.2 273.8Z" fill="white"/>
<path d="M123 274.4V270.4H123.4V274.4H123Z" fill="white"/>
<path d="M124.3 271.2V270.7H124.7V271.2H124.3ZM124.3 274.4V271.8H124.7V274.4H124.3Z" fill="white"/>
<path d="M127.3 272.9L125.5 272V271.6L127.7 272.7V273.1L125.5 274.2V273.8L127.3 272.9Z" fill="white"/>
<path d="M128.5 274.4V270.7H128.9V274.4H128.5Z" fill="white"/>
<path d="M130.3 274.4H129.9V270.7H130.9C131.1 270.7 131.2 270.7 131.3 270.7C131.4 270.7 131.5 270.7 131.7 270.8C131.9 270.9 132.1 271 132.2 271.2C132.3 271.4 132.4 271.5 132.4 271.8C132.4 272 132.4 272.1 132.3 272.3C132.2 272.4 132.1 272.6 132 272.7C131.9 272.8 131.7 272.9 131.5 272.9C131.3 272.9 131.1 273 130.8 273C130.7 273 130.6 273 130.4 273V274.4H130.3ZM130.3 272.5C130.4 272.5 130.4 272.5 130.5 272.5C130.6 272.5 130.6 272.5 130.7 272.5C130.9 272.5 131.1 272.5 131.2 272.4C131.3 272.4 131.5 272.3 131.6 272.3C131.7 272.2 131.8 272.2 131.8 272.1C131.8 272 131.9 271.9 131.9 271.8C131.9 271.7 131.9 271.5 131.8 271.5C131.7 271.4 131.6 271.3 131.5 271.3C131.4 271.3 131.3 271.3 131.2 271.2C131.1 271.2 131 271.2 130.8 271.2H130.3V272.5Z" fill="white"/>
<path d="M133.4 271.7C133.4 271.8 133.4 271.9 133.5 272C133.5 272.1 133.6 272.1 133.7 272.2C133.8 272.2 133.9 272.3 134 272.3C134.1 272.3 134.2 272.4 134.3 272.4C134.4 272.4 134.6 272.5 134.7 272.5C134.8 272.5 135 272.6 135.1 272.7C135.2 272.8 135.3 272.9 135.4 273C135.5 273.1 135.5 273.3 135.5 273.5C135.5 273.7 135.5 273.9 135.4 274C135.3 274.1 135.2 274.3 135.1 274.3C135 274.4 134.8 274.5 134.7 274.5C134.5 274.5 134.3 274.6 134.1 274.6C134 274.6 133.9 274.6 133.8 274.6C133.7 274.6 133.6 274.6 133.5 274.6C133.4 274.6 133.3 274.6 133.3 274.5C133.2 274.5 133.2 274.4 133.1 274.4V274C133.2 274 133.2 274.1 133.3 274.1C133.4 274.1 133.5 274.2 133.6 274.2C133.7 274.2 133.8 274.2 133.9 274.2C134 274.2 134.1 274.2 134.2 274.2C134.3 274.2 134.4 274.2 134.6 274.2C134.7 274.2 134.8 274.1 134.9 274.1C135 274 135.1 274 135.1 273.9C135.2 273.8 135.2 273.7 135.2 273.6C135.2 273.5 135.2 273.4 135.1 273.3C135.1 273.2 135 273.2 134.9 273.1C134.8 273.1 134.7 273 134.6 273C134.5 273 134.4 272.9 134.3 272.9C134.2 272.9 134 272.8 133.9 272.8C133.8 272.8 133.6 272.7 133.5 272.6C133.4 272.5 133.3 272.4 133.2 272.3C133.1 272.2 133.1 272 133.1 271.9C133.1 271.7 133.1 271.6 133.2 271.4C133.3 271.3 133.4 271.2 133.5 271.1C133.6 271 133.7 270.9 133.9 270.9C134 270.9 134.2 270.8 134.4 270.8C134.6 270.8 134.8 270.8 134.9 270.9C135.1 270.9 135.2 271 135.4 271V271.4C135.2 271.3 135.1 271.3 134.9 271.2C134.7 271.2 134.6 271.1 134.4 271.1C134.3 271.1 134.1 271.1 134 271.1C133.9 271.1 133.8 271.2 133.7 271.2C133.6 271.3 133.6 271.3 133.5 271.4C133.4 271.5 133.4 271.6 133.4 271.7Z" fill="white"/>
<path d="M136.6 274H138.5V274.4H136.2V270.7H138.4V271.1H136.6V272.3H138.2V272.7H136.6V274Z" fill="white"/>
<path d="M140.8 274H142.7V274.4H140.4V270.7H142.6V271.1H140.8V272.3H142.4V272.7H140.8V274Z" fill="white"/>
<path d="M143.9 274.4H143.5V270.7H144.5C144.7 270.7 144.8 270.7 144.9 270.7C145 270.7 145.1 270.7 145.3 270.8C145.5 270.9 145.7 271 145.8 271.2C145.9 271.4 146 271.5 146 271.8C146 272 146 272.1 145.9 272.3C145.8 272.4 145.7 272.6 145.6 272.7C145.5 272.8 145.3 272.9 145.1 272.9C144.9 272.9 144.7 273 144.4 273C144.3 273 144.2 273 144 273V274.4H143.9ZM143.9 272.5C144 272.5 144 272.5 144.1 272.5C144.2 272.5 144.2 272.5 144.3 272.5C144.5 272.5 144.7 272.5 144.8 272.4C144.9 272.4 145.1 272.3 145.2 272.3C145.3 272.2 145.4 272.2 145.4 272.1C145.4 272 145.5 271.9 145.5 271.8C145.5 271.7 145.5 271.5 145.4 271.5C145.3 271.4 145.2 271.3 145.1 271.3C145 271.3 144.9 271.3 144.8 271.2C144.7 271.2 144.6 271.2 144.4 271.2H143.9V272.5Z" fill="white"/>
<path d="M146.6 274.4V270.7H147V274.4H146.6Z" fill="white"/>
<path d="M149.8 271.1C149.6 271.1 149.4 271.1 149.2 271.2C149 271.3 148.9 271.4 148.7 271.5C148.6 271.6 148.5 271.8 148.4 272C148.3 272.2 148.3 272.4 148.3 272.7C148.3 273 148.3 273.2 148.4 273.4C148.5 273.6 148.6 273.7 148.7 273.9C148.8 274 149 274.1 149.2 274.2C149.4 274.3 149.6 274.3 149.8 274.3C149.9 274.3 149.9 274.3 150 274.3C150.1 274.3 150.1 274.3 150.2 274.3C150.3 274.3 150.3 274.3 150.4 274.3C150.5 274.3 150.5 274.3 150.6 274.3V274.7C150.5 274.7 150.4 274.8 150.2 274.8C150.1 274.8 149.9 274.8 149.8 274.8C149.5 274.8 149.2 274.8 149 274.7C148.8 274.6 148.6 274.5 148.4 274.3C148.2 274.1 148.1 273.9 148 273.7C147.9 273.5 147.9 273.2 147.9 272.9C147.9 272.6 147.9 272.4 148 272.1C148.1 271.9 148.2 271.7 148.4 271.5C148.6 271.3 148.8 271.2 149 271.1C149.2 271 149.5 271 149.8 271C149.9 271 150 271 150 271C150.1 271 150.1 271 150.2 271C150.3 271 150.3 271 150.4 271C150.5 271 150.5 271 150.6 271.1V271.5C150.5 271.5 150.4 271.4 150.2 271.4C150 271.1 149.9 271.1 149.8 271.1Z" fill="white"/>
<path d="M152.7 274.1C152.8 274.1 153 274.1 153.1 274.1C153.2 274.1 153.3 274 153.4 274C153.5 273.9 153.5 273.9 153.6 273.8C153.6 273.7 153.7 273.6 153.7 273.5C153.7 273.4 153.7 273.4 153.7 273.3C153.7 273.2 153.7 273.2 153.7 273.1V270.8H154.1V273C154.1 273.1 154.1 273.2 154.1 273.3C154.1 273.4 154.1 273.5 154.1 273.6C154.1 273.7 154 273.9 153.9 274C153.8 274.1 153.7 274.2 153.6 274.3C153.5 274.4 153.4 274.5 153.2 274.5C153 274.5 152.9 274.6 152.7 274.6C152.5 274.6 152.3 274.6 152.2 274.5C152 274.5 151.9 274.4 151.8 274.3C151.7 274.2 151.6 274.1 151.5 274C151.4 273.9 151.4 273.8 151.3 273.7C151.3 273.6 151.3 273.5 151.2 273.4C151.2 273.3 151.2 273.2 151.2 273.1V270.8H151.6V273C151.6 273.1 151.6 273.2 151.6 273.3C151.6 273.4 151.6 273.5 151.7 273.5C151.8 273.7 151.9 273.8 152 273.9C152.3 274 152.5 274.1 152.7 274.1Z" fill="white"/>
<path d="M155.5 272.9V274.4H155V270.7H156C156.2 270.7 156.3 270.7 156.4 270.7C156.5 270.7 156.6 270.7 156.7 270.8C157 270.9 157.2 271 157.3 271.2C157.4 271.4 157.5 271.6 157.5 271.8C157.5 271.9 157.5 272.1 157.4 272.2C157.4 272.3 157.3 272.4 157.2 272.5C157.1 272.6 157 272.7 156.9 272.7C156.8 272.8 156.6 272.8 156.5 272.8L157.6 274.4H157.2L156 272.9H155.5ZM155.5 271.1V272.4H155.9C156 272.4 156.2 272.4 156.2 272.4C156.3 272.4 156.4 272.4 156.5 272.4C156.7 272.4 156.8 272.3 156.9 272.2C157 272.1 157 272 157 271.8C157 271.6 157 271.5 156.9 271.4C156.8 271.3 156.7 271.2 156.6 271.2C156.5 271.2 156.5 271.2 156.4 271.2C156.3 271.2 156.2 271.2 156.1 271.2H155.5V271.1Z" fill="white"/>
<path d="M159.8 274.1C159.9 274.1 160.1 274.1 160.2 274.1C160.3 274.1 160.4 274 160.5 274C160.6 273.9 160.6 273.9 160.7 273.8C160.7 273.7 160.8 273.6 160.8 273.5C160.8 273.4 160.8 273.4 160.8 273.3C160.8 273.2 160.8 273.2 160.8 273.1V270.8H161.2V273C161.2 273.1 161.2 273.2 161.2 273.3C161.2 273.4 161.2 273.5 161.2 273.6C161.2 273.7 161.1 273.9 161 274C160.9 274.1 160.8 274.2 160.7 274.3C160.6 274.4 160.5 274.5 160.3 274.5C160.1 274.5 160 274.6 159.8 274.6C159.6 274.6 159.4 274.6 159.3 274.5C159.1 274.5 159 274.4 158.9 274.3C158.8 274.2 158.7 274.1 158.6 274C158.5 273.9 158.5 273.8 158.4 273.7C158.4 273.6 158.4 273.5 158.3 273.4C158.3 273.3 158.3 273.2 158.3 273.1V270.8H158.7V273C158.7 273.1 158.7 273.2 158.7 273.3C158.7 273.4 158.7 273.5 158.8 273.5C158.9 273.7 159 273.8 159.1 273.9C159.3 274 159.5 274.1 159.8 274.1Z" fill="white"/>
<path d="M162.5 271.7C162.5 271.8 162.5 271.9 162.6 272C162.6 272.1 162.7 272.1 162.8 272.2C162.9 272.2 163 272.3 163.1 272.3C163.2 272.3 163.3 272.4 163.4 272.4C163.5 272.4 163.7 272.5 163.8 272.5C163.9 272.5 164.1 272.6 164.2 272.7C164.3 272.8 164.4 272.9 164.5 273C164.6 273.1 164.6 273.3 164.6 273.5C164.6 273.7 164.6 273.9 164.5 274C164.4 274.1 164.3 274.3 164.2 274.3C164.1 274.4 163.9 274.5 163.7 274.5C163.5 274.5 163.3 274.6 163.1 274.6C163 274.6 162.9 274.6 162.8 274.6C162.7 274.6 162.6 274.6 162.5 274.6C162.4 274.6 162.3 274.6 162.3 274.5C162.2 274.5 162.2 274.4 162.1 274.4V274C162.2 274 162.2 274.1 162.3 274.1C162.4 274.1 162.5 274.2 162.6 274.2C162.7 274.2 162.8 274.2 162.9 274.2C163 274.2 163.1 274.2 163.2 274.2C163.3 274.2 163.4 274.2 163.6 274.2C163.7 274.2 163.8 274.1 163.9 274.1C164 274 164.1 274 164.1 273.9C164.2 273.8 164.2 273.7 164.2 273.6C164.2 273.5 164.2 273.4 164.1 273.3C164.1 273.2 164 273.2 163.9 273.1C163.8 273.1 163.7 273 163.6 273C163.5 273 163.4 272.9 163.3 272.9C163.2 272.9 163 272.8 162.9 272.8C162.8 272.8 162.6 272.7 162.5 272.6C162.4 272.5 162.3 272.4 162.2 272.3C162 272.1 162 271.9 162 271.7C162 271.5 162 271.4 162.1 271.2C162.2 271.1 162.3 271 162.4 270.9C162.5 270.8 162.6 270.7 162.8 270.7C162.9 270.7 163.1 270.6 163.3 270.6C163.5 270.6 163.7 270.6 163.8 270.7C164 270.7 164.1 270.8 164.3 270.8V271.2C164.1 271.1 164 271.1 163.8 271C163.6 271 163.5 270.9 163.3 270.9C163.2 270.9 163 270.9 162.9 270.9C162.8 270.9 162.7 271 162.6 271C162.5 271.1 162.5 271.1 162.4 271.2C162.5 271.5 162.5 271.6 162.5 271.7Z" fill="white"/>
<path d="M166.8 274.4H166.4V270.7H168.6V271.1H166.9V272.3H168.4V272.7H166.9V274.4H166.8Z" fill="white"/>
<path d="M172.4 272.6C172.4 272.9 172.4 273.1 172.3 273.4C172.2 273.6 172.1 273.8 172 274C171.9 274.2 171.7 274.3 171.5 274.4C171.3 274.5 171.1 274.5 170.8 274.5C170.5 274.5 170.3 274.5 170.1 274.4C169.9 274.3 169.7 274.2 169.6 274C169.5 273.8 169.3 273.6 169.3 273.4C169.2 273.2 169.2 272.9 169.2 272.6C169.2 272.3 169.2 272.1 169.3 271.8C169.4 271.6 169.5 271.4 169.6 271.2C169.7 271 169.9 270.9 170.1 270.8C170.3 270.7 170.5 270.7 170.8 270.7C171.1 270.7 171.3 270.7 171.5 270.8C171.7 270.9 171.9 271 172 271.2C172.1 271.4 172.3 271.6 172.3 271.8C172.4 272 172.4 272.3 172.4 272.6ZM172 272.6C172 272.4 172 272.1 171.9 271.9C171.8 271.7 171.7 271.6 171.6 271.4C171.5 271.3 171.4 271.2 171.2 271.1C171 271 170.9 271 170.7 271C170.5 271 170.4 271 170.2 271.1C170 271.2 169.9 271.3 169.8 271.4C169.7 271.5 169.6 271.7 169.5 271.9C169.4 272.1 169.4 272.3 169.4 272.6C169.4 272.8 169.4 273.1 169.5 273.2C169.6 273.4 169.7 273.5 169.8 273.7C169.9 273.8 170 273.9 170.2 274C170.4 274.1 170.5 274.1 170.7 274.1C170.9 274.1 171 274.1 171.2 274C171.4 273.9 171.5 273.8 171.6 273.7C171.7 273.6 171.8 273.4 171.9 273.2C171.9 273 172 272.8 172 272.6Z" fill="white"/>
<path d="M173.7 272.9V274.4H173.3V270.7H174.2C174.4 270.7 174.5 270.7 174.6 270.7C174.7 270.7 174.8 270.7 174.9 270.8C175.2 270.9 175.4 271 175.5 271.2C175.6 271.4 175.7 271.6 175.7 271.8C175.7 271.9 175.7 272.1 175.6 272.2C175.5 272.3 175.5 272.4 175.4 272.5C175.3 272.6 175.2 272.7 175.1 272.7C175 272.8 174.8 272.8 174.7 272.8L175.8 274.4H175.4L174.3 272.9H173.7ZM173.7 271.1V272.4H174.1C174.2 272.4 174.4 272.4 174.4 272.4C174.5 272.4 174.6 272.4 174.7 272.4C174.9 272.4 175 272.3 175.1 272.2C175.2 272.1 175.2 272 175.2 271.8C175.2 271.6 175.2 271.5 175.1 271.4C175 271.3 174.9 271.2 174.8 271.2C174.7 271.2 174.7 271.2 174.6 271.2C174.5 271.2 174.4 271.2 174.3 271.2H173.7V271.1Z" fill="white"/>
<path d="M177.9 274.4H177.5V271.1H176.3V270.7H179.2V271.1H178V274.4H177.9Z" fill="white"/>
<path d="M179 274.4L180.5 270.7H180.9L182.4 274.4H181.9L181.5 273.3H180L179.6 274.4H179ZM180.7 271.3C180.5 271.8 180.4 272.2 180.2 272.5L180.1 272.8H181.3L181.2 272.5C181 272.2 180.8 271.8 180.7 271.3Z" fill="white"/>
<path d="M183.3 271.7C183.3 271.8 183.3 271.9 183.4 272C183.4 272.1 183.5 272.1 183.6 272.2C183.7 272.2 183.8 272.3 183.9 272.3C184 272.3 184.1 272.4 184.2 272.4C184.3 272.4 184.5 272.5 184.6 272.5C184.7 272.5 184.9 272.6 185 272.7C185.1 272.8 185.2 272.9 185.3 273C185.4 273.1 185.4 273.3 185.4 273.5C185.4 273.7 185.4 273.9 185.3 274C185.2 274.1 185.1 274.3 185 274.3C184.9 274.4 184.7 274.5 184.5 274.5C184.3 274.5 184.1 274.6 183.9 274.6C183.8 274.6 183.7 274.6 183.6 274.6C183.5 274.6 183.4 274.6 183.3 274.6C183.2 274.6 183.1 274.6 183.1 274.5C183 274.5 183 274.4 182.9 274.4V274C183 274 183 274.1 183.1 274.1C183.2 274.1 183.3 274.2 183.4 274.2C183.5 274.2 183.6 274.2 183.7 274.2C183.8 274.2 183.9 274.2 184 274.2C184.1 274.2 184.2 274.2 184.4 274.2C184.5 274.2 184.6 274.1 184.7 274.1C184.8 274 184.9 274 184.9 273.9C185 273.8 185 273.7 185 273.6C185 273.5 185 273.4 184.9 273.3C184.9 273.2 184.8 273.2 184.7 273.1C184.6 273.1 184.5 273 184.4 273C184.3 273 184.2 272.9 184.1 272.9C184 272.9 183.8 272.8 183.7 272.8C183.6 272.8 183.4 272.7 183.3 272.6C183.2 272.5 183.1 272.4 183 272.3C182.9 272.2 182.9 272 182.9 271.9C182.9 271.7 182.9 271.6 183 271.4C183.1 271.3 183.2 271.2 183.3 271.1C183.4 271 183.5 270.9 183.7 270.9C183.8 270.9 184 270.8 184.2 270.8C184.4 270.8 184.6 270.8 184.7 270.9C184.9 270.9 185 271 185.2 271V271.4C185 271.3 184.9 271.3 184.7 271.2C184.5 271.2 184.4 271.1 184.2 271.1C184.1 271.1 183.9 271.1 183.8 271.1C183.7 271.1 183.6 271.2 183.5 271.2C183.4 271.3 183.4 271.3 183.3 271.4C183.3 271.5 183.3 271.6 183.3 271.7Z" fill="white"/>
<path d="M186.4 271.7C186.4 271.8 186.4 271.9 186.5 272C186.5 272.1 186.6 272.1 186.7 272.2C186.8 272.2 186.9 272.3 187 272.3C187.1 272.3 187.2 272.4 187.3 272.4C187.4 272.4 187.6 272.5 187.7 272.5C187.8 272.5 188 272.6 188.1 272.7C188.2 272.8 188.3 272.9 188.4 273C188.5 273.1 188.5 273.3 188.5 273.5C188.5 273.7 188.5 273.9 188.4 274C188.3 274.1 188.2 274.3 188.1 274.3C188 274.4 187.8 274.5 187.6 274.5C187.4 274.5 187.2 274.6 187 274.6C186.9 274.6 186.8 274.6 186.7 274.6C186.6 274.6 186.5 274.6 186.4 274.6C186.3 274.6 186.2 274.6 186.2 274.5C186.1 274.5 186.1 274.4 186 274.4V274C186.1 274 186.1 274.1 186.2 274.1C186.3 274.1 186.4 274.2 186.5 274.2C186.6 274.2 186.7 274.2 186.8 274.2C186.9 274.2 187 274.2 187.1 274.2C187.2 274.2 187.3 274.2 187.5 274.2C187.6 274.2 187.7 274.1 187.8 274.1C187.9 274 188 274 188 273.9C188.1 273.8 188.1 273.7 188.1 273.6C188.1 273.5 188.1 273.4 188 273.3C188 273.2 187.9 273.2 187.8 273.1C187.7 273.1 187.6 273 187.5 273C187.4 273 187.3 272.9 187.2 272.9C187.1 272.9 186.9 272.8 186.8 272.8C186.7 272.8 186.5 272.7 186.4 272.6C186.3 272.5 186.2 272.4 186.1 272.3C186 272.2 186 272 186 271.9C186 271.7 186 271.6 186.1 271.4C186.2 271.3 186.3 271.2 186.4 271.1C186.5 271 186.6 270.9 186.8 270.9C186.9 270.9 187.1 270.8 187.3 270.8C187.5 270.8 187.7 270.8 187.8 270.9C188 270.9 188.1 271 188.3 271V271.4C188.1 271.3 188 271.3 187.8 271.2C187.6 271.2 187.5 271.1 187.3 271.1C187.2 271.1 187 271.1 186.9 271.1C186.8 271.1 186.7 271.2 186.6 271.2C186.5 271.3 186.5 271.3 186.4 271.4C186.4 271.5 186.4 271.6 186.4 271.7Z" fill="white"/>
<path d="M189.5 274H191.4V274.4H189.1V270.7H191.3V271.1H189.5V272.3H191.1V272.7H189.5V274Z" fill="white"/>
<path d="M193.7 272.9V274.4H193.3V270.7H194.2C194.4 270.7 194.5 270.7 194.6 270.7C194.7 270.7 194.8 270.7 194.9 270.8C195.2 270.9 195.4 271 195.5 271.2C195.6 271.4 195.7 271.6 195.7 271.8C195.7 271.9 195.7 272.1 195.6 272.2C195.5 272.3 195.5 272.4 195.4 272.5C195.3 272.6 195.2 272.7 195.1 272.7C195 272.8 194.8 272.8 194.7 272.8L195.8 274.4H195.4L194.3 272.9H193.7ZM193.7 271.1V272.4H194.1C194.2 272.4 194.4 272.4 194.5 272.4C194.6 272.4 194.7 272.4 194.8 272.4C195 272.4 195.1 272.3 195.2 272.2C195.3 272.1 195.3 272 195.3 271.8C195.3 271.6 195.3 271.5 195.2 271.4C195.1 271.3 195 271.2 194.9 271.2C194.8 271.2 194.8 271.2 194.7 271.2C194.6 271.2 194.5 271.2 194.4 271.2H193.7V271.1Z" fill="white"/>
<path d="M197.1 274H199V274.4H196.7V270.7H198.9V271.1H197.1V272.3H198.7V272.7H197.1V274Z" fill="white"/>
<path d="M202.7 272.5C202.7 272.7 202.7 272.9 202.6 273.1C202.5 273.3 202.5 273.5 202.4 273.6C202.3 273.7 202.2 273.9 202 274C201.8 274.1 201.7 274.2 201.4 274.3C201.3 274.3 201.1 274.4 201 274.4C200.9 274.4 200.7 274.4 200.5 274.4H199.7V270.7H200.5C200.7 270.7 200.8 270.7 201 270.7C201.1 270.7 201.3 270.7 201.4 270.8C201.6 270.9 201.8 270.9 202 271.1C202.2 271.2 202.3 271.3 202.4 271.5C202.5 271.6 202.6 271.8 202.6 272C202.6 272.1 202.7 272.3 202.7 272.5ZM202.2 272.5C202.2 272.1 202.1 271.9 202 271.6C201.8 271.4 201.6 271.2 201.3 271.1C201.2 271.1 201.1 271 200.9 271C200.8 271 200.6 271 200.4 271H200.1V274H200.4C200.6 274 200.7 274 200.9 274C201 274 201.2 274 201.3 273.9C201.6 273.8 201.8 273.7 202 273.4C202.1 273.2 202.2 272.9 202.2 272.5Z" fill="white"/>
<path d="M206.4 272.5C206.4 272.7 206.4 272.9 206.3 273.1C206.2 273.3 206.2 273.5 206.1 273.6C206 273.7 205.9 273.9 205.7 274C205.5 274.1 205.4 274.2 205.1 274.3C205 274.3 204.8 274.4 204.7 274.4C204.6 274.4 204.4 274.4 204.2 274.4H203.4V270.7H204.2C204.4 270.7 204.5 270.7 204.7 270.7C204.8 270.7 205 270.7 205.1 270.8C205.3 270.9 205.5 270.9 205.7 271.1C205.9 271.2 206 271.3 206.1 271.5C206.2 271.6 206.3 271.8 206.3 272C206.4 272.1 206.4 272.3 206.4 272.5ZM206 272.5C206 272.1 205.9 271.9 205.8 271.6C205.6 271.4 205.4 271.2 205.1 271.1C205 271.1 204.9 271 204.7 271C204.6 271 204.4 271 204.2 271H203.9V274H204.2C204.4 274 204.5 274 204.7 274C204.8 274 205 274 205.1 273.9C205.4 273.8 205.6 273.7 205.8 273.4C205.9 273.2 206 272.9 206 272.5Z" fill="white"/>
<path d="M207.7 274H209.6V274.4H207.3V270.7H209.5V271.1H207.7V272.3H209.3V272.7H207.7V274Z" fill="white"/>
<path d="M210.7 272.9V274.4H210.3V270.7H211.2C211.4 270.7 211.5 270.7 211.6 270.7C211.7 270.7 211.8 270.7 211.9 270.8C212.2 270.9 212.3 271 212.5 271.2C212.6 271.4 212.7 271.6 212.7 271.8C212.7 271.9 212.7 272.1 212.6 272.2C212.6 272.3 212.5 272.4 212.4 272.5C212.3 272.6 212.2 272.7 212.1 272.7C212 272.8 211.8 272.8 211.7 272.8L212.8 274.4H212.4L211.3 272.9H210.7ZM210.7 271.1V272.4H211.1C211.2 272.4 211.4 272.4 211.4 272.4C211.5 272.4 211.6 272.4 211.7 272.4C211.9 272.4 212 272.3 212.1 272.2C212.2 272.1 212.2 272 212.2 271.8C212.2 271.6 212.2 271.5 212.1 271.4C212 271.3 211.9 271.2 211.8 271.2C211.7 271.2 211.7 271.2 211.6 271.2C211.5 271.2 211.4 271.2 211.3 271.2H210.7V271.1Z" fill="white"/>
<path d="M214.1 274H216V274.4H213.7V270.7H215.9V271.1H214.1V272.3H215.7V272.7H214.1V274Z" fill="white"/>
<path d="M218 274.4H217.6V271.1H216.4V270.7H219.3V271.1H218V274.4Z" fill="white"/>
<path d="M219.5 273.8H220L219.5 275.5H219L219.5 273.8Z" fill="white"/>
<path d="M223.3 274.1C223.4 274.1 223.6 274.1 223.7 274.1C223.8 274.1 223.9 274 224 274C224.1 273.9 224.1 273.9 224.2 273.8C224.2 273.7 224.3 273.6 224.3 273.5C224.3 273.4 224.3 273.4 224.3 273.3C224.3 273.2 224.3 273.2 224.3 273.1V270.8H224.7V273C224.7 273.1 224.7 273.2 224.7 273.3C224.7 273.4 224.7 273.5 224.7 273.6C224.7 273.7 224.6 273.9 224.5 274C224.4 274.1 224.3 274.2 224.2 274.3C224.1 274.4 224 274.5 223.8 274.5C223.6 274.5 223.5 274.6 223.3 274.6C223.1 274.6 222.9 274.6 222.8 274.5C222.6 274.5 222.5 274.4 222.4 274.3C222.3 274.2 222.2 274.1 222.1 274C222 273.9 222 273.8 221.9 273.7C221.9 273.6 221.9 273.5 221.8 273.4C221.8 273.3 221.8 273.2 221.8 273.1V270.8H222.2V273C222.2 273.1 222.2 273.2 222.2 273.3C222.2 273.4 222.2 273.5 222.3 273.5C222.4 273.7 222.5 273.8 222.6 273.9C222.9 274 223.1 274.1 223.3 274.1Z" fill="white"/>
<path d="M122.2 280.5V281L120 279.8V279.5L122.2 278.4V278.8L120.4 279.7L122.2 280.5Z" fill="white"/>
<path d="M123 281.1V277.1H123.4V281.1H123Z" fill="white"/>
<path d="M124.3 277.9V277.4H124.7V277.9H124.3ZM124.3 281.1V278.5H124.7V281.1H124.3Z" fill="white"/>
<path d="M127.3 279.7L125.5 278.8V278.4L127.7 279.5V279.9L125.5 281V280.6L127.3 279.7Z" fill="white"/>
<path d="M128.1 281.1L129.6 277.4H130L131.5 281.1H131L130.6 280H129L128.6 281.1H128.1ZM129.8 278C129.6 278.5 129.5 278.9 129.3 279.2L129.2 279.5H130.4L130.3 279.2C130.1 278.9 130 278.5 129.8 278Z" fill="white"/>
<path d="M132.5 281.1H132V277.4H133C133.2 277.4 133.3 277.4 133.4 277.4C133.5 277.4 133.6 277.4 133.8 277.5C134 277.6 134.2 277.7 134.3 277.9C134.4 278.1 134.5 278.2 134.5 278.5C134.5 278.7 134.5 278.8 134.4 279C134.3 279.1 134.2 279.3 134.1 279.4C134 279.5 133.8 279.6 133.6 279.6C133.4 279.6 133.2 279.7 132.9 279.7C132.8 279.7 132.7 279.7 132.5 279.7V281.1ZM132.5 279.2C132.6 279.2 132.6 279.2 132.7 279.2C132.8 279.2 132.8 279.2 132.9 279.2C133.1 279.2 133.3 279.2 133.4 279.1C133.5 279.1 133.7 279 133.8 279C133.9 278.9 134 278.9 134 278.8C134 278.7 134.1 278.6 134.1 278.5C134.1 278.4 134.1 278.2 134 278.2C133.9 278.1 133.8 278 133.7 278C133.6 278 133.5 278 133.4 277.9C133.3 277.9 133.2 277.9 133 277.9H132.5V279.2Z" fill="white"/>
<path d="M136.6 280.8C136.7 280.8 136.9 280.8 137 280.8C137.1 280.8 137.2 280.7 137.3 280.7C137.4 280.6 137.4 280.6 137.5 280.5C137.5 280.4 137.6 280.3 137.6 280.2C137.6 280.1 137.6 280.1 137.6 280C137.6 279.9 137.6 279.9 137.6 279.8V277.5H138V279.8C138 279.9 138 280 138 280.1C138 280.2 138 280.3 138 280.4C138 280.5 137.9 280.7 137.8 280.8C137.7 280.9 137.6 281 137.5 281.1C137.4 281.2 137.3 281.3 137.1 281.3C136.9 281.3 136.8 281.4 136.6 281.4C136.4 281.4 136.2 281.4 136.1 281.3C135.9 281.3 135.8 281.2 135.7 281.1C135.6 281 135.5 280.9 135.4 280.8C135.3 280.7 135.3 280.6 135.2 280.5C135.2 280.4 135.2 280.3 135.1 280.2C135.1 280.1 135.1 280 135.1 279.9V277.6H135.5V279.9C135.5 280 135.5 280.1 135.5 280.2C135.5 280.3 135.5 280.4 135.6 280.4C135.7 280.6 135.8 280.7 135.9 280.8C136.2 280.7 136.4 280.8 136.6 280.8Z" fill="white"/>
<path d="M141.9 279.3C141.9 279.5 141.9 279.7 141.8 279.9C141.7 280.1 141.7 280.3 141.6 280.4C141.5 280.5 141.4 280.7 141.2 280.8C141 280.9 140.9 281 140.6 281.1C140.5 281.1 140.3 281.2 140.2 281.2C140.1 281.2 139.9 281.2 139.7 281.2H139V277.5H139.8C140 277.5 140.1 277.5 140.3 277.5C140.4 277.5 140.6 277.5 140.7 277.6C140.9 277.7 141.1 277.7 141.3 277.9C141.5 278 141.6 278.1 141.7 278.3C141.8 278.4 141.9 278.6 141.9 278.8C141.9 278.9 141.9 279.1 141.9 279.3ZM141.5 279.3C141.5 278.9 141.4 278.7 141.3 278.4C141.1 278.2 140.9 278 140.6 277.9C140.5 277.9 140.4 277.8 140.2 277.8C140.1 277.8 139.9 277.8 139.7 277.8H139.4V280.7H139.7C139.9 280.7 140 280.7 140.2 280.7C140.3 280.7 140.5 280.7 140.6 280.6C140.9 280.5 141.1 280.4 141.3 280.1C141.4 279.9 141.5 279.6 141.5 279.3Z" fill="white"/>
<path d="M145.4 277.8C145.2 277.8 145 277.8 144.8 277.9C144.6 278 144.5 278.1 144.3 278.2C144.2 278.3 144.1 278.5 144 278.7C143.9 278.9 143.9 279.1 143.9 279.4C143.9 279.7 143.9 279.9 144 280.1C144.1 280.3 144.2 280.4 144.3 280.6C144.4 280.7 144.6 280.8 144.8 280.9C145 281 145.2 281 145.4 281C145.5 281 145.5 281 145.6 281C145.7 281 145.7 281 145.8 281C145.9 281 145.9 281 146 281C146.1 281 146.1 281 146.2 281C146.1 281 146 281.1 145.8 281.1C145.7 281.1 145.5 281.1 145.4 281.1C145.1 281.1 144.8 281.1 144.6 281C144.4 280.9 144.2 280.8 144 280.6C143.8 280.4 143.7 280.2 143.6 280C143.5 279.8 143.5 279.5 143.5 279.2C143.5 278.9 143.5 278.7 143.6 278.4C143.7 278.2 143.8 278 144 277.8C144.2 277.6 144.4 277.5 144.6 277.4C144.8 277.3 145.1 277.3 145.4 277.3C145.5 277.3 145.6 277.3 145.6 277.3C145.7 277.3 145.7 277.3 145.8 277.3C145.9 277.3 145.9 277.3 146 277.3C146.1 277.3 146.1 277.3 146.2 277.4V277.8C146.1 277.8 146 277.7 145.8 277.7C145.7 277.8 145.5 277.8 145.4 277.8Z" fill="white"/>
<path d="M147.4 280.7H149.3V281.1H147V277.4H149.2V277.8H147.4V279H149V279.4H147.4V280.7Z" fill="white"/>
<path d="M151.3 281.1H150.9V277.8H149.7V277.4H152.6V277.8H151.4V281.1H151.3Z" fill="white"/>
<path d="M153.6 280.7H155.5V281.1H153.2V277.4H155.4V277.8H153.6V279H155.2V279.4H153.6V280.7Z" fill="white"/>
<path d="M156.7 279.6V281.1H156.3V277.4H157.2C157.4 277.4 157.5 277.4 157.6 277.4C157.7 277.4 157.8 277.4 157.9 277.5C158.2 277.6 158.3 277.7 158.5 277.9C158.6 278.1 158.7 278.3 158.7 278.5C158.7 278.6 158.7 278.8 158.6 278.9C158.6 279 158.5 279.1 158.4 279.2C158.3 279.3 158.2 279.4 158.1 279.4C158 279.5 157.8 279.5 157.7 279.5L158.8 281.1H158.4L157.3 279.6H156.7ZM156.7 277.9V279.2H157.1C157.2 279.2 157.4 279.2 157.4 279.2C157.5 279.2 157.6 279.2 157.7 279.2C157.9 279.2 158 279.1 158.1 279C158.2 278.9 158.2 278.8 158.2 278.6C158.2 278.4 158.2 278.3 158.1 278.2C158 278 157.9 278 157.8 277.9C157.7 277.9 157.7 277.9 157.6 277.9C157.5 277.9 157.4 277.9 157.3 277.9H156.7Z" fill="white"/>
<path d="M162.8 279.3C162.8 279.6 162.8 279.8 162.7 280.1C162.6 280.3 162.5 280.5 162.4 280.7C162.3 280.9 162.1 281 161.9 281.1C161.7 281.2 161.5 281.2 161.2 281.2C160.9 281.2 160.7 281.2 160.5 281.1C160.3 281 160.1 280.9 160 280.7C159.9 280.5 159.7 280.3 159.7 280.1C159.6 279.9 159.6 279.6 159.6 279.3C159.6 279 159.6 278.8 159.7 278.5C159.8 278.3 159.9 278.1 160 277.9C160.1 277.7 160.3 277.6 160.5 277.5C160.7 277.4 160.9 277.4 161.2 277.4C161.5 277.4 161.7 277.4 161.9 277.5C162.1 277.6 162.3 277.7 162.4 277.9C162.5 278.1 162.7 278.3 162.7 278.5C162.8 278.7 162.8 279 162.8 279.3ZM162.4 279.3C162.4 279.1 162.4 278.8 162.3 278.6C162.2 278.4 162.1 278.3 162 278.1C161.9 278 161.8 277.9 161.6 277.8C161.4 277.7 161.3 277.7 161.1 277.7C160.9 277.7 160.8 277.7 160.6 277.8C160.4 277.9 160.3 278 160.2 278.1C160.1 278.2 160 278.4 159.9 278.6C159.8 278.8 159.8 279 159.8 279.3C159.8 279.5 159.8 279.8 159.9 279.9C160 280.1 160.1 280.2 160.2 280.4C160.3 280.5 160.4 280.6 160.6 280.7C160.8 280.8 160.9 280.8 161.1 280.8C161.3 280.8 161.4 280.8 161.6 280.7C161.8 280.6 161.9 280.5 162 280.4C162.1 280.3 162.2 280.1 162.3 279.9C162.3 279.7 162.4 279.5 162.4 279.3Z" fill="white"/>
<path d="M164 278.4C164 278.5 164 278.6 164.1 278.7C164.1 278.8 164.2 278.8 164.3 278.9C164.4 278.9 164.5 279 164.6 279C164.7 279 164.8 279.1 164.9 279.1C165 279.1 165.2 279.2 165.3 279.2C165.4 279.2 165.6 279.3 165.7 279.4C165.8 279.5 165.9 279.6 166 279.7C166.1 279.8 166.1 280 166.1 280.2C166.1 280.4 166.1 280.6 166 280.7C165.9 280.8 165.8 281 165.7 281C165.6 281.1 165.4 281.2 165.2 281.2C165 281.2 164.8 281.3 164.6 281.3C164.5 281.3 164.4 281.3 164.3 281.3C164.2 281.3 164.1 281.3 164 281.3C163.9 281.3 163.8 281.3 163.8 281.2C163.7 281.2 163.7 281.1 163.6 281.1V280.7C163.7 280.7 163.7 280.8 163.8 280.8C163.9 280.8 164 280.9 164.1 280.9C164.2 280.9 164.3 280.9 164.4 280.9C164.5 280.9 164.6 280.9 164.7 280.9C164.8 280.9 164.9 280.9 165.1 280.9C165.2 280.9 165.3 280.8 165.4 280.8C165.5 280.7 165.6 280.7 165.6 280.6C165.7 280.5 165.7 280.4 165.7 280.3C165.7 280.2 165.7 280.1 165.6 280C165.6 279.9 165.5 279.9 165.4 279.8C165.3 279.8 165.2 279.7 165.1 279.7C165 279.7 164.9 279.6 164.8 279.6C164.7 279.6 164.5 279.5 164.4 279.5C164.3 279.5 164.1 279.4 164 279.3C163.9 279.2 163.8 279.1 163.7 279C163.6 278.9 163.6 278.7 163.6 278.6C163.6 278.4 163.6 278.3 163.7 278.1C163.8 278 163.9 277.9 164 277.8C164.1 277.7 164.2 277.6 164.4 277.6C164.5 277.6 164.7 277.5 164.9 277.5C165.1 277.5 165.3 277.5 165.4 277.6C165.6 277.6 165.7 277.7 165.9 277.7V278C165.7 277.9 165.6 277.9 165.4 277.8C165.2 277.8 165.1 277.7 164.9 277.7C164.8 277.7 164.6 277.7 164.5 277.7C164.4 277.7 164.3 277.8 164.2 277.8C164.1 277.9 164.1 277.9 164 278C164 278.2 164 278.3 164 278.4Z" fill="white"/>
<path d="M167.2 281.1L168.7 277.4H169.1L170.6 281.1H170.1L169.7 280H168.2L167.8 281.1H167.2ZM168.9 278C168.7 278.5 168.6 278.9 168.4 279.2L168.3 279.5H169.5L169.4 279.2C169.2 278.9 169.1 278.5 168.9 278Z" fill="white"/>
<path d="M172.6 280.8C172.7 280.8 172.9 280.8 173 280.8C173.1 280.8 173.2 280.7 173.3 280.7C173.4 280.6 173.4 280.6 173.5 280.5C173.5 280.4 173.6 280.3 173.6 280.2C173.6 280.1 173.6 280.1 173.6 280C173.6 279.9 173.6 279.9 173.6 279.8V277.5H174V279.8C174 279.9 174 280 174 280.1C174 280.2 174 280.3 174 280.4C174 280.5 173.9 280.7 173.8 280.8C173.7 280.9 173.6 281 173.5 281.1C173.4 281.2 173.3 281.3 173.1 281.3C172.9 281.3 172.8 281.4 172.6 281.4C172.4 281.4 172.2 281.4 172.1 281.3C171.9 281.3 171.8 281.2 171.7 281.1C171.6 281 171.5 280.9 171.4 280.8C171.3 280.7 171.3 280.6 171.2 280.5C171.2 280.4 171.2 280.3 171.1 280.2C171.1 280.1 171.1 280 171.1 279.9V277.6H171.5V279.9C171.5 280 171.5 280.1 171.5 280.2C171.5 280.3 171.5 280.4 171.6 280.4C171.7 280.6 171.8 280.7 171.9 280.8C172.1 280.7 172.3 280.8 172.6 280.8Z" fill="white"/>
<path d="M176.2 281.1H175.8V277.8H174.6V277.4H177.5V277.8H176.3V281.1H176.2Z" fill="white"/>
<path d="M178.5 280.7H180.4V281.1H178V277.4H180.2V277.8H178.4V279H180V279.4H178.4V280.7H178.5Z" fill="white"/>
<path d="M183 281.1H182.8L181.9 278.9C181.8 278.6 181.6 278.3 181.5 277.9C181.5 278.4 181.5 278.9 181.5 279.3V281.1H181.1V277.4H181.7L182.6 279.5C182.7 279.7 182.8 280 182.9 280.4C183 280 183.1 279.7 183.2 279.5L184.1 277.4H184.7V281.1H184.3V279.3C184.3 278.9 184.3 278.4 184.3 277.9C184.2 278.3 184 278.6 183.9 278.9L183 281.1Z" fill="white"/>
<path d="M187.3 281.1H186.9V277.4H187.9C188.1 277.4 188.2 277.4 188.3 277.4C188.4 277.4 188.5 277.4 188.7 277.5C188.9 277.6 189.1 277.7 189.2 277.9C189.3 278.1 189.4 278.2 189.4 278.5C189.4 278.7 189.4 278.8 189.3 279C189.2 279.1 189.1 279.3 189 279.4C188.9 279.5 188.7 279.6 188.5 279.6C188.3 279.6 188.1 279.7 187.8 279.7C187.7 279.7 187.6 279.7 187.4 279.7V281.1H187.3ZM187.3 279.2C187.4 279.2 187.4 279.2 187.5 279.2C187.6 279.2 187.6 279.2 187.7 279.2C187.9 279.2 188.1 279.2 188.2 279.1C188.3 279.1 188.5 279 188.6 279C188.7 278.9 188.8 278.9 188.8 278.8C188.8 278.7 188.9 278.6 188.9 278.5C188.9 278.4 188.9 278.2 188.8 278.2C188.7 278.1 188.6 278 188.5 278C188.4 278 188.3 278 188.2 277.9C188.1 277.9 188 277.9 187.8 277.9H187.3V279.2Z" fill="white"/>
<path d="M190.5 279H192.4V277.4H192.8V281.1H192.4V279.4H190.5V281.1H190V277.4H190.4V279H190.5Z" fill="white"/>
<path d="M193.7 281.1V277.4H194.1V281.1H193.7Z" fill="white"/>
<path d="M195.6 277.5V280.8H197.4V281.2H195.2V277.5H195.6Z" fill="white"/>
<path d="M201.1 279.3C201.1 279.6 201.1 279.8 201 280.1C200.9 280.3 200.8 280.5 200.7 280.7C200.6 280.9 200.4 281 200.2 281.1C200 281.2 199.8 281.2 199.5 281.2C199.2 281.2 199 281.2 198.8 281.1C198.6 281 198.4 280.9 198.3 280.7C198.2 280.5 198 280.3 198 280.1C197.9 279.9 197.9 279.6 197.9 279.3C197.9 279 197.9 278.8 198 278.5C198.1 278.3 198.2 278.1 198.3 277.9C198.4 277.7 198.6 277.6 198.8 277.5C199 277.4 199.2 277.4 199.5 277.4C199.8 277.4 200 277.4 200.2 277.5C200.4 277.6 200.6 277.7 200.7 277.9C200.8 278.1 201 278.3 201 278.5C201 278.7 201.1 279 201.1 279.3ZM200.6 279.3C200.6 279.1 200.6 278.8 200.5 278.6C200.4 278.4 200.3 278.3 200.2 278.1C200.1 278 200 277.9 199.8 277.8C199.6 277.7 199.5 277.7 199.3 277.7C199.1 277.7 199 277.7 198.8 277.8C198.6 277.9 198.5 278 198.4 278.1C198.3 278.2 198.2 278.4 198.1 278.6C198 278.8 198 279 198 279.3C198 279.5 198 279.8 198.1 279.9C198.2 280.1 198.3 280.2 198.4 280.4C198.5 280.5 198.6 280.6 198.8 280.7C199 280.8 199.1 280.8 199.3 280.8C199.5 280.8 199.6 280.8 199.8 280.7C200 280.6 200.1 280.5 200.2 280.4C200.3 280.3 200.4 280.1 200.5 279.9C200.6 279.7 200.6 279.5 200.6 279.3Z" fill="white"/>
<path d="M202.3 278.4C202.3 278.5 202.3 278.6 202.4 278.7C202.4 278.8 202.5 278.8 202.6 278.9C202.7 278.9 202.8 279 202.9 279C203 279 203.1 279.1 203.2 279.1C203.3 279.1 203.5 279.2 203.6 279.2C203.7 279.2 203.9 279.3 204 279.4C204.1 279.5 204.2 279.6 204.3 279.7C204.4 279.8 204.4 280 204.4 280.2C204.4 280.4 204.4 280.6 204.3 280.7C204.2 280.8 204.1 281 204 281C203.9 281.1 203.7 281.2 203.5 281.2C203.3 281.2 203.1 281.3 202.9 281.3C202.8 281.3 202.7 281.3 202.6 281.3C202.5 281.3 202.4 281.3 202.3 281.3C202.2 281.3 202.1 281.3 202.1 281.2C202 281.2 202 281.1 201.9 281.1V280.7C202 280.7 202 280.8 202.1 280.8C202.2 280.8 202.3 280.9 202.4 280.9C202.5 280.9 202.6 280.9 202.7 280.9C202.8 280.9 202.9 280.9 203 280.9C203.1 280.9 203.2 280.9 203.4 280.9C203.5 280.9 203.6 280.8 203.7 280.8C203.8 280.7 203.9 280.7 203.9 280.6C204 280.5 204 280.4 204 280.3C204 280.2 204 280.1 203.9 280C203.9 279.9 203.8 279.9 203.7 279.8C203.6 279.8 203.5 279.7 203.4 279.7C203.3 279.7 203.2 279.6 203.1 279.6C203 279.6 202.8 279.5 202.7 279.5C202.6 279.5 202.4 279.4 202.3 279.3C202.2 279.2 202.1 279.1 202 279C201.9 278.9 201.9 278.7 201.9 278.6C201.9 278.4 201.9 278.3 202 278.1C202.1 278 202.2 277.9 202.3 277.8C202.4 277.7 202.5 277.6 202.7 277.6C202.8 277.6 203 277.5 203.2 277.5C203.4 277.5 203.6 277.5 203.7 277.6C203.9 277.6 204 277.7 204.2 277.7V278C204 277.9 203.9 277.9 203.7 277.8C203.5 277.8 203.4 277.7 203.2 277.7C203.1 277.7 202.9 277.7 202.8 277.7C202.7 277.7 202.6 277.8 202.5 277.8C202.4 277.9 202.4 277.9 202.3 278C202.3 278.2 202.3 278.3 202.3 278.4Z" fill="white"/>
<path d="M208.3 279.3C208.3 279.6 208.3 279.8 208.2 280.1C208.1 280.3 208 280.5 207.9 280.7C207.8 280.9 207.6 281 207.4 281.1C207.2 281.2 207 281.2 206.7 281.2C206.4 281.2 206.2 281.2 206 281.1C205.8 281 205.6 280.9 205.5 280.7C205.2 280.5 205 280.3 205 280C204.9 279.8 204.9 279.5 204.9 279.2C204.9 278.9 204.9 278.7 205 278.4C205.1 278.2 205.2 278 205.3 277.8C205.4 277.6 205.6 277.5 205.8 277.4C206 277.3 206.2 277.3 206.5 277.3C206.8 277.3 207 277.3 207.2 277.4C207.4 277.5 207.6 277.6 207.7 277.8C207.8 278 208 278.2 208 278.4C208.2 278.7 208.3 279 208.3 279.3ZM207.8 279.3C207.8 279.1 207.8 278.8 207.7 278.6C207.6 278.4 207.5 278.3 207.4 278.1C207.3 278 207.2 277.9 207 277.8C206.8 277.7 206.7 277.7 206.5 277.7C206.3 277.7 206.2 277.7 206 277.8C205.8 277.9 205.7 278 205.6 278.1C205.5 278.2 205.4 278.4 205.3 278.6C205.2 278.8 205.2 279 205.2 279.3C205.2 279.5 205.2 279.8 205.3 279.9C205.4 280.1 205.5 280.2 205.6 280.4C205.7 280.5 205.8 280.6 206 280.7C206.2 280.8 206.3 280.8 206.5 280.8C206.7 280.8 206.8 280.8 207 280.7C207.2 280.6 207.3 280.5 207.4 280.4C207.5 280.3 207.6 280.1 207.7 279.9C207.8 279.7 207.8 279.5 207.8 279.3Z" fill="white"/>
<path d="M209.5 281.1H209.1V277.4H210.1C210.3 277.4 210.4 277.4 210.5 277.4C210.6 277.4 210.7 277.4 210.9 277.5C211.1 277.6 211.3 277.7 211.4 277.9C211.5 278.1 211.6 278.2 211.6 278.5C211.6 278.7 211.6 278.8 211.5 279C211.4 279.1 211.3 279.3 211.2 279.4C211.1 279.5 210.9 279.6 210.7 279.6C210.5 279.6 210.3 279.7 210 279.7C209.9 279.7 209.7 279.7 209.6 279.7V281.1H209.5ZM209.5 279.2C209.6 279.2 209.6 279.2 209.7 279.2C209.8 279.2 209.8 279.2 209.9 279.2C210.1 279.2 210.3 279.2 210.4 279.1C210.5 279.1 210.7 279 210.8 279C210.9 278.9 211 278.9 211 278.8C211 278.7 211.1 278.6 211.1 278.5C211.1 278.4 211.1 278.2 211 278.2C210.9 278.1 210.8 278 210.7 278C210.6 278 210.5 278 210.4 277.9C210.3 277.9 210.2 277.9 210 277.9H209.5V279.2Z" fill="white"/>
<path d="M212.7 279H214.6V277.4H215V281.1H214.6V279.4H212.7V281.1H212.3V277.4H212.7V279Z" fill="white"/>
<path d="M219.3 279.3C219.3 279.6 219.3 279.8 219.2 280.1C219.1 280.3 219 280.5 218.9 280.7C218.8 280.9 218.6 281 218.4 281.1C218.2 281.2 218 281.2 217.7 281.2C217.4 281.2 217.2 281.2 217 281.1C216.8 281 216.6 280.9 216.5 280.7C216.4 280.5 216.2 280.3 216.2 280.1C216.1 279.9 216.1 279.6 216.1 279.3C216.1 279 216.1 278.8 216.2 278.5C216.3 278.3 216.4 278.1 216.5 277.9C216.6 277.7 216.8 277.6 217 277.5C217.2 277.4 217.4 277.4 217.7 277.4C218 277.4 218.2 277.4 218.4 277.5C218.6 277.6 218.8 277.7 218.9 277.9C219 278.1 219.2 278.3 219.2 278.5C219.2 278.7 219.3 279 219.3 279.3ZM218.8 279.3C218.8 279.1 218.8 278.8 218.7 278.6C218.6 278.4 218.5 278.3 218.4 278.1C218.3 278 218.2 277.9 218 277.8C217.8 277.7 217.7 277.7 217.5 277.7C217.3 277.7 217.2 277.7 217 277.8C216.8 277.9 216.7 278 216.6 278.1C216.5 278.2 216.4 278.4 216.3 278.6C216.2 278.8 216.2 279 216.2 279.3C216.2 279.5 216.2 279.8 216.3 279.9C216.4 280.1 216.5 280.2 216.6 280.4C216.7 280.5 216.8 280.6 217 280.7C217.2 280.8 217.3 280.8 217.5 280.8C217.7 280.8 217.8 280.8 218 280.7C218.2 280.6 218.3 280.5 218.4 280.4C218.5 280.3 218.6 280.1 218.7 279.9C218.8 279.7 218.8 279.5 218.8 279.3Z" fill="white"/>
<path d="M220.4 278.4C220.4 278.5 220.4 278.6 220.5 278.7C220.5 278.8 220.6 278.8 220.7 278.9C220.8 278.9 220.9 279 221 279C221.1 279 221.2 279.1 221.3 279.1C221.4 279.1 221.6 279.2 221.7 279.2C221.8 279.2 222 279.3 222.1 279.4C222.2 279.5 222.3 279.6 222.4 279.7C222.5 279.8 222.5 280 222.5 280.2C222.5 280.4 222.5 280.6 222.4 280.7C222.3 280.8 222.2 281 222.1 281C222 281.1 221.8 281.2 221.6 281.2C221.4 281.2 221.2 281.3 221 281.3C220.9 281.3 220.8 281.3 220.7 281.3C220.6 281.3 220.5 281.3 220.4 281.3C220.3 281.3 220.2 281.3 220.2 281.2C220.1 281.2 220.1 281.1 220 281.1V280.7C220.1 280.7 220.1 280.8 220.2 280.8C220.3 280.8 220.4 280.9 220.5 280.9C220.6 280.9 220.7 280.9 220.8 280.9C220.9 280.9 221 280.9 221.1 280.9C221.2 280.9 221.3 280.9 221.5 280.9C221.6 280.9 221.7 280.8 221.8 280.8C221.9 280.7 222 280.7 222 280.6C222.1 280.5 222.1 280.4 222.1 280.3C222.1 280.2 222.1 280.1 222 280C222 279.9 221.9 279.9 221.8 279.8C221.7 279.8 221.6 279.7 221.5 279.7C221.4 279.7 221.3 279.6 221.2 279.6C221.1 279.6 220.9 279.5 220.8 279.5C220.7 279.5 220.5 279.4 220.4 279.3C220.3 279.2 220.2 279.1 220.1 279C220 278.9 220 278.7 220 278.6C220 278.4 220 278.3 220.1 278.1C220.2 278 220.3 277.9 220.4 277.8C220.5 277.7 220.6 277.6 220.8 277.6C220.9 277.6 221.1 277.5 221.3 277.5C221.5 277.5 221.7 277.5 221.8 277.6C222 277.6 222.1 277.7 222.3 277.7V278C222.1 277.9 222 277.9 221.8 277.8C221.6 277.8 221.5 277.7 221.3 277.7C221.2 277.7 221 277.7 220.9 277.7C220.8 277.7 220.7 277.8 220.6 277.8C220.5 277.9 220.5 277.9 220.4 278C220.5 278.2 220.4 278.3 220.4 278.4Z" fill="white"/>
<path d="M223.2 280.5H223.7L223.2 282.2H222.7L223.2 280.5Z" fill="white"/>
<path d="M122.2 287.3V287.7L120 286.5V286.2L122.2 285.1V285.5L120.4 286.4L122.2 287.3Z" fill="white"/>
<path d="M123 287.8V283.8H123.4V287.8H123Z" fill="white"/>
<path d="M124.3 284.6V284.1H124.7V284.6H124.3ZM124.3 287.8V285.2H124.7V287.8H124.3Z" fill="white"/>
<path d="M127.3 286.4L125.5 285.5V285.1L127.7 286.2V286.6L125.5 287.7V287.3L127.3 286.4Z" fill="white"/>
<path d="M128.8 285.1C128.8 285.2 128.8 285.3 128.9 285.4C128.9 285.5 129 285.5 129.1 285.6C129.2 285.6 129.3 285.7 129.4 285.7C129.5 285.7 129.6 285.8 129.7 285.8C129.8 285.8 130 285.9 130.1 285.9C130.2 285.9 130.4 286 130.5 286.1C130.6 286.2 130.7 286.3 130.8 286.4C130.9 286.5 130.9 286.7 130.9 286.9C130.9 287.1 130.9 287.3 130.8 287.4C130.7 287.5 130.6 287.7 130.5 287.7C130.4 287.8 130.2 287.9 130.1 287.9C129.9 287.9 129.7 288 129.5 288C129.4 288 129.3 288 129.2 288C129.1 288 129 288 128.9 288C128.8 288 128.7 288 128.7 287.9C128.6 287.9 128.6 287.8 128.5 287.8V287.4C128.6 287.4 128.6 287.5 128.7 287.5C128.8 287.5 128.9 287.6 129 287.6C129.1 287.6 129.2 287.6 129.3 287.6C129.4 287.6 129.5 287.6 129.6 287.6C129.7 287.6 129.8 287.6 130 287.6C130.1 287.6 130.2 287.5 130.3 287.5C130.4 287.4 130.5 287.4 130.5 287.3C130.6 287.2 130.6 287.1 130.6 287C130.6 286.9 130.6 286.8 130.5 286.7C130.5 286.6 130.4 286.6 130.3 286.5C130.2 286.5 130.1 286.4 130 286.4C129.9 286.4 129.8 286.3 129.7 286.3C129.6 286.3 129.4 286.2 129.3 286.2C129 286 128.8 286 128.7 285.9C128.6 285.8 128.5 285.7 128.4 285.6C128.3 285.5 128.3 285.3 128.3 285.2C128.3 285 128.3 284.9 128.4 284.7C128.5 284.6 128.6 284.5 128.7 284.4C128.8 284.3 128.9 284.2 129.1 284.2C129.2 284.2 129.4 284.1 129.6 284.1C129.8 284.1 130 284.1 130.1 284.2C130.3 284.2 130.4 284.3 130.6 284.3V284.7C130.4 284.6 130.3 284.6 130.1 284.5C129.9 284.5 129.8 284.4 129.6 284.4C129.5 284.4 129.3 284.4 129.2 284.4C129.1 284.4 129 284.5 128.9 284.5C128.8 284.6 128.8 284.6 128.7 284.7C128.9 285 128.8 285 128.8 285.1Z" fill="white"/>
<path d="M132 287.4H133.9V287.8H131.6V284.1H133.8V284.5H132V285.7H133.6V286.1H132V287.4Z" fill="white"/>
<path d="M137.6 286C137.6 286.2 137.6 286.4 137.5 286.6C137.4 286.8 137.4 287 137.3 287.1C137.2 287.2 137.1 287.4 136.9 287.5C136.7 287.6 136.6 287.7 136.3 287.8C136.2 287.8 136 287.9 135.9 287.9C135.8 287.9 135.6 287.9 135.4 287.9H134.6V284.2H135.4C135.6 284.2 135.7 284.2 135.9 284.2C136 284.2 136.2 284.2 136.3 284.3C136.5 284.4 136.7 284.4 136.9 284.6C137.1 284.7 137.2 284.8 137.3 285C137.4 285.1 137.5 285.3 137.5 285.5C137.6 285.6 137.6 285.8 137.6 286ZM137.2 286C137.2 285.6 137.1 285.4 137 285.1C136.8 284.9 136.6 284.7 136.3 284.6C136.2 284.6 136.1 284.5 135.9 284.5C135.8 284.5 135.6 284.5 135.4 284.5H135.1V287.4H135.4C135.6 287.4 135.7 287.4 135.9 287.4C136 287.4 136.2 287.4 136.3 287.3C136.6 287.2 136.8 287.1 137 286.8C137.1 286.6 137.2 286.3 137.2 286Z" fill="white"/>
<path d="M140 286.3V287.8H139.6V284.1H140.5C140.7 284.1 140.8 284.1 140.9 284.1C141 284.1 141.1 284.1 141.2 284.2C141.5 284.3 141.6 284.4 141.8 284.6C141.9 284.8 142 285 142 285.2C142 285.3 142 285.5 141.9 285.6C141.9 285.7 141.8 285.8 141.7 285.9C141.6 286 141.5 286.1 141.4 286.1C141.3 286.2 141.1 286.2 141 286.2L142.1 287.8H141.7L140.6 286.3H140ZM140 284.6V285.9H140.4C140.5 285.9 140.7 285.9 140.7 285.9C140.8 285.9 140.9 285.9 141 285.9C141.2 285.9 141.3 285.8 141.4 285.7C141.5 285.6 141.5 285.5 141.5 285.3C141.5 285.1 141.5 285 141.4 284.9C141.3 284.8 141.2 284.7 141.1 284.7C141 284.7 141 284.7 140.9 284.7C140.8 284.7 140.7 284.7 140.6 284.7H140V284.6Z" fill="white"/>
<path d="M143.3 287.4H145.2V287.8H142.9V284.1H145.1V284.5H143.3V285.7H144.9V286.1H143.3V287.4Z" fill="white"/>
<path d="M146.3 285.1C146.3 285.2 146.3 285.3 146.4 285.4C146.4 285.5 146.5 285.5 146.6 285.6C146.7 285.6 146.8 285.7 146.9 285.7C147 285.7 147.1 285.8 147.2 285.8C147.3 285.8 147.5 285.9 147.6 285.9C147.7 285.9 147.9 286 148 286.1C148.1 286.2 148.2 286.3 148.3 286.4C148.4 286.5 148.4 286.7 148.4 286.9C148.4 287.1 148.4 287.3 148.3 287.4C148.2 287.5 148.1 287.7 148 287.7C147.9 287.8 147.7 287.9 147.6 287.9C147.4 287.9 147.2 288 147 288C146.9 288 146.8 288 146.7 288C146.6 288 146.5 288 146.4 288C146.3 288 146.2 288 146.2 287.9C146.1 287.9 146.1 287.8 146 287.8V287.4C146.1 287.4 146.1 287.5 146.2 287.5C146.3 287.5 146.4 287.6 146.5 287.6C146.6 287.6 146.7 287.6 146.8 287.6C146.9 287.6 147 287.6 147.1 287.6C147.2 287.6 147.4 287.6 147.5 287.6C147.6 287.6 147.7 287.5 147.8 287.5C147.9 287.4 148 287.4 148 287.3C148.1 287.2 148.1 287.1 148.1 287C148.1 286.9 148.1 286.8 148 286.7C148 286.6 147.9 286.6 147.8 286.5C147.7 286.5 147.6 286.4 147.5 286.4C147.4 286.4 147.3 286.3 147.2 286.3C147.1 286.3 146.9 286.2 146.8 286.2C146.7 286.2 146.5 286.1 146.4 286C146.3 285.9 146.2 285.8 146.1 285.7C146 285.6 146 285.4 146 285.3C146 285.1 146 285 146.1 284.8C146.2 284.7 146.3 284.6 146.4 284.5C146.5 284.4 146.6 284.3 146.8 284.3C146.9 284.3 147.1 284.2 147.3 284.2C147.5 284.2 147.7 284.2 147.8 284.3C148 284.3 148.1 284.4 148.3 284.4V284.8C148.1 284.7 148 284.7 147.8 284.6C147.6 284.6 147.5 284.5 147.3 284.5C147.2 284.5 147 284.5 146.9 284.5C146.8 284.5 146.7 284.6 146.6 284.6C146.5 284.7 146.5 284.7 146.4 284.8C146.3 285 146.3 285 146.3 285.1Z" fill="white"/>
<path d="M149 287.8V284.1H149.4V287.8H149Z" fill="white"/>
<path d="M153.4 286C153.4 286.2 153.4 286.4 153.3 286.6C153.2 286.8 153.2 287 153.1 287.1C153 287.2 152.9 287.4 152.7 287.5C152.5 287.6 152.4 287.7 152.1 287.8C152 287.8 151.8 287.9 151.7 287.9C151.6 287.9 151.4 287.9 151.2 287.9H150.4V284.2H151.2C151.4 284.2 151.5 284.2 151.7 284.2C151.8 284.2 152 284.2 152.1 284.3C152.3 284.4 152.5 284.4 152.7 284.6C152.9 284.7 153 284.8 153.1 285C153.2 285.1 153.3 285.3 153.3 285.5C153.3 285.6 153.4 285.8 153.4 286ZM152.9 286C152.9 285.6 152.8 285.4 152.7 285.1C152.5 284.9 152.3 284.7 152 284.6C151.9 284.6 151.8 284.5 151.6 284.5C151.5 284.5 151.3 284.5 151.1 284.5H150.8V287.4H151.1C151.3 287.4 151.4 287.4 151.6 287.4C151.7 287.4 151.9 287.4 152 287.3C152.3 287.2 152.5 287.1 152.7 286.8C152.8 286.6 152.9 286.3 152.9 286Z" fill="white"/>
<path d="M153.8 287.8L155.3 284.1H155.7L157.2 287.8H156.7L156.3 286.7H154.8L154.4 287.8H153.8ZM155.5 284.7C155.3 285.2 155.2 285.6 155 285.9L154.9 286.2H156.1L155.9 286C155.8 285.6 155.6 285.2 155.5 284.7Z" fill="white"/>
<path d="M159.6 287.8H159.4L158.5 285.6C158.4 285.3 158.2 285 158.1 284.6C158.1 285.1 158.1 285.6 158.1 286V287.8H157.7V284.1H158.3L159.2 286.2C159.3 286.4 159.4 286.7 159.5 287.1C159.6 286.7 159.7 286.4 159.8 286.2L160.7 284.1H161.3V287.8H160.9V286C160.9 285.6 160.9 285.1 160.9 284.6C160.8 285 160.6 285.3 160.5 285.6L159.6 287.8Z" fill="white"/>
<path d="M163.7 287.5C163.8 287.5 164 287.5 164.1 287.5C164.2 287.5 164.3 287.4 164.4 287.4C164.5 287.3 164.5 287.3 164.6 287.2C164.6 287.1 164.7 287 164.7 286.9C164.7 286.8 164.7 286.8 164.7 286.7C164.7 286.6 164.7 286.6 164.7 286.5V284.2H165.1V286.5C165.1 286.6 165.1 286.7 165.1 286.8C165.1 286.9 165.1 287 165.1 287.1C165.1 287.2 165 287.4 164.9 287.5C164.8 287.6 164.7 287.7 164.6 287.8C164.5 287.9 164.4 288 164.2 288C164 288 163.9 288.1 163.7 288.1C163.5 288.1 163.3 288.1 163.2 288C163 288 162.9 287.9 162.8 287.8C162.7 287.7 162.6 287.6 162.5 287.5C162.4 287.4 162.4 287.3 162.3 287.2C162.3 287.1 162.3 287 162.2 286.9C162.2 286.8 162.2 286.7 162.2 286.6V284.3H162.6V286.6C162.6 286.7 162.6 286.8 162.6 286.9C162.6 287 162.6 287.1 162.7 287.1C162.8 287.3 162.9 287.4 163 287.5C163.3 287.4 163.5 287.5 163.7 287.5Z" fill="white"/>
<path d="M166.4 285.1C166.4 285.2 166.4 285.3 166.5 285.4C166.5 285.5 166.6 285.5 166.7 285.6C166.8 285.6 166.9 285.7 167 285.7C167.1 285.7 167.2 285.8 167.3 285.8C167.4 285.8 167.6 285.9 167.7 285.9C167.8 285.9 168 286 168.1 286.1C168.2 286.2 168.3 286.3 168.4 286.4C168.5 286.5 168.5 286.7 168.5 286.9C168.5 287.1 168.5 287.3 168.4 287.4C168.3 287.5 168.2 287.7 168.1 287.7C168 287.8 167.8 287.9 167.7 287.9C167.5 287.9 167.3 288 167.1 288C167 288 166.9 288 166.8 288C166.7 288 166.6 288 166.5 288C166.4 288 166.3 288 166.3 287.9C166.2 287.9 166.2 287.8 166.1 287.8V287.4C166.2 287.4 166.2 287.5 166.3 287.5C166.4 287.5 166.5 287.6 166.6 287.6C166.7 287.6 166.8 287.6 166.9 287.6C167 287.6 167.1 287.6 167.2 287.6C167.3 287.6 167.4 287.6 167.6 287.6C167.7 287.6 167.8 287.5 167.9 287.5C168 287.4 168.1 287.4 168.1 287.3C168.2 287.2 168.2 287.1 168.2 287C168.2 286.9 168.2 286.8 168.1 286.7C168.1 286.6 168 286.6 167.9 286.5C167.8 286.5 167.7 286.4 167.6 286.4C167.5 286.4 167.4 286.3 167.3 286.3C167.2 286.3 167 286.2 166.9 286.2C166.8 286.2 166.6 286.1 166.5 286C166.4 285.9 166.3 285.8 166.2 285.7C166.1 285.6 166.1 285.4 166.1 285.3C166.1 285.1 166.1 285 166.2 284.8C166.3 284.7 166.4 284.6 166.5 284.5C166.6 284.4 166.7 284.3 166.9 284.3C167 284.3 167.2 284.2 167.4 284.2C167.6 284.2 167.8 284.2 167.9 284.3C168.1 284.3 168.2 284.4 168.4 284.4V284.8C168.2 284.7 168.1 284.7 167.9 284.6C167.7 284.6 167.6 284.5 167.4 284.5C167.3 284.5 167.1 284.5 167 284.5C166.9 284.5 166.8 284.6 166.7 284.6C166.6 284.7 166.6 284.7 166.5 284.8C166.4 285 166.4 285 166.4 285.1Z" fill="white"/>
<path d="M169.2 287.2H169.7L169.2 288.9H168.7L169.2 287.2Z" fill="white"/>
<path d="M171.7 287.8V284.1H172.1V287.8H171.7Z" fill="white"/>
<path d="M175 286.2C175.2 286.5 175.4 286.9 175.7 287.2C175.7 286.8 175.7 286.5 175.7 286.1V284.2H176.1V287.9H175.7L174.3 285.9C174.1 285.5 173.8 285.2 173.6 284.9C173.6 285.2 173.6 285.6 173.6 286.1V288H173.2V284.3H173.6L175 286.2Z" fill="white"/>
<path d="M180.3 286C180.3 286.2 180.3 286.3 180.2 286.5C180.2 286.7 180.1 286.8 180 286.9C180 287 180 287.1 179.9 287.2C179.8 287.3 179.7 287.4 179.6 287.5C179.7 287.5 179.9 287.5 180 287.4C180.1 287.4 180.3 287.4 180.4 287.4V287.8C180.3 287.8 180.2 287.8 180.1 287.8C180 287.8 179.9 287.8 179.8 287.8C179.7 287.8 179.6 287.8 179.5 287.8C179.4 287.8 179.3 287.8 179.2 287.8C179.1 287.8 179 287.8 178.9 287.8C178.8 287.8 178.7 287.8 178.6 287.8C178.3 287.8 178.1 287.8 177.9 287.7C177.7 287.6 177.5 287.5 177.4 287.3C177.3 287.1 177.1 286.9 177.1 286.7C177 286.5 177 286.2 177 285.9C177 285.6 177 285.4 177.1 285.1C177.2 284.9 177.3 284.7 177.4 284.5C177.5 284.3 177.7 284.2 177.9 284.1C178.1 284 178.3 284 178.6 284C178.9 284 179.1 284 179.3 284.1C179.5 284.2 179.7 284.3 179.8 284.5C179.9 284.7 180.1 284.9 180.1 285.1C180.3 285.4 180.3 285.7 180.3 286ZM179.8 286C179.8 285.8 179.8 285.5 179.7 285.3C179.6 285.1 179.5 285 179.4 284.8C179.3 284.7 179.2 284.6 179 284.5C178.8 284.4 178.7 284.4 178.5 284.4C178.3 284.4 178.2 284.4 178 284.5C177.8 284.6 177.7 284.7 177.6 284.8C177.5 284.9 177.4 285.1 177.3 285.3C177.2 285.5 177.2 285.7 177.2 286C177.2 286.2 177.2 286.5 177.3 286.6C177.4 286.8 177.5 286.9 177.6 287.1C177.7 287.2 177.8 287.3 178 287.4C178.2 287.5 178.3 287.5 178.5 287.5C178.7 287.5 178.8 287.5 179 287.4C179.1 287.3 179.3 287.2 179.4 287.1C179.5 287 179.6 286.8 179.7 286.6C179.8 286.5 179.8 286.2 179.8 286Z" fill="white"/>
<path d="M182.6 287.5C182.7 287.5 182.9 287.5 183 287.5C183.1 287.5 183.2 287.4 183.3 287.4C183.4 287.3 183.4 287.3 183.5 287.2C183.5 287.1 183.6 287 183.6 286.9C183.6 286.8 183.6 286.8 183.6 286.7C183.6 286.6 183.6 286.6 183.6 286.5V284.2H184V286.5C184 286.6 184 286.7 184 286.8C184 286.9 184 287 184 287.1C184 287.2 183.9 287.4 183.8 287.5C183.7 287.6 183.6 287.7 183.5 287.8C183.4 287.9 183.3 288 183.1 288C182.9 288 182.8 288.1 182.6 288.1C182.4 288.1 182.2 288.1 182.1 288C181.9 288 181.8 287.9 181.7 287.8C181.6 287.7 181.5 287.6 181.4 287.5C181.3 287.4 181.3 287.3 181.2 287.2C181.2 287.1 181.2 287 181.1 286.9C181.1 286.8 181.1 286.7 181.1 286.6V284.3H181.5V286.6C181.5 286.7 181.5 286.8 181.5 286.9C181.5 287 181.5 287.1 181.6 287.1C181.7 287.3 181.8 287.4 181.9 287.5C182.1 287.4 182.3 287.5 182.6 287.5Z" fill="white"/>
<path d="M184.9 287.8V284.1H185.3V287.8H184.9Z" fill="white"/>
<path d="M187.6 287.8H187.2V284.5H186V284.1H188.9V284.5H187.7V287.8H187.6Z" fill="white"/>
<path d="M189.1 287.2H189.6L189.1 288.9H188.6L189.1 287.2Z" fill="white"/>
<path d="M191.9 285.1C191.9 285.2 191.9 285.3 192 285.4C192 285.5 192.1 285.5 192.2 285.6C192.3 285.6 192.4 285.7 192.5 285.7C192.6 285.7 192.7 285.8 192.8 285.8C192.9 285.8 193.1 285.9 193.2 285.9C193.3 285.9 193.5 286 193.6 286.1C193.7 286.2 193.8 286.3 193.9 286.4C194 286.5 194 286.7 194 286.9C194 287.1 194 287.3 193.9 287.4C193.8 287.5 193.7 287.7 193.6 287.7C193.5 287.8 193.3 287.9 193.1 287.9C192.9 287.9 192.7 288 192.5 288C192.4 288 192.3 288 192.2 288C192.1 288 192 288 191.9 288C191.8 288 191.7 288 191.7 287.9C191.6 287.9 191.6 287.8 191.5 287.8V287.4C191.6 287.4 191.6 287.5 191.7 287.5C191.8 287.5 191.9 287.6 192 287.6C192.1 287.6 192.2 287.6 192.3 287.6C192.4 287.6 192.5 287.6 192.6 287.6C192.7 287.6 192.8 287.6 193 287.6C193.1 287.6 193.2 287.5 193.3 287.5C193.4 287.4 193.5 287.4 193.5 287.3C193.6 287.2 193.6 287.1 193.6 287C193.6 286.9 193.6 286.8 193.5 286.7C193.5 286.6 193.4 286.6 193.3 286.5C193.2 286.5 193.1 286.4 193 286.4C192.9 286.4 192.8 286.3 192.7 286.3C192.6 286.3 192.4 286.2 192.3 286.2C192.2 286.2 192 286.1 191.9 286C191.8 285.9 191.7 285.8 191.6 285.7C191.5 285.6 191.5 285.4 191.5 285.3C191.5 285.1 191.5 285 191.6 284.8C191.7 284.7 191.8 284.6 191.9 284.5C192 284.4 192.2 284.3 192.3 284.3C192.4 284.3 192.6 284.2 192.8 284.2C193 284.2 193.2 284.2 193.3 284.3C193.5 284.3 193.6 284.4 193.8 284.4V284.8C193.6 284.7 193.5 284.7 193.3 284.6C193.1 284.6 193 284.5 192.8 284.5C192.7 284.5 192.5 284.5 192.4 284.5C192.3 284.5 192.2 284.6 192.1 284.6C192 284.7 192 284.7 191.9 284.8C191.9 285 191.9 285 191.9 285.1Z" fill="white"/>
<path d="M194.6 287.8V284.1H195V287.8H194.6Z" fill="white"/>
<path d="M197.6 287.8H197.2V284.1H198.2C198.4 284.1 198.5 284.1 198.6 284.1C198.7 284.1 198.8 284.1 199 284.2C199.2 284.3 199.4 284.4 199.5 284.6C199.6 284.8 199.7 284.9 199.7 285.2C199.7 285.4 199.7 285.5 199.6 285.7C199.5 285.8 199.4 286 199.3 286.1C199.2 286.2 199 286.3 198.8 286.3C198.6 286.3 198.4 286.4 198.1 286.4C198 286.4 197.9 286.4 197.7 286.4V287.8H197.6ZM197.6 285.9C197.7 285.9 197.7 285.9 197.8 285.9C197.9 285.9 197.9 285.9 198 285.9C198.2 285.9 198.4 285.9 198.5 285.8C198.6 285.8 198.8 285.7 198.9 285.7C199 285.6 199.1 285.6 199.1 285.5C199.1 285.4 199.2 285.3 199.2 285.2C199.2 285.1 199.2 284.9 199.1 284.9C199 284.8 198.9 284.7 198.8 284.7C198.7 284.7 198.6 284.7 198.5 284.6C198.4 284.6 198.3 284.6 198.1 284.6H197.6V285.9Z" fill="white"/>
<path d="M200.7 284.2V287.5H202.5V287.9H200.3V284.2H200.7Z" fill="white"/>
<path d="M202.8 287.8L204.3 284.1H204.7L206.2 287.8H205.7L205.3 286.7H203.8L203.4 287.8H202.8ZM204.5 284.7C204.3 285.2 204.2 285.6 204 285.9L203.9 286.2H205.1L205 286C204.8 285.6 204.7 285.2 204.5 284.7Z" fill="white"/>
<path d="M208.5 284.5C208.3 284.5 208.1 284.5 207.9 284.6C207.7 284.7 207.6 284.8 207.4 284.9C207.3 285 207.2 285.2 207.1 285.4C207.1 285.6 207 285.8 207 286C207 286.3 207 286.5 207.1 286.7C207.2 286.9 207.3 287 207.4 287.2C207.5 287.3 207.7 287.4 207.9 287.5C208.1 287.6 208.3 287.6 208.5 287.6C208.6 287.6 208.6 287.6 208.7 287.6C208.8 287.6 208.8 287.6 208.9 287.6C209 287.6 209 287.6 209.1 287.6C209.2 287.6 209.2 287.6 209.3 287.6V288C209.2 288 209.1 288.1 208.9 288.1C208.8 288.1 208.6 288.1 208.5 288.1C208.2 288.1 207.9 288.1 207.7 288C207.5 287.9 207.3 287.8 207.1 287.6C206.9 287.4 206.8 287.2 206.7 287C206.6 286.8 206.6 286.5 206.6 286.2C206.6 285.9 206.6 285.7 206.7 285.4C206.8 285.2 206.9 285 207.1 284.8C207.3 284.6 207.5 284.5 207.7 284.4C207.9 284.3 208.2 284.3 208.5 284.3C208.6 284.3 208.7 284.3 208.7 284.3C208.8 284.3 208.8 284.3 208.9 284.3C209 284.3 209 284.3 209.1 284.3C209.2 284.3 209.2 284.3 209.3 284.4V284.8C209.2 284.8 209.1 284.7 208.9 284.7C208.8 284.5 208.6 284.5 208.5 284.5Z" fill="white"/>
<path d="M210.5 287.4H212.4V287.8H210V284.1H212.2V284.5H210.4V285.7H212V286.1H210.4V287.4H210.5Z" fill="white"/>
<path d="M214.4 287.8H214V284.5H212.8V284.1H215.7V284.5H214.5V287.8H214.4Z" fill="white"/>
<path d="M215.8 287.8V287.3H216.3V287.8H215.8Z" fill="white"/>
<path d="M219.3 287.3V287.7L217.1 286.6V286.3L219.3 285.2V285.6L217.5 286.5L219.3 287.3Z" fill="white"/>
<path d="M219.7 288.5L220.7 284.2H221.1L220.1 288.5H219.7Z" fill="white"/>
<path d="M221.6 287.8V283.8H222V287.8H221.6Z" fill="white"/>
<path d="M222.9 284.6V284.1H223.3V284.6H222.9ZM222.9 287.8V285.2H223.3V287.8H222.9Z" fill="white"/>
<path d="M225.9 286.4L224.1 285.5V285.1L226.3 286.2V286.6L224.1 287.7V287.3L225.9 286.4Z" fill="white"/>
<path d="M122.2 294V294.4L120 293.3V293L122.2 291.9V292.3L120.4 293.2L122.2 294Z" fill="white"/>
<path d="M123 294.5V290.5H123.4V294.5H123Z" fill="white"/>
<path d="M124.3 291.3V290.8H124.7V291.3H124.3ZM124.3 294.5V291.9H124.7V294.5H124.3Z" fill="white"/>
<path d="M127.3 293.1L125.5 292.2V291.8L127.7 292.9V293.3L125.5 294.4V294L127.3 293.1Z" fill="white"/>
<path d="M128.9 294.1H130.8V294.5H128.5V290.8H130.7V291.2H128.9V292.4H130.5V292.8H128.9V294.1Z" fill="white"/>
<path d="M132.9 294.5H132.5V291.2H131.3V290.8H134.2V291.2H133V294.5H132.9Z" fill="white"/>
<path d="M136.2 292.5H138.1V290.9H138.5V294.6H138.1V292.9H136.2V294.6H135.8V290.9H136.2V292.5Z" fill="white"/>
<path d="M140 294.1H141.9V294.5H139.6V290.8H141.8V291.2H140V292.4H141.6V292.8H140V294.1Z" fill="white"/>
<path d="M143.1 293V294.5H142.7V290.8H143.6C143.8 290.8 143.9 290.8 144 290.8C144.1 290.8 144.2 290.8 144.3 290.9C144.6 291 144.7 291.1 144.9 291.3C145 291.5 145.1 291.7 145.1 291.9C145.1 292 145.1 292.2 145 292.3C145 292.4 144.9 292.5 144.8 292.6C144.7 292.7 144.6 292.8 144.5 292.8C144.4 292.9 144.2 292.9 144.1 292.9L145.2 294.5H144.8L143.6 293H143.1ZM143.1 291.3V292.6H143.5C143.6 292.6 143.8 292.6 143.9 292.6C144 292.6 144.1 292.6 144.2 292.6C144.4 292.6 144.5 292.5 144.6 292.4C144.7 292.3 144.7 292.2 144.7 292C144.7 291.8 144.7 291.7 144.6 291.6C144.5 291.5 144.4 291.4 144.3 291.4C144.2 291.4 144.2 291.4 144.1 291.4C144 291.4 143.9 291.4 143.8 291.4H143.1V291.3Z" fill="white"/>
<path d="M147.7 291.2C147.5 291.2 147.3 291.2 147.1 291.3C146.9 291.4 146.8 291.5 146.6 291.6C146.5 291.7 146.4 291.9 146.3 292.1C146.2 292.3 146.2 292.5 146.2 292.8C146.2 293.1 146.2 293.3 146.3 293.5C146.4 293.7 146.5 293.8 146.6 294C146.7 294.1 146.9 294.2 147.1 294.3C147.3 294.4 147.5 294.4 147.7 294.4C147.8 294.4 147.8 294.4 147.9 294.4C148 294.4 148 294.4 148.1 294.4C148.2 294.4 148.2 294.4 148.3 294.4C148.4 294.4 148.4 294.4 148.5 294.4V294.8C148.4 294.8 148.3 294.9 148.1 294.9C148 294.9 147.8 294.9 147.7 294.9C147.4 294.9 147.1 294.9 146.9 294.8C146.7 294.7 146.5 294.6 146.3 294.4C146.1 294.2 146 294 145.9 293.8C145.8 293.6 145.8 293.3 145.8 293C145.8 292.7 145.8 292.5 145.9 292.2C146 292 146.1 291.8 146.3 291.6C146.5 291.4 146.7 291.3 146.9 291.2C147.1 291.1 147.4 291.1 147.7 291.1C147.8 291.1 147.9 291.1 147.9 291.1C148 291.1 148 291.1 148.1 291.1C148.2 291.1 148.2 291.1 148.3 291.1C148.4 291.1 148.4 291.1 148.5 291.2V291.6C148.4 291.6 148.3 291.5 148.1 291.5C148 291.2 147.8 291.2 147.7 291.2Z" fill="white"/>
<path d="M150.6 294.2C150.7 294.2 150.9 294.2 151 294.2C151.1 294.2 151.2 294.1 151.3 294.1C151.4 294 151.4 294 151.5 293.9C151.5 293.8 151.6 293.7 151.6 293.6C151.6 293.5 151.6 293.5 151.6 293.4C151.6 293.3 151.6 293.3 151.6 293.2V290.9H152V293.2C152 293.3 152 293.4 152 293.5C152 293.6 152 293.7 152 293.8C152 293.9 151.9 294.1 151.8 294.2C151.7 294.3 151.6 294.4 151.5 294.5C151.4 294.6 151.3 294.7 151.1 294.7C150.9 294.7 150.8 294.8 150.6 294.8C150.4 294.8 150.2 294.8 150.1 294.7C149.9 294.7 149.8 294.6 149.7 294.5C149.6 294.4 149.5 294.3 149.4 294.2C149.3 294.1 149.3 294 149.2 293.9C149.2 293.8 149.2 293.7 149.1 293.6C149.1 293.5 149.1 293.4 149.1 293.3V291H149.5V293.3C149.5 293.4 149.5 293.5 149.5 293.6C149.5 293.7 149.5 293.8 149.6 293.8C149.7 294 149.8 294.1 149.9 294.2C150.2 294.2 150.4 294.2 150.6 294.2Z" fill="white"/>
<path d="M153.4 290.9V294.2H155.2V294.6H153V290.9H153.4Z" fill="white"/>
<path d="M156.3 294.1H158.2V294.5H155.9V290.8H158.1V291.2H156.3V292.4H157.9V292.8H156.3V294.1Z" fill="white"/>
<path d="M158.9 293H160.1V293.4H158.9V293Z" fill="white"/>
<path d="M161.3 294.5H160.9V290.8H163V291.2H161.3V292.4H162.8V292.8H161.3V294.5Z" fill="white"/>
<path d="M163 294.5L164.5 290.8H164.9L166.4 294.5H165.9L165.5 293.4H164L163.6 294.5H163ZM164.7 291.5C164.5 292 164.4 292.4 164.2 292.7L164.1 293H165.3L165.2 292.7C165 292.3 164.9 291.9 164.7 291.5Z" fill="white"/>
<path d="M168 294.5H167.6V291.2H166.4V290.8H169.3V291.2H168V294.5Z" fill="white"/>
<path d="M170.2 294.1H172.1V294.5H169.8V290.8H172V291.2H170.2V292.4H171.8V292.8H170.2V294.1Z" fill="white"/>
<path d="M174.7 292.9C174.9 293.2 175.1 293.6 175.4 293.9C175.4 293.5 175.4 293.2 175.4 292.8V290.9H175.8V294.6H175.4L174 292.6C173.8 292.2 173.5 291.9 173.3 291.6C173.3 291.9 173.3 292.3 173.3 292.8V294.7H172.9V291H173.3L174.7 292.9Z" fill="white"/>
<path d="M179.7 292.7C179.7 292.9 179.7 293.1 179.6 293.3C179.5 293.5 179.5 293.7 179.4 293.8C179.3 293.9 179.2 294.1 179 294.2C178.8 294.3 178.7 294.4 178.4 294.5C178.3 294.5 178.1 294.6 178 294.6C177.9 294.6 177.7 294.6 177.5 294.6H176.7V290.9H177.5C177.7 290.9 177.8 290.9 178 290.9C178.1 290.9 178.3 290.9 178.4 291C178.6 291.1 178.8 291.1 179 291.3C179.2 291.4 179.3 291.5 179.4 291.7C179.5 291.8 179.6 292 179.6 292.2C179.7 292.3 179.7 292.5 179.7 292.7ZM179.3 292.7C179.3 292.3 179.2 292.1 179.1 291.8C178.9 291.6 178.7 291.4 178.4 291.3C178.3 291.3 178.2 291.2 178 291.2C177.8 291.2 177.7 291.2 177.5 291.2H177.2V294.1H177.5C177.7 294.1 177.8 294.1 178 294.1C178.1 294.1 178.3 294.1 178.4 294C178.7 293.9 178.9 293.8 179.1 293.5C179.2 293.3 179.3 293.1 179.3 292.7Z" fill="white"/>
<path d="M181.9 294.2C182 294.2 182.2 294.2 182.3 294.2C182.4 294.2 182.5 294.1 182.6 294.1C182.7 294 182.7 294 182.8 293.9C182.8 293.8 182.9 293.7 182.9 293.6C182.9 293.5 182.9 293.5 182.9 293.4C182.9 293.3 182.9 293.3 182.9 293.2V290.9H183.3V293.2C183.3 293.3 183.3 293.4 183.3 293.5C183.3 293.6 183.3 293.7 183.3 293.8C183.3 293.9 183.2 294.1 183.1 294.2C183 294.3 182.9 294.4 182.8 294.5C182.7 294.6 182.6 294.7 182.4 294.7C182.2 294.7 182.1 294.8 181.9 294.8C181.7 294.8 181.5 294.8 181.4 294.7C181.2 294.7 181.1 294.6 181 294.5C180.9 294.4 180.8 294.3 180.7 294.2C180.6 294.1 180.6 294 180.5 293.9C180.5 293.8 180.5 293.7 180.4 293.6C180.4 293.5 180.4 293.4 180.4 293.3V291H180.8V293.3C180.8 293.4 180.8 293.5 180.8 293.6C180.8 293.7 180.8 293.8 180.9 293.8C181 294 181.1 294.1 181.2 294.2C181.5 294.2 181.7 294.2 181.9 294.2Z" fill="white"/>
<path d="M186.2 294.5H186L185.1 292.3C185 292 184.8 291.7 184.7 291.3C184.7 291.8 184.7 292.3 184.7 292.7V294.5H184.3V290.8H184.9L185.8 292.9C185.9 293.1 186 293.4 186.1 293.8C186.2 293.4 186.3 293.1 186.4 292.9L187.3 290.8H187.9V294.5H187.5V292.7C187.5 292.3 187.5 291.8 187.5 291.3C187.4 291.7 187.2 292 187.1 292.3L186.2 294.5Z" fill="white"/>
<path d="M190.4 294.1H192.3V294.5H190V290.8H192.2V291.2H190.4V292.4H192V292.8H190.4V294.1Z" fill="white"/>
<path d="M193.4 291.9C193.4 292 193.4 292.1 193.5 292.2C193.5 292.3 193.6 292.3 193.7 292.4C193.8 292.4 193.9 292.5 194 292.5C194.1 292.5 194.2 292.6 194.3 292.6C194.4 292.6 194.6 292.7 194.7 292.7C194.8 292.7 195 292.8 195.1 292.9C195.2 293 195.3 293.1 195.4 293.2C195.5 293.3 195.5 293.5 195.5 293.7C195.5 293.9 195.5 294.1 195.4 294.2C195.3 294.3 195.2 294.5 195.1 294.5C195 294.6 194.8 294.7 194.6 294.7C194.4 294.7 194.2 294.8 194 294.8C193.9 294.8 193.8 294.8 193.7 294.8C193.6 294.8 193.5 294.8 193.4 294.8C193.3 294.8 193.2 294.8 193.2 294.7C193.1 294.7 193.1 294.6 193 294.6V294C193.1 294 193.1 294.1 193.2 294.1C193.3 294.1 193.4 294.2 193.5 294.2C193.6 294.2 193.7 294.2 193.8 294.2C193.9 294.2 194 294.2 194.1 294.2C194.2 294.2 194.3 294.2 194.5 294.2C194.6 294.2 194.7 294.1 194.8 294.1C194.9 294 195 294 195 293.9C195.1 293.8 195.1 293.7 195.1 293.6C195.1 293.5 195.1 293.4 195 293.3C195 293.2 194.9 293.2 194.8 293.1C194.7 293.1 194.6 293 194.5 293C194.4 293 194.3 292.9 194.2 292.9C194.1 292.9 193.9 292.8 193.8 292.8C193.7 292.8 193.5 292.7 193.4 292.6C193.3 292.5 193.2 292.4 193.1 292.3C193 292.2 193 292 193 291.9C193 291.7 193 291.6 193.1 291.4C193.2 291.3 193.3 291.2 193.4 291.1C193.5 291 193.6 290.9 193.8 290.9C193.9 290.9 194.1 290.8 194.3 290.8C194.5 290.8 194.7 290.8 194.8 290.9C195 290.9 195.1 291 195.3 291V291.4C195.1 291.3 195 291.3 194.8 291.2C194.6 291.2 194.5 291.1 194.3 291.1C194.2 291.1 194 291.1 193.9 291.1C193.8 291.1 193.7 291.2 193.6 291.2C193.5 291.3 193.5 291.3 193.4 291.4C193.4 291.7 193.4 291.8 193.4 291.9Z" fill="white"/>
<path d="M197.5 294.5H197V291.2H195.8V290.8H198.7V291.2H197.5V294.5Z" fill="white"/>
<path d="M200.8 294.1H202.7V294.5H200.4V290.8H202.6V291.2H200.8V292.4H202.4V292.8H200.8V294.1Z" fill="white"/>
<path d="M205.3 292.9C205.5 293.2 205.7 293.6 206 293.9C206 293.5 206 293.2 206 292.8V290.9H206.4V294.6H206L204.6 292.6C204.4 292.2 204.1 291.9 203.9 291.6C203.9 291.9 203.9 292.3 203.9 292.8V294.7H203.5V291H203.9L205.3 292.9Z" fill="white"/>
<path d="M207.4 294.5V290.8H207.8V294.5H207.4Z" fill="white"/>
<path d="M210.7 294.5H210.5L209.6 292.3C209.5 292 209.3 291.7 209.2 291.3C209.2 291.8 209.2 292.3 209.2 292.7V294.5H208.8V290.8H209.4L210.3 292.9C210.4 293.1 210.5 293.4 210.6 293.8C210.7 293.4 210.8 293.1 210.9 292.9L211.8 290.8H212.4V294.5H212V292.7C212 292.3 212 291.8 212 291.3C211.9 291.7 211.7 292 211.6 292.3L210.7 294.5Z" fill="white"/>
<path d="M213.4 293.9H213.9L213.4 295.6H212.9L213.4 293.9Z" fill="white"/>
<path d="M219 292.7C219 292.9 219 293 218.9 293.2C218.9 293.4 218.8 293.5 218.7 293.6C218.6 293.7 218.6 293.8 218.5 294C218.4 294.1 218.3 294.2 218.2 294.3C218.3 294.3 218.5 294.3 218.6 294.2C218.7 294.2 218.9 294.2 219 294.2V294.6C218.9 294.6 218.8 294.6 218.7 294.6C218.6 294.6 218.5 294.6 218.4 294.6C218.3 294.6 218.2 294.6 218.1 294.6C218 294.6 217.9 294.6 217.8 294.6C217.7 294.6 217.6 294.6 217.5 294.6C217.4 294.6 217.3 294.6 217.2 294.6C216.9 294.6 216.7 294.6 216.5 294.5C216.3 294.4 216.1 294.3 216 294.1C215.9 293.9 215.7 293.7 215.7 293.5C215.6 293.3 215.6 293 215.6 292.7C215.6 292.4 215.6 292.2 215.7 291.9C215.8 291.7 215.9 291.5 216 291.3C216.1 291.1 216.3 291 216.5 290.9C216.7 290.8 216.9 290.8 217.2 290.8C217.5 290.8 217.7 290.8 217.9 290.9C218.1 291 218.3 291.1 218.4 291.3C218.5 291.5 218.7 291.7 218.7 291.9C219 292.2 219 292.4 219 292.7ZM218.5 292.7C218.5 292.5 218.5 292.2 218.4 292C218.3 291.8 218.2 291.7 218.1 291.5C218 291.4 217.9 291.3 217.7 291.2C217.5 291.1 217.4 291.1 217.2 291.1C217 291.1 216.9 291.1 216.7 291.2C216.5 291.3 216.4 291.4 216.3 291.5C216.2 291.6 216.1 291.8 216 292C215.9 292.2 215.9 292.4 215.9 292.7C215.9 292.9 215.9 293.2 216 293.3C216.1 293.5 216.2 293.6 216.3 293.8C216.4 293.9 216.5 294 216.7 294.1C216.9 294.2 217 294.2 217.2 294.2C217.4 294.2 217.5 294.2 217.7 294.1C217.8 294 218 293.9 218.1 293.8C218.2 293.7 218.3 293.5 218.4 293.3C218.5 293.2 218.5 293 218.5 292.7Z" fill="white"/>
<path d="M221.3 294.2C221.4 294.2 221.6 294.2 221.7 294.2C221.8 294.2 221.9 294.1 222 294.1C222.1 294 222.1 294 222.2 293.9C222.2 293.8 222.3 293.7 222.3 293.6C222.3 293.5 222.3 293.5 222.3 293.4C222.3 293.3 222.3 293.3 222.3 293.2V290.9H222.7V293.2C222.7 293.3 222.7 293.4 222.7 293.5C222.7 293.6 222.7 293.7 222.7 293.8C222.7 293.9 222.6 294.1 222.5 294.2C222.4 294.3 222.3 294.4 222.2 294.5C222.1 294.6 222 294.7 221.8 294.7C221.6 294.7 221.5 294.8 221.3 294.8C221.1 294.8 220.9 294.8 220.8 294.7C220.6 294.7 220.5 294.6 220.4 294.5C220.3 294.4 220.2 294.3 220.1 294.2C220 294.1 220 294 219.9 293.9C219.9 293.8 219.9 293.7 219.8 293.6C219.8 293.5 219.8 293.4 219.8 293.3V291H220.2V293.3C220.2 293.4 220.2 293.5 220.2 293.6C220.2 293.7 220.2 293.8 220.3 293.8C220.4 294 220.5 294.1 220.6 294.2C220.8 294.2 221 294.2 221.3 294.2Z" fill="white"/>
<path d="M226.9 292.7C226.9 293 226.9 293.2 226.8 293.5C226.7 293.7 226.6 293.9 226.5 294.1C226.4 294.3 226.2 294.4 226 294.5C225.8 294.6 225.6 294.6 225.3 294.6C225 294.6 224.8 294.6 224.6 294.5C224.4 294.4 224.2 294.3 224.1 294.1C224 293.9 223.8 293.7 223.8 293.5C223.7 293.3 223.7 293 223.7 292.7C223.7 292.4 223.7 292.2 223.8 291.9C223.9 291.7 224 291.5 224.1 291.3C224.2 291.1 224.4 291 224.6 290.9C224.8 290.8 225 290.8 225.3 290.8C225.6 290.8 225.8 290.8 226 290.9C226.2 291 226.4 291.1 226.5 291.3C226.6 291.5 226.8 291.7 226.8 291.9C226.8 292.2 226.9 292.4 226.9 292.7ZM226.4 292.7C226.4 292.5 226.4 292.2 226.3 292C226.2 291.8 226.1 291.7 226 291.5C225.9 291.4 225.8 291.3 225.6 291.2C225.4 291.1 225.3 291.1 225.1 291.1C224.9 291.1 224.8 291.1 224.6 291.2C224.4 291.3 224.3 291.4 224.2 291.5C224.1 291.6 224 291.8 223.9 292C223.8 292.2 223.8 292.4 223.8 292.7C223.8 292.9 223.8 293.2 223.9 293.3C224 293.5 224.1 293.6 224.2 293.8C224.3 293.9 224.4 294 224.6 294.1C224.8 294.2 224.9 294.2 225.1 294.2C225.3 294.2 225.4 294.2 225.6 294.1C225.8 294 225.9 293.9 226 293.8C226.1 293.7 226.2 293.5 226.3 293.3C226.4 293.2 226.4 293 226.4 292.7Z" fill="white"/>
</g>
</g>
<defs>
<linearGradient id="paint0_linear" x1="3.76142" y1="62.0337" x2="3.76142" y2="182.757" gradientUnits="userSpaceOnUse">
<stop stop-color="white"/>
<stop offset="1" stop-color="#C3E9FF" stop-opacity="0.29"/>
</linearGradient>
<linearGradient id="paint1_linear" x1="243.686" y1="107.111" x2="243.686" y2="194.221" gradientUnits="userSpaceOnUse">
<stop stop-color="white"/>
<stop offset="1" stop-color="#C3E9FF" stop-opacity="0.29"/>
</linearGradient>
<linearGradient id="paint2_linear" x1="125.888" y1="0" x2="125.888" y2="10.9857" gradientUnits="userSpaceOnUse">
<stop stop-color="white"/>
<stop offset="1" stop-color="#C3E9FF" stop-opacity="0.29"/>
</linearGradient>
<linearGradient id="paint3_linear" x1="123.918" y1="10.1499" x2="123.918" y2="310.467" gradientUnits="userSpaceOnUse">
<stop stop-color="white"/>
<stop offset="1" stop-color="#8CBAFF"/>
</linearGradient>
<linearGradient id="paint4_linear" x1="124" y1="110.5" x2="124" y2="299" gradientUnits="userSpaceOnUse">
<stop stop-color="white"/>
<stop offset="1" stop-color="white" stop-opacity="0.31"/>
</linearGradient>
<linearGradient id="paint5_linear" x1="3.76142" y1="207.774" x2="3.76142" y2="258.583" gradientUnits="userSpaceOnUse">
<stop stop-color="white"/>
<stop offset="1" stop-color="#C3E9FF" stop-opacity="0.29"/>
</linearGradient>
<clipPath id="clip0">
<rect width="247" height="310.407" fill="white"/>
</clipPath>
<clipPath id="clip1">
<rect width="106.9" height="38.6" fill="white" transform="translate(120 257)"/>
</clipPath>
</defs>
</svg>
