<svg width="62" height="63" viewBox="0 0 62 63" fill="none" xmlns="http://www.w3.org/2000/svg">
<circle cx="31" cy="31.292" r="30.25" stroke="white" stroke-width="1.5"/>
<path d="M30.5011 17.4218L30.0331 17.8685C29.723 18.1645 29.723 18.6446 30.0331 18.9407L41.8472 30.2178H16.9681C16.5295 30.2178 16.1738 30.5573 16.1738 30.976V31.6078C16.1738 32.0265 16.5295 32.3659 16.9681 32.3659H41.8472L30.0331 43.6431C29.723 43.9391 29.723 44.4192 30.0331 44.7153L30.5011 45.162C30.8113 45.458 31.3142 45.458 31.6243 45.162L45.5934 31.828C45.9035 31.5319 45.9035 31.0519 45.5934 30.7557L31.6243 17.4218C31.3142 17.1257 30.8113 17.1257 30.5011 17.4218Z" fill="white"/>
</svg>
