<svg width="364" height="105" viewBox="0 0 364 105" fill="none" xmlns="http://www.w3.org/2000/svg">
<path opacity="0.8" d="M25.5482 0C25.5886 0.0210865 25.6424 0.0316297 25.6828 0.0527161C26.9347 0.527161 28.1865 1.01215 29.4384 1.4866C33.9613 3.22623 38.4977 4.96586 43.0206 6.70549C43.2225 6.78984 43.2764 7.05342 43.1283 7.29591C42.9802 7.53841 42.6841 7.67547 42.4822 7.60167C37.8246 5.86203 33.194 4.1224 28.5634 2.38277C28.4288 2.33005 28.2538 2.37223 28.0923 2.49875C22.0752 7.21157 16.0178 14.0858 11.5756 22.7312C7.12 31.345 4.27972 41.7196 4.33357 52.7478C4.33357 63.6178 7.16039 73.8553 11.5621 82.3848C15.9504 90.9459 21.9137 97.7884 27.8769 102.533C28.0385 102.659 28.2269 102.712 28.3615 102.659C31.8345 101.363 35.3074 100.055 38.7804 98.7584C38.9958 98.6846 39.2784 98.8217 39.44 99.0747C39.6015 99.3278 39.5611 99.6019 39.3457 99.6757C35.967 100.972 32.6018 102.269 29.223 103.556C28.0519 104.009 26.8673 104.462 25.6962 104.905C25.6424 104.926 25.602 104.947 25.5482 104.958C25.4136 105.011 25.2386 104.968 25.077 104.842C18.8311 100.045 12.4775 92.9596 7.79306 83.9874C3.05477 75.0783 -0.000886425 64.2715 -0.000886425 52.7689C-0.0681916 41.0237 3.05477 29.9955 7.88728 20.9389C12.6929 11.84 19.208 4.72337 25.5482 0Z" fill="url(#paint0_linear)"/>
<path opacity="0.8" d="M338.464 0C338.424 0.0210865 338.37 0.0316297 338.33 0.0527161C337.078 0.527161 335.826 1.01215 334.574 1.4866C330.051 3.22623 325.515 4.96586 320.992 6.70549C320.79 6.78984 320.736 7.05342 320.884 7.29591C321.032 7.53841 321.328 7.67547 321.53 7.60167C326.161 5.86203 330.805 4.13295 335.435 2.39331C335.57 2.3406 335.745 2.38277 335.907 2.50929C341.924 7.22211 347.981 14.0963 352.423 22.7417C356.879 31.3556 359.719 41.7301 359.665 52.7583C359.665 63.6284 356.839 73.8659 352.437 82.3953C348.048 90.9564 342.085 97.799 336.122 102.543C335.96 102.67 335.772 102.723 335.637 102.67C332.164 101.373 328.692 100.066 325.219 98.769C325.003 98.6952 324.721 98.8322 324.559 99.0853C324.397 99.3383 324.438 99.6124 324.653 99.6862C328.032 100.983 331.397 102.28 334.776 103.566C335.947 104.019 337.132 104.473 338.303 104.916C338.357 104.937 338.397 104.958 338.451 104.968C338.585 105.021 338.76 104.979 338.922 104.852C345.168 100.055 351.521 92.9702 356.206 83.9979C360.917 75.0678 363.973 64.2504 363.973 52.7583C364.04 41.0132 360.917 29.9849 356.085 20.9283C351.306 11.84 344.804 4.72337 338.464 0Z" fill="url(#paint1_linear)"/>
<defs>
<linearGradient id="paint0_linear" x1="21.6053" y1="0" x2="21.6053" y2="104.98" gradientUnits="userSpaceOnUse">
<stop stop-color="#1673FF"/>
<stop offset="1" stop-color="#83D2FF" stop-opacity="0.29"/>
</linearGradient>
<linearGradient id="paint1_linear" x1="342.387" y1="0" x2="342.387" y2="104.991" gradientUnits="userSpaceOnUse">
<stop stop-color="#1673FF"/>
<stop offset="1" stop-color="#83D2FF" stop-opacity="0.29"/>
</linearGradient>
</defs>
</svg>
