<svg width="711" height="381" viewBox="0 0 711 381" fill="none" xmlns="http://www.w3.org/2000/svg">
<g filter="url(#filter0_d)">
<g opacity="0.85">
<g opacity="0.85">
<path opacity="0.1" d="M52.8016 21.3542L49.0646 28.7961V99.8322L53.3355 107.274H58.1403H113.662L119.535 106.598L122.738 99.1557V28.7961L119.001 21.3542H113.662H52.8016Z" fill="#FFF7FF"/>
<path opacity="0.85" d="M58.1434 20H51.737L47.9999 28.1184L50.1354 30.148L53.3386 22.7061H58.1434V20Z" fill="#FFF7FF"/>
<path opacity="0.85" d="M58.1434 108.624H51.7371L48 100.505L50.1355 98.4758L53.3386 105.918H58.1434V108.624Z" fill="#FFF7FF"/>
<path opacity="0.85" d="M113.669 20H120.075L123.812 28.1184L121.677 30.148L118.473 22.7061H113.669V20Z" fill="#FFF7FF"/>
<path opacity="0.85" d="M113.669 107.947H120.075L123.812 99.8288L121.677 98.4758L118.473 105.241H113.669V107.947Z" fill="#FFF7FF"/>
</g>
</g>
<g opacity="0.85">
<g opacity="0.85">
<path opacity="0.1" d="M137.061 22.0307L133.324 28.7961V99.8322L137.595 107.274H142.4H198.455L203.794 106.598L207.531 99.1557V29.4726L203.794 22.0307L198.455 21.3542L137.061 22.0307Z" fill="#FFF7FF"/>
<path opacity="0.85" d="M142.402 20H136.529L132.792 28.795L134.394 30.148L137.597 22.7061H142.402V20Z" fill="#FFF7FF"/>
<path opacity="0.85" d="M142.401 108.624H136.529L132.792 100.505L134.393 98.4758L137.597 105.918H142.401V108.624Z" fill="#FFF7FF"/>
<path opacity="0.85" d="M198.46 20H204.333L208.07 28.795L206.468 30.148L203.265 22.7061H198.46V20Z" fill="#FFF7FF"/>
<path opacity="0.85" d="M198.46 107.947H204.333L208.07 99.8288L206.468 98.4758L203.265 105.241H198.46V107.947Z" fill="#FFF7FF"/>
</g>
</g>
<g opacity="0.85">
<path opacity="0.1" d="M307.281 22.0307L303.544 28.7961L304.078 99.8322L307.815 107.274H312.62H368.676L374.014 106.598L377.751 99.1557V29.4726L374.014 22.0307L368.676 21.3542L307.281 22.0307Z" fill="#FFF7FF"/>
<path opacity="0.85" d="M312.622 20H306.749L303.012 28.795L304.614 30.148L308.351 22.7061H312.622V20Z" fill="#FFF7FF"/>
<path opacity="0.85" d="M312.622 108.624H306.749L303.012 100.505L304.614 98.4758L308.351 105.918H312.622V108.624Z" fill="#FFF7FF"/>
<path opacity="0.85" d="M368.681 20H374.553L378.824 28.795L376.689 30.148L373.485 22.7061H368.681V20Z" fill="#FFF7FF"/>
<path opacity="0.85" d="M368.681 107.947H374.553L378.824 99.8288L376.689 98.4758L373.485 105.241H368.681V107.947Z" fill="#FFF7FF"/>
</g>
<g opacity="0.85">
<g opacity="0.85">
<path opacity="0.1" d="M477.501 22.0307L473.764 28.7961V99.8322L478.035 107.274H482.84H538.896L544.234 106.598L547.971 99.1557V29.4726L544.234 22.0307L538.896 21.3542L477.501 22.0307Z" fill="#FFF7FF"/>
<path opacity="0.85" d="M482.842 20H476.97L473.233 28.795L474.834 30.148L478.037 22.7061H482.842V20Z" fill="#FFF7FF"/>
<path opacity="0.85" d="M482.842 108.624H476.969L473.232 100.505L474.834 98.4758L478.037 105.918H482.842V108.624Z" fill="#FFF7FF"/>
<path opacity="0.85" d="M538.901 20H544.773L548.51 28.795L546.909 30.148L543.706 22.7061H538.901V20Z" fill="#FFF7FF"/>
<path opacity="0.85" d="M538.901 107.947H544.773L548.51 99.8288L546.909 98.4758L543.706 105.241H538.901V107.947Z" fill="#FFF7FF"/>
</g>
</g>
<g opacity="0.85">
<g opacity="0.85">
<path opacity="0.1" d="M392.391 22.0307L388.654 28.7961V99.8322L392.925 107.274H397.73H453.786L459.124 106.598L462.861 99.1557V29.4726L459.124 22.0307L453.786 21.3542L392.391 22.0307Z" fill="#FFF7FF"/>
<path opacity="0.85" d="M397.732 20H391.859L388.122 28.795L389.724 30.148L392.927 22.7061H397.732V20Z" fill="#FFF7FF"/>
<path opacity="0.85" d="M397.732 108.624H391.859L388.122 100.505L389.724 98.4758L392.927 105.918H397.732V108.624Z" fill="#FFF7FF"/>
<path opacity="0.85" d="M453.791 20H459.663L463.4 28.795L461.799 30.148L458.595 22.7061H453.791V20Z" fill="#FFF7FF"/>
<path opacity="0.85" d="M453.791 107.947H459.663L463.4 99.8288L461.799 98.4758L458.595 105.241H453.791V107.947Z" fill="#FFF7FF"/>
</g>
</g>
<g opacity="0.85">
<g opacity="0.85">
<path opacity="0.1" d="M222.171 22.0307L218.434 28.7961V99.8322L222.705 107.274H227.51H283.566L288.904 106.598L292.641 99.1557V29.4726L288.904 22.0307L283.566 21.3542L222.171 22.0307Z" fill="#FFF7FF"/>
<path opacity="0.85" d="M227.512 20H221.639L217.902 28.795L219.504 30.148L222.707 22.7061H227.512V20Z" fill="#FFF7FF"/>
<path opacity="0.85" d="M227.512 108.624H221.639L217.902 100.505L219.504 98.4758L222.707 105.918H227.512V108.624Z" fill="#FFF7FF"/>
<path opacity="0.85" d="M283.571 20H289.443L293.18 28.795L291.579 30.148L288.375 22.7061H283.571V20Z" fill="#FFF7FF"/>
<path opacity="0.85" d="M283.571 107.947H289.443L293.18 99.8288L291.579 98.4758L288.375 105.241H283.571V107.947Z" fill="#FFF7FF"/>
</g>
</g>
<g opacity="0.85">
<g opacity="0.85">
<path opacity="0.1" d="M562.611 22.0307L558.874 28.7961V99.8322L563.145 107.274H567.95H624.006L629.344 106.598L633.082 99.1557V29.4726L629.344 22.0307L624.006 21.3542L562.611 22.0307Z" fill="#FFF7FF"/>
<path opacity="0.85" d="M567.952 20H562.08L558.343 28.795L559.944 30.148L563.147 22.7061H567.952V20Z" fill="#FFF7FF"/>
<path opacity="0.85" d="M567.952 108.624H562.079L558.342 100.505L559.944 98.4758L563.147 105.918H567.952V108.624Z" fill="#FFF7FF"/>
<path opacity="0.85" d="M624.011 20H629.883L633.62 28.795L632.019 30.148L628.816 22.7061H624.011V20Z" fill="#FFF7FF"/>
<path opacity="0.85" d="M624.011 107.947H629.883L633.62 99.8288L632.019 98.4758L628.816 105.241H624.011V107.947Z" fill="#FFF7FF"/>
</g>
</g>
</g>
<g filter="url(#filter1_d)">
<g opacity="0.85">
<g opacity="0.85">
<path opacity="0.1" d="M53.8016 147.354L50.0646 154.796V225.832L54.3355 233.274H59.1403H114.662L120.535 232.598L123.738 225.156V154.796L120.001 147.354H114.662H53.8016Z" fill="#FFF7FF"/>
<path opacity="0.85" d="M59.1434 146H52.737L48.9999 154.118L51.1354 156.148L54.3386 148.706H59.1434V146Z" fill="#FFF7FF"/>
<path opacity="0.85" d="M59.1434 234.624H52.7371L49 226.505L51.1355 224.476L54.3386 231.918H59.1434V234.624Z" fill="#FFF7FF"/>
<path opacity="0.85" d="M114.669 146H121.075L124.812 154.118L122.677 156.148L119.473 148.706H114.669V146Z" fill="#FFF7FF"/>
<path opacity="0.85" d="M114.669 233.947H121.075L124.812 225.829L122.677 224.476L119.473 231.241H114.669V233.947Z" fill="#FFF7FF"/>
</g>
</g>
<g opacity="0.85">
<g opacity="0.85">
<path opacity="0.1" d="M138.061 148.031L134.324 154.796V225.832L138.595 233.274H143.4H199.455L204.794 232.598L208.531 225.156V155.473L204.794 148.031L199.455 147.354L138.061 148.031Z" fill="#FFF7FF"/>
<path opacity="0.85" d="M143.402 146H137.529L133.792 154.795L135.394 156.148L138.597 148.706H143.402V146Z" fill="#FFF7FF"/>
<path opacity="0.85" d="M143.401 234.624H137.529L133.792 226.505L135.393 224.476L138.597 231.918H143.401V234.624Z" fill="#FFF7FF"/>
<path opacity="0.85" d="M199.46 146H205.333L209.07 154.795L207.468 156.148L204.265 148.706H199.46V146Z" fill="#FFF7FF"/>
<path opacity="0.85" d="M199.46 233.947H205.333L209.07 225.829L207.468 224.476L204.265 231.241H199.46V233.947Z" fill="#FFF7FF"/>
</g>
</g>
<g opacity="0.85">
<path opacity="0.1" d="M308.281 148.031L304.544 154.796L305.078 225.832L308.815 233.274H313.62H369.676L375.014 232.598L378.751 225.156V155.473L375.014 148.031L369.676 147.354L308.281 148.031Z" fill="#FFF7FF"/>
<path opacity="0.85" d="M313.622 146H307.749L304.012 154.795L305.614 156.148L309.351 148.706H313.622V146Z" fill="#FFF7FF"/>
<path opacity="0.85" d="M313.622 234.624H307.749L304.012 226.505L305.614 224.476L309.351 231.918H313.622V234.624Z" fill="#FFF7FF"/>
<path opacity="0.85" d="M369.681 146H375.553L379.824 154.795L377.689 156.148L374.485 148.706H369.681V146Z" fill="#FFF7FF"/>
<path opacity="0.85" d="M369.681 233.947H375.553L379.824 225.829L377.689 224.476L374.485 231.241H369.681V233.947Z" fill="#FFF7FF"/>
</g>
<g opacity="0.85">
<g opacity="0.85">
<path opacity="0.1" d="M478.501 148.031L474.764 154.796V225.832L479.035 233.274H483.84H539.896L545.234 232.598L548.971 225.156V155.473L545.234 148.031L539.896 147.354L478.501 148.031Z" fill="#FFF7FF"/>
<path opacity="0.85" d="M483.842 146H477.97L474.233 154.795L475.834 156.148L479.037 148.706H483.842V146Z" fill="#FFF7FF"/>
<path opacity="0.85" d="M483.842 234.624H477.969L474.232 226.505L475.834 224.476L479.037 231.918H483.842V234.624Z" fill="#FFF7FF"/>
<path opacity="0.85" d="M539.901 146H545.773L549.51 154.795L547.909 156.148L544.706 148.706H539.901V146Z" fill="#FFF7FF"/>
<path opacity="0.85" d="M539.901 233.947H545.773L549.51 225.829L547.909 224.476L544.706 231.241H539.901V233.947Z" fill="#FFF7FF"/>
</g>
</g>
<g opacity="0.85">
<g opacity="0.85">
<path opacity="0.1" d="M393.391 148.031L389.654 154.796V225.832L393.925 233.274H398.73H454.786L460.124 232.598L463.861 225.156V155.473L460.124 148.031L454.786 147.354L393.391 148.031Z" fill="#FFF7FF"/>
<path opacity="0.85" d="M398.732 146H392.859L389.122 154.795L390.724 156.148L393.927 148.706H398.732V146Z" fill="#FFF7FF"/>
<path opacity="0.85" d="M398.732 234.624H392.859L389.122 226.505L390.724 224.476L393.927 231.918H398.732V234.624Z" fill="#FFF7FF"/>
<path opacity="0.85" d="M454.791 146H460.663L464.4 154.795L462.799 156.148L459.595 148.706H454.791V146Z" fill="#FFF7FF"/>
<path opacity="0.85" d="M454.791 233.947H460.663L464.4 225.829L462.799 224.476L459.595 231.241H454.791V233.947Z" fill="#FFF7FF"/>
</g>
</g>
<g opacity="0.85">
<g opacity="0.85">
<path opacity="0.1" d="M223.171 148.031L219.434 154.796V225.832L223.705 233.274H228.51H284.566L289.904 232.598L293.641 225.156V155.473L289.904 148.031L284.566 147.354L223.171 148.031Z" fill="#FFF7FF"/>
<path opacity="0.85" d="M228.512 146H222.639L218.902 154.795L220.504 156.148L223.707 148.706H228.512V146Z" fill="#FFF7FF"/>
<path opacity="0.85" d="M228.512 234.624H222.639L218.902 226.505L220.504 224.476L223.707 231.918H228.512V234.624Z" fill="#FFF7FF"/>
<path opacity="0.85" d="M284.571 146H290.443L294.18 154.795L292.579 156.148L289.375 148.706H284.571V146Z" fill="#FFF7FF"/>
<path opacity="0.85" d="M284.571 233.947H290.443L294.18 225.829L292.579 224.476L289.375 231.241H284.571V233.947Z" fill="#FFF7FF"/>
</g>
</g>
<g opacity="0.85">
<g opacity="0.85">
<path opacity="0.1" d="M563.611 148.031L559.874 154.796V225.832L564.145 233.274H568.95H625.006L630.344 232.598L634.082 225.156V155.473L630.344 148.031L625.006 147.354L563.611 148.031Z" fill="#FFF7FF"/>
<path opacity="0.85" d="M568.952 146H563.08L559.343 154.795L560.944 156.148L564.147 148.706H568.952V146Z" fill="#FFF7FF"/>
<path opacity="0.85" d="M568.952 234.624H563.079L559.342 226.505L560.944 224.476L564.147 231.918H568.952V234.624Z" fill="#FFF7FF"/>
<path opacity="0.85" d="M625.011 146H630.883L634.62 154.795L633.019 156.148L629.816 148.706H625.011V146Z" fill="#FFF7FF"/>
<path opacity="0.85" d="M625.011 233.947H630.883L634.62 225.829L633.019 224.476L629.816 231.241H625.011V233.947Z" fill="#FFF7FF"/>
</g>
</g>
</g>
<g filter="url(#filter2_d)">
<g opacity="0.85">
<g opacity="0.85">
<path opacity="0.1" d="M24.8016 273.354L21.0646 280.796V351.832L25.3355 359.274H30.1403H85.6622L91.5347 358.598L94.7379 351.156V280.796L91.0009 273.354H85.6622H24.8016Z" fill="#FFF7FF"/>
<path opacity="0.85" d="M30.1434 272H23.737L19.9999 280.118L22.1354 282.148L25.3386 274.706H30.1434V272Z" fill="#FFF7FF"/>
<path opacity="0.85" d="M30.1434 360.624H23.7371L20 352.505L22.1355 350.476L25.3386 357.918H30.1434V360.624Z" fill="#FFF7FF"/>
<path opacity="0.85" d="M85.6687 272H92.0751L95.8121 280.118L93.6766 282.148L90.4735 274.706H85.6687V272Z" fill="#FFF7FF"/>
<path opacity="0.85" d="M85.6687 359.947H92.0751L95.8121 351.829L93.6766 350.476L90.4735 357.241H85.6687V359.947Z" fill="#FFF7FF"/>
</g>
</g>
<g opacity="0.85">
<g opacity="0.85">
<path opacity="0.1" d="M109.061 274.031L105.324 280.796V351.832L109.595 359.274H114.4H170.455L175.794 358.598L179.531 351.156V281.473L175.794 274.031L170.455 273.354L109.061 274.031Z" fill="#FFF7FF"/>
<path opacity="0.85" d="M114.402 272H108.529L104.792 280.795L106.394 282.148L109.597 274.706H114.402V272Z" fill="#FFF7FF"/>
<path opacity="0.85" d="M114.401 360.624H108.529L104.792 352.505L106.393 350.476L109.597 357.918H114.401V360.624Z" fill="#FFF7FF"/>
<path opacity="0.85" d="M170.46 272H176.333L180.07 280.795L178.468 282.148L175.265 274.706H170.46V272Z" fill="#FFF7FF"/>
<path opacity="0.85" d="M170.46 359.947H176.333L180.07 351.829L178.468 350.476L175.265 357.241H170.46V359.947Z" fill="#FFF7FF"/>
</g>
</g>
<g opacity="0.85">
<path opacity="0.1" d="M279.281 274.031L275.544 280.796L276.078 351.832L279.815 359.274H284.62H340.676L346.014 358.598L349.751 351.156V281.473L346.014 274.031L340.676 273.354L279.281 274.031Z" fill="#FFF7FF"/>
<path opacity="0.85" d="M284.622 272H278.749L275.012 280.795L276.614 282.148L280.351 274.706H284.622V272Z" fill="#FFF7FF"/>
<path opacity="0.85" d="M284.622 360.624H278.749L275.012 352.505L276.614 350.476L280.351 357.918H284.622V360.624Z" fill="#FFF7FF"/>
<path opacity="0.85" d="M340.681 272H346.553L350.824 280.795L348.689 282.148L345.485 274.706H340.681V272Z" fill="#FFF7FF"/>
<path opacity="0.85" d="M340.681 359.947H346.553L350.824 351.829L348.689 350.476L345.485 357.241H340.681V359.947Z" fill="#FFF7FF"/>
</g>
<g opacity="0.85">
<g opacity="0.85">
<path opacity="0.1" d="M449.501 274.031L445.764 280.796V351.832L450.035 359.274H454.84H510.896L516.234 358.598L519.971 351.156V281.473L516.234 274.031L510.896 273.354L449.501 274.031Z" fill="#FFF7FF"/>
<path opacity="0.85" d="M454.842 272H448.97L445.233 280.795L446.834 282.148L450.037 274.706H454.842V272Z" fill="#FFF7FF"/>
<path opacity="0.85" d="M454.842 360.624H448.969L445.232 352.505L446.834 350.476L450.037 357.918H454.842V360.624Z" fill="#FFF7FF"/>
<path opacity="0.85" d="M510.901 272H516.773L520.51 280.795L518.909 282.148L515.706 274.706H510.901V272Z" fill="#FFF7FF"/>
<path opacity="0.85" d="M510.901 359.947H516.773L520.51 351.829L518.909 350.476L515.706 357.241H510.901V359.947Z" fill="#FFF7FF"/>
</g>
</g>
<g opacity="0.85">
<g opacity="0.85">
<path opacity="0.1" d="M364.391 274.031L360.654 280.796V351.832L364.925 359.274H369.73H425.786L431.124 358.598L434.861 351.156V281.473L431.124 274.031L425.786 273.354L364.391 274.031Z" fill="#FFF7FF"/>
<path opacity="0.85" d="M369.732 272H363.859L360.122 280.795L361.724 282.148L364.927 274.706H369.732V272Z" fill="#FFF7FF"/>
<path opacity="0.85" d="M369.732 360.624H363.859L360.122 352.505L361.724 350.476L364.927 357.918H369.732V360.624Z" fill="#FFF7FF"/>
<path opacity="0.85" d="M425.791 272H431.663L435.4 280.795L433.799 282.148L430.595 274.706H425.791V272Z" fill="#FFF7FF"/>
<path opacity="0.85" d="M425.791 359.947H431.663L435.4 351.829L433.799 350.476L430.595 357.241H425.791V359.947Z" fill="#FFF7FF"/>
</g>
</g>
<g opacity="0.85">
<g opacity="0.85">
<path opacity="0.1" d="M534.611 274.031L530.874 280.796V351.832L535.145 359.274H539.95H596.006L601.344 358.598L605.082 351.156V281.473L601.344 274.031L596.006 273.354L534.611 274.031Z" fill="#FFF7FF"/>
<path opacity="0.85" d="M539.952 272H534.08L530.343 280.795L531.944 282.148L535.147 274.706H539.952V272Z" fill="#FFF7FF"/>
<path opacity="0.85" d="M539.952 360.624H534.079L530.342 352.505L531.944 350.476L535.147 357.918H539.952V360.624Z" fill="#FFF7FF"/>
<path opacity="0.85" d="M596.011 272H601.883L605.62 280.795L604.019 282.148L600.816 274.706H596.011V272Z" fill="#FFF7FF"/>
<path opacity="0.85" d="M596.011 359.947H601.883L605.62 351.829L604.019 350.476L600.816 357.241H596.011V359.947Z" fill="#FFF7FF"/>
</g>
</g>
<g opacity="0.85">
<g opacity="0.85">
<path opacity="0.1" d="M619.269 274.031L615.532 280.796V351.832L619.803 359.274H624.608H680.663L686.002 358.598L689.739 351.156V281.473L686.002 274.031L680.663 273.354L619.269 274.031Z" fill="#FFF7FF"/>
<path opacity="0.85" d="M624.61 272H618.737L615 280.795L616.602 282.148L619.805 274.706H624.61V272Z" fill="#FFF7FF"/>
<path opacity="0.85" d="M624.609 360.624H618.737L615 352.505L616.601 350.476L619.805 357.918H624.609V360.624Z" fill="#FFF7FF"/>
<path opacity="0.85" d="M680.668 272H686.541L690.278 280.795L688.676 282.148L685.473 274.706H680.668V272Z" fill="#FFF7FF"/>
<path opacity="0.85" d="M680.668 359.947H686.541L690.278 351.829L688.676 350.476L685.473 357.241H680.668V359.947Z" fill="#FFF7FF"/>
</g>
</g>
</g>
<defs>
<filter id="filter0_d" x="27.9999" y="0" width="625.621" height="128.624" filterUnits="userSpaceOnUse" color-interpolation-filters="sRGB">
<feFlood flood-opacity="0" result="BackgroundImageFix"/>
<feColorMatrix in="SourceAlpha" type="matrix" values="0 0 0 0 0 0 0 0 0 0 0 0 0 0 0 0 0 0 127 0"/>
<feOffset/>
<feGaussianBlur stdDeviation="10"/>
<feColorMatrix type="matrix" values="0 0 0 0 1 0 0 0 0 1 0 0 0 0 1 0 0 0 0.16 0"/>
<feBlend mode="normal" in2="BackgroundImageFix" result="effect1_dropShadow"/>
<feBlend mode="normal" in="SourceGraphic" in2="effect1_dropShadow" result="shape"/>
</filter>
<filter id="filter1_d" x="28.9999" y="126" width="625.621" height="128.624" filterUnits="userSpaceOnUse" color-interpolation-filters="sRGB">
<feFlood flood-opacity="0" result="BackgroundImageFix"/>
<feColorMatrix in="SourceAlpha" type="matrix" values="0 0 0 0 0 0 0 0 0 0 0 0 0 0 0 0 0 0 127 0"/>
<feOffset/>
<feGaussianBlur stdDeviation="10"/>
<feColorMatrix type="matrix" values="0 0 0 0 1 0 0 0 0 1 0 0 0 0 1 0 0 0 0.16 0"/>
<feBlend mode="normal" in2="BackgroundImageFix" result="effect1_dropShadow"/>
<feBlend mode="normal" in="SourceGraphic" in2="effect1_dropShadow" result="shape"/>
</filter>
<filter id="filter2_d" x="-6.10352e-05" y="252" width="710.278" height="128.624" filterUnits="userSpaceOnUse" color-interpolation-filters="sRGB">
<feFlood flood-opacity="0" result="BackgroundImageFix"/>
<feColorMatrix in="SourceAlpha" type="matrix" values="0 0 0 0 0 0 0 0 0 0 0 0 0 0 0 0 0 0 127 0"/>
<feOffset/>
<feGaussianBlur stdDeviation="10"/>
<feColorMatrix type="matrix" values="0 0 0 0 1 0 0 0 0 1 0 0 0 0 1 0 0 0 0.16 0"/>
<feBlend mode="normal" in2="BackgroundImageFix" result="effect1_dropShadow"/>
<feBlend mode="normal" in="SourceGraphic" in2="effect1_dropShadow" result="shape"/>
</filter>
</defs>
</svg>
